G04 #@! TF.GenerationSoftware,KiCad,Pcbnew,5.1.5+dfsg1-2~bpo10+1*
G04 #@! TF.CreationDate,2020-04-18T13:19:32-07:00*
G04 #@! TF.ProjectId,rbdrums,72626472-756d-4732-9e6b-696361645f70,rev?*
G04 #@! TF.SameCoordinates,Original*
G04 #@! TF.FileFunction,Copper,L1,Top*
G04 #@! TF.FilePolarity,Positive*
%FSLAX46Y46*%
G04 Gerber Fmt 4.6, Leading zero omitted, Abs format (unit mm)*
G04 Created by KiCad (PCBNEW 5.1.5+dfsg1-2~bpo10+1) date 2020-04-18 13:19:32*
%MOMM*%
%LPD*%
G04 APERTURE LIST*
%ADD10R,3.000000X1.000000*%
%ADD11C,3.000000*%
%ADD12O,1.400000X1.400000*%
%ADD13C,1.400000*%
%ADD14C,1.800000*%
%ADD15R,1.800000X1.800000*%
%ADD16C,1.404000*%
%ADD17C,1.304000*%
%ADD18C,0.804000*%
%ADD19O,1.600000X1.600000*%
%ADD20R,1.600000X1.600000*%
%ADD21O,1.500000X2.200000*%
%ADD22C,2.500000*%
%ADD23O,1.200000X2.000000*%
%ADD24C,0.800000*%
%ADD25C,0.200660*%
%ADD26C,0.250000*%
%ADD27C,0.200000*%
G04 APERTURE END LIST*
D10*
X134650000Y-106822000D03*
X134650000Y-104322000D03*
X134650000Y-102322000D03*
X134650000Y-99822000D03*
D11*
X130640000Y-96752000D03*
X130640000Y-109892000D03*
D12*
X129819400Y-65989200D03*
D13*
X137439400Y-65989200D03*
D14*
X127584200Y-67741800D03*
D15*
X127584200Y-65201800D03*
D16*
X152781000Y-88900000D03*
X122301000Y-73660000D03*
X124841000Y-76200000D03*
X124841000Y-73660000D03*
X127381000Y-73660000D03*
X129921000Y-73660000D03*
X132461000Y-73660000D03*
X135001000Y-73660000D03*
X137541000Y-73660000D03*
X140081000Y-73660000D03*
X142621000Y-73660000D03*
X145161000Y-73660000D03*
X147701000Y-73660000D03*
X150241000Y-73660000D03*
X152781000Y-73660000D03*
X155321000Y-73660000D03*
X155321000Y-76200000D03*
X155321000Y-78740000D03*
X155321000Y-81280000D03*
X155321000Y-83820000D03*
X155321000Y-86360000D03*
X155321000Y-88900000D03*
X150241000Y-88900000D03*
X147701000Y-88900000D03*
X145161000Y-88900000D03*
X142621000Y-88900000D03*
X140081000Y-88900000D03*
X137541000Y-88900000D03*
X135001000Y-88900000D03*
X132461000Y-88900000D03*
X129921000Y-88900000D03*
X127381000Y-88900000D03*
D17*
X123571000Y-82550000D03*
X123571000Y-80010000D03*
D18*
X129439400Y-84780000D03*
X129439400Y-83780000D03*
X129439400Y-82780000D03*
X129439400Y-81780000D03*
X129439400Y-80780000D03*
X129439400Y-79780000D03*
X129439400Y-78780000D03*
X129439400Y-77780000D03*
D17*
X147701000Y-86360000D03*
X150241000Y-86360000D03*
X147701000Y-83820000D03*
X150241000Y-83820000D03*
X147701000Y-81280000D03*
X150241000Y-81280000D03*
X147701000Y-78740000D03*
X150241000Y-78740000D03*
X147701000Y-76200000D03*
X150241000Y-76200000D03*
D16*
X124841000Y-88900000D03*
X122301000Y-88900000D03*
D19*
X148717000Y-49911000D03*
X141097000Y-57531000D03*
X148717000Y-52451000D03*
X141097000Y-54991000D03*
X148717000Y-54991000D03*
X141097000Y-52451000D03*
X148717000Y-57531000D03*
D20*
X141097000Y-49911000D03*
D12*
X146989800Y-101854000D03*
D13*
X154609800Y-101854000D03*
D12*
X146989800Y-105156000D03*
D13*
X154609800Y-105156000D03*
D12*
X145161000Y-28829000D03*
D13*
X145161000Y-36449000D03*
D12*
X142748000Y-39116000D03*
D13*
X142748000Y-46736000D03*
D12*
X145542000Y-60579000D03*
D13*
X137922000Y-60579000D03*
D12*
X140462000Y-39116000D03*
D13*
X140462000Y-46736000D03*
D12*
X137922000Y-63119000D03*
D13*
X145542000Y-63119000D03*
D12*
X144932400Y-105156000D03*
D13*
X137312400Y-105156000D03*
D12*
X144932400Y-101854000D03*
D13*
X137312400Y-101854000D03*
D21*
X122421000Y-30433000D03*
X122421000Y-40433000D03*
D22*
X134921000Y-30433000D03*
X134921000Y-40433000D03*
X132421000Y-27933000D03*
X132421000Y-35433000D03*
X132421000Y-42933000D03*
D21*
X122421000Y-50626000D03*
X122421000Y-60626000D03*
D22*
X134921000Y-50626000D03*
X134921000Y-60626000D03*
X132421000Y-48126000D03*
X132421000Y-55626000D03*
X132421000Y-63126000D03*
D23*
X155194000Y-91948000D03*
X152654000Y-91948000D03*
X150114000Y-91948000D03*
X147574000Y-91948000D03*
X145034000Y-91948000D03*
X142494000Y-91948000D03*
X139954000Y-91948000D03*
X137414000Y-91948000D03*
X134874000Y-91948000D03*
X132334000Y-91948000D03*
X129794000Y-91948000D03*
X155194000Y-70866000D03*
X155194000Y-68326000D03*
X152654000Y-70866000D03*
X152654000Y-68326000D03*
X150114000Y-70866000D03*
X150114000Y-68326000D03*
X147574000Y-70866000D03*
X147574000Y-68326000D03*
X145034000Y-70866000D03*
X145034000Y-68326000D03*
X142494000Y-70866000D03*
X142494000Y-68326000D03*
X139954000Y-70866000D03*
X139954000Y-68326000D03*
X137414000Y-70866000D03*
X137414000Y-68326000D03*
D19*
X138303000Y-58039000D03*
D20*
X138303000Y-50419000D03*
D24*
X127508000Y-86106000D03*
X133350000Y-68072000D03*
X128524000Y-87122000D03*
X130048000Y-64262000D03*
D25*
X138303000Y-54008000D02*
X134921000Y-50626000D01*
X138303000Y-58039000D02*
X138303000Y-54008000D01*
X139965630Y-54991000D02*
X138982630Y-54008000D01*
X141097000Y-54991000D02*
X139965630Y-54991000D01*
X138982630Y-54008000D02*
X138303000Y-54008000D01*
X139065000Y-50419000D02*
X138303000Y-50419000D01*
X141097000Y-52451000D02*
X139065000Y-50419000D01*
X142228370Y-52451000D02*
X145542000Y-55764630D01*
X145542000Y-59589051D02*
X145542000Y-60579000D01*
X145542000Y-55764630D02*
X145542000Y-59589051D01*
X141097000Y-52451000D02*
X142228370Y-52451000D01*
D26*
X133710000Y-106822000D02*
X134650000Y-106822000D01*
X130640000Y-109892000D02*
X133710000Y-106822000D01*
D27*
X123571000Y-82550000D02*
X124616000Y-81505000D01*
X123473000Y-94445000D02*
X131668198Y-102640198D01*
X123473000Y-89651345D02*
X123473000Y-94445000D01*
X131668198Y-102640198D02*
X133350000Y-104322000D01*
X123389008Y-89567353D02*
X123473000Y-89651345D01*
X123389008Y-88232647D02*
X123389008Y-89567353D01*
X125759000Y-85504800D02*
X123473000Y-87790800D01*
X123473000Y-88148655D02*
X123389008Y-88232647D01*
X123473000Y-87790800D02*
X123473000Y-88148655D01*
X125759000Y-82135200D02*
X125759000Y-85504800D01*
X125128800Y-81505000D02*
X125759000Y-82135200D01*
X124616000Y-81505000D02*
X125128800Y-81505000D01*
D25*
X133350000Y-104322000D02*
X135310000Y-104322000D01*
D26*
X136478400Y-104322000D02*
X137312400Y-105156000D01*
X134650000Y-104322000D02*
X136478400Y-104322000D01*
D25*
X133350000Y-102322000D02*
X135676000Y-102322000D01*
D27*
X124616000Y-81055000D02*
X125315200Y-81055000D01*
X123923000Y-94258603D02*
X131986397Y-102322000D01*
X123923000Y-89464962D02*
X123923000Y-94258603D01*
X131986397Y-102322000D02*
X133350000Y-102322000D01*
X126209000Y-85691200D02*
X123923000Y-87977200D01*
X123838999Y-88419039D02*
X123838999Y-89380961D01*
X123923000Y-87977200D02*
X123923000Y-88335038D01*
X123923000Y-88335038D02*
X123838999Y-88419039D01*
X123838999Y-89380961D02*
X123923000Y-89464962D01*
X126209000Y-81948800D02*
X126209000Y-85691200D01*
X125315200Y-81055000D02*
X126209000Y-81948800D01*
X123571000Y-80010000D02*
X124616000Y-81055000D01*
D26*
X136400000Y-102322000D02*
X136868000Y-101854000D01*
X136868000Y-101854000D02*
X137312400Y-101854000D01*
X134650000Y-102322000D02*
X136400000Y-102322000D01*
X124841000Y-76200000D02*
X124841000Y-75438000D01*
X123728672Y-75087672D02*
X122548494Y-73907494D01*
X124841000Y-75438000D02*
X124490672Y-75087672D01*
X124490672Y-75087672D02*
X123728672Y-75087672D01*
X126746000Y-78105000D02*
X125191010Y-76550010D01*
X126746000Y-86614000D02*
X126746000Y-78105000D01*
X129159000Y-93726000D02*
X128408001Y-92975001D01*
X133350000Y-99822000D02*
X133350000Y-96901000D01*
X133350000Y-96901000D02*
X130175000Y-93726000D01*
X130175000Y-93726000D02*
X129159000Y-93726000D01*
X128408001Y-92975001D02*
X128408001Y-88276001D01*
X128408001Y-88276001D02*
X126746000Y-86614000D01*
D25*
X129921000Y-72667223D02*
X131722223Y-70866000D01*
X129921000Y-73660000D02*
X129921000Y-72667223D01*
X136613340Y-70866000D02*
X137414000Y-70866000D01*
X131722223Y-70866000D02*
X136613340Y-70866000D01*
X133954660Y-72166340D02*
X137853000Y-72166340D01*
X137853000Y-72166340D02*
X139153340Y-70866000D01*
X132461000Y-73660000D02*
X133954660Y-72166340D01*
X139153340Y-70866000D02*
X139954000Y-70866000D01*
X143394340Y-71638933D02*
X143394340Y-68425680D01*
X143394340Y-68425680D02*
X143294660Y-68326000D01*
X142375604Y-72657669D02*
X143394340Y-71638933D01*
X143294660Y-68326000D02*
X142494000Y-68326000D01*
X141083331Y-72657669D02*
X142375604Y-72657669D01*
X140081000Y-73660000D02*
X141083331Y-72657669D01*
X143795011Y-68764329D02*
X144233340Y-68326000D01*
X142621000Y-73660000D02*
X143795011Y-72485989D01*
X143795011Y-72485989D02*
X143795011Y-68764329D01*
X144233340Y-68326000D02*
X145034000Y-68326000D01*
X145161000Y-73660000D02*
X145161000Y-72667223D01*
X146962223Y-70866000D02*
X147574000Y-70866000D01*
X145161000Y-72667223D02*
X146962223Y-70866000D01*
X147701000Y-73660000D02*
X147574000Y-73660000D01*
X146708223Y-73660000D02*
X146558000Y-73509777D01*
X147701000Y-73660000D02*
X146708223Y-73660000D01*
X146558000Y-73509777D02*
X146558000Y-72644000D01*
X146558000Y-72644000D02*
X147066000Y-72136000D01*
X148374660Y-68326000D02*
X147574000Y-68326000D01*
X147946933Y-72166340D02*
X148474340Y-71638933D01*
X148474340Y-68425680D02*
X148374660Y-68326000D01*
X147096340Y-72166340D02*
X147946933Y-72166340D01*
X148474340Y-71638933D02*
X148474340Y-68425680D01*
X147066000Y-72136000D02*
X147096340Y-72166340D01*
X150876000Y-71628000D02*
X150114000Y-70866000D01*
X150241000Y-73660000D02*
X150876000Y-73025000D01*
X150876000Y-73025000D02*
X150876000Y-71628000D01*
X150914660Y-68326000D02*
X150114000Y-68326000D01*
X151352989Y-68764329D02*
X150914660Y-68326000D01*
X151384000Y-69295907D02*
X151352989Y-69264896D01*
X151352989Y-69264896D02*
X151352989Y-68764329D01*
X151384000Y-72898000D02*
X151384000Y-69295907D01*
X152781000Y-73660000D02*
X152146000Y-73660000D01*
X152146000Y-73660000D02*
X151384000Y-72898000D01*
X155321000Y-91821000D02*
X155194000Y-91948000D01*
X155321000Y-88900000D02*
X155321000Y-91821000D01*
X152781000Y-91821000D02*
X152654000Y-91948000D01*
X152781000Y-88900000D02*
X152781000Y-91821000D01*
X150241000Y-91821000D02*
X150114000Y-91948000D01*
X150241000Y-88900000D02*
X150241000Y-91821000D01*
X137541000Y-91821000D02*
X137414000Y-91948000D01*
X137541000Y-88900000D02*
X137541000Y-91821000D01*
X135001000Y-91821000D02*
X134874000Y-91948000D01*
X135001000Y-88900000D02*
X135001000Y-91821000D01*
X132461000Y-91821000D02*
X132334000Y-91948000D01*
X132461000Y-88900000D02*
X132461000Y-91821000D01*
X129921000Y-91821000D02*
X129794000Y-91948000D01*
X129921000Y-88900000D02*
X129921000Y-91821000D01*
X147701000Y-91821000D02*
X147574000Y-91948000D01*
X147701000Y-88900000D02*
X147701000Y-91821000D01*
X145161000Y-91821000D02*
X145034000Y-91948000D01*
X145161000Y-88900000D02*
X145161000Y-91821000D01*
X142621000Y-91821000D02*
X142494000Y-91948000D01*
X142621000Y-88900000D02*
X142621000Y-91821000D01*
X140081000Y-91821000D02*
X139954000Y-91948000D01*
X140081000Y-88900000D02*
X140081000Y-91821000D01*
X137976697Y-72657669D02*
X138468027Y-72166339D01*
X138468027Y-72166339D02*
X140326934Y-72166339D01*
X141955104Y-66624989D02*
X150952989Y-66624989D01*
X150952989Y-66624989D02*
X152654000Y-68326000D01*
X136003331Y-72657669D02*
X137976697Y-72657669D01*
X140326934Y-72166339D02*
X141192989Y-71300284D01*
X135001000Y-73660000D02*
X136003331Y-72657669D01*
X141192989Y-71300284D02*
X141192990Y-67387103D01*
X141192990Y-67387103D02*
X141955104Y-66624989D01*
X150486933Y-67025660D02*
X151753660Y-68292387D01*
X142121067Y-67025660D02*
X150486933Y-67025660D01*
X151753660Y-68292387D02*
X151753660Y-69098933D01*
X141593660Y-67553067D02*
X142121067Y-67025660D01*
X138557000Y-72644000D02*
X139549777Y-72644000D01*
X137541000Y-73660000D02*
X138557000Y-72644000D01*
X151853340Y-69665340D02*
X152654000Y-70466000D01*
X141593660Y-71466247D02*
X141593660Y-67553067D01*
X139549777Y-72644000D02*
X139626767Y-72567010D01*
X152654000Y-70466000D02*
X152654000Y-70866000D01*
X151753660Y-69098933D02*
X151853340Y-69198613D01*
X139626767Y-72567010D02*
X140492897Y-72567010D01*
X151853340Y-69198613D02*
X151853340Y-69665340D01*
X140492897Y-72567010D02*
X141593660Y-71466247D01*
X127508000Y-86106000D02*
X127508000Y-77724000D01*
X127508000Y-77724000D02*
X127508000Y-77470000D01*
X147917001Y-55790999D02*
X148717000Y-54991000D01*
X147616669Y-59984822D02*
X147616669Y-56091331D01*
X147616669Y-56091331D02*
X147917001Y-55790999D01*
X145482822Y-62118669D02*
X147616669Y-59984822D01*
X138922331Y-62118669D02*
X145482822Y-62118669D01*
X137922000Y-63119000D02*
X138922331Y-62118669D01*
X134722491Y-63119000D02*
X136932051Y-63119000D01*
X128499491Y-69342000D02*
X134722491Y-63119000D01*
X124732491Y-69342000D02*
X128499491Y-69342000D01*
X123317000Y-70757491D02*
X124732491Y-69342000D01*
X127508000Y-77383549D02*
X124786782Y-74662331D01*
X127508000Y-77724000D02*
X127508000Y-77383549D01*
X123317000Y-71120000D02*
X123317000Y-70757491D01*
X123303331Y-73605782D02*
X123303331Y-71133669D01*
X124786782Y-74662331D02*
X124359880Y-74662331D01*
X136932051Y-63119000D02*
X137922000Y-63119000D01*
X124359880Y-74662331D02*
X123303331Y-73605782D01*
X123303331Y-71133669D02*
X123317000Y-71120000D01*
X146177000Y-52451000D02*
X140462000Y-46736000D01*
X148717000Y-52451000D02*
X146177000Y-52451000D01*
X137875000Y-60626000D02*
X137922000Y-60579000D01*
X134921000Y-60626000D02*
X137875000Y-60626000D01*
X141431000Y-40433000D02*
X142748000Y-39116000D01*
X134921000Y-40433000D02*
X141431000Y-40433000D01*
X136688766Y-30433000D02*
X138292766Y-28829000D01*
X144171051Y-28829000D02*
X145161000Y-28829000D01*
X138292766Y-28829000D02*
X144171051Y-28829000D01*
X134921000Y-30433000D02*
X136688766Y-30433000D01*
X136610509Y-36449000D02*
X130048000Y-43011509D01*
X138176000Y-36449000D02*
X136610509Y-36449000D01*
X130048000Y-64262000D02*
X130048000Y-43011509D01*
X138176000Y-36449000D02*
X145161000Y-36449000D01*
X132950001Y-68471999D02*
X133350000Y-68072000D01*
X128797671Y-72624329D02*
X132950001Y-68471999D01*
X128797671Y-74402329D02*
X128797671Y-72624329D01*
X128524000Y-87122000D02*
X128524000Y-74676000D01*
X128524000Y-74676000D02*
X128797671Y-74402329D01*
X128397000Y-73279000D02*
X128016000Y-73660000D01*
X128397000Y-71651223D02*
X128397000Y-73279000D01*
X133022563Y-67025660D02*
X128397000Y-71651223D01*
X128016000Y-73660000D02*
X127381000Y-73660000D01*
X149516999Y-50710999D02*
X148717000Y-49911000D01*
X149817331Y-51011331D02*
X149516999Y-50710999D01*
X149817331Y-58843669D02*
X149817331Y-51011331D01*
X145542000Y-63119000D02*
X149817331Y-58843669D01*
X145923000Y-49911000D02*
X142748000Y-46736000D01*
X148717000Y-49911000D02*
X145923000Y-49911000D01*
X136001892Y-64046331D02*
X133022563Y-67025660D01*
X144614669Y-64046331D02*
X136001892Y-64046331D01*
X145542000Y-63119000D02*
X144614669Y-64046331D01*
X151920293Y-67025661D02*
X151118954Y-66224320D01*
X141789140Y-66224319D02*
X140987799Y-67025660D01*
X140987799Y-67025660D02*
X133022563Y-67025660D01*
X155194000Y-67926000D02*
X154293661Y-67025661D01*
X155194000Y-68326000D02*
X155194000Y-67926000D01*
X151118954Y-66224320D02*
X141789140Y-66224319D01*
X154293661Y-67025661D02*
X151920293Y-67025661D01*
D26*
X144932400Y-101854000D02*
X146989800Y-101854000D01*
X144932400Y-105156000D02*
X146989800Y-105156000D01*
D25*
X129286000Y-66040000D02*
X129819400Y-66040000D01*
X127584200Y-67741800D02*
X129286000Y-66040000D01*
X156235400Y-72745600D02*
X155499431Y-73481569D01*
X156235400Y-67797365D02*
X156235400Y-72745600D01*
X141478000Y-66040000D02*
X141621349Y-65896651D01*
X137439400Y-66040000D02*
X141478000Y-66040000D01*
X141621349Y-65896651D02*
X151254679Y-65896651D01*
X152056018Y-66697990D02*
X155136025Y-66697990D01*
X151254679Y-65896651D02*
X152056018Y-66697990D01*
X155136025Y-66697990D02*
X156235400Y-67797365D01*
M02*
