G04 #@! TF.GenerationSoftware,KiCad,Pcbnew,5.1.5+dfsg1-2~bpo10+1*
G04 #@! TF.CreationDate,2020-04-18T13:19:32-07:00*
G04 #@! TF.ProjectId,rbdrums,72626472-756d-4732-9e6b-696361645f70,rev?*
G04 #@! TF.SameCoordinates,Original*
G04 #@! TF.FileFunction,Soldermask,Top*
G04 #@! TF.FilePolarity,Negative*
%FSLAX46Y46*%
G04 Gerber Fmt 4.6, Leading zero omitted, Abs format (unit mm)*
G04 Created by KiCad (PCBNEW 5.1.5+dfsg1-2~bpo10+1) date 2020-04-18 13:19:32*
%MOMM*%
%LPD*%
G04 APERTURE LIST*
%ADD10C,0.100000*%
G04 APERTURE END LIST*
D10*
G36*
X130942585Y-108370802D02*
G01*
X131092410Y-108400604D01*
X131374674Y-108517521D01*
X131628705Y-108687259D01*
X131844741Y-108903295D01*
X132014479Y-109157326D01*
X132078294Y-109311391D01*
X132131396Y-109439591D01*
X132170586Y-109636609D01*
X132191000Y-109739240D01*
X132191000Y-110044760D01*
X132131396Y-110344410D01*
X132014479Y-110626674D01*
X131844741Y-110880705D01*
X131628705Y-111096741D01*
X131374674Y-111266479D01*
X131092410Y-111383396D01*
X130942585Y-111413198D01*
X130792761Y-111443000D01*
X130487239Y-111443000D01*
X130337415Y-111413198D01*
X130187590Y-111383396D01*
X129905326Y-111266479D01*
X129651295Y-111096741D01*
X129435259Y-110880705D01*
X129265521Y-110626674D01*
X129148604Y-110344410D01*
X129089000Y-110044760D01*
X129089000Y-109739240D01*
X129109415Y-109636609D01*
X129148604Y-109439591D01*
X129201706Y-109311391D01*
X129265521Y-109157326D01*
X129435259Y-108903295D01*
X129651295Y-108687259D01*
X129905326Y-108517521D01*
X130187590Y-108400604D01*
X130337415Y-108370802D01*
X130487239Y-108341000D01*
X130792761Y-108341000D01*
X130942585Y-108370802D01*
G37*
G36*
X154426256Y-107865298D02*
G01*
X154532579Y-107886447D01*
X154833042Y-108010903D01*
X155103451Y-108191585D01*
X155333415Y-108421549D01*
X155510957Y-108687259D01*
X155514098Y-108691960D01*
X155638553Y-108992422D01*
X155702000Y-109311389D01*
X155702000Y-109636611D01*
X155659702Y-109849256D01*
X155638553Y-109955579D01*
X155514097Y-110256042D01*
X155333415Y-110526451D01*
X155103451Y-110756415D01*
X154833042Y-110937097D01*
X154532579Y-111061553D01*
X154426256Y-111082702D01*
X154213611Y-111125000D01*
X153888389Y-111125000D01*
X153675744Y-111082702D01*
X153569421Y-111061553D01*
X153268958Y-110937097D01*
X152998549Y-110756415D01*
X152768585Y-110526451D01*
X152587903Y-110256042D01*
X152463447Y-109955579D01*
X152442298Y-109849256D01*
X152400000Y-109636611D01*
X152400000Y-109311389D01*
X152463447Y-108992422D01*
X152587902Y-108691960D01*
X152591043Y-108687259D01*
X152768585Y-108421549D01*
X152998549Y-108191585D01*
X153268958Y-108010903D01*
X153569421Y-107886447D01*
X153675744Y-107865298D01*
X153888389Y-107823000D01*
X154213611Y-107823000D01*
X154426256Y-107865298D01*
G37*
G36*
X138551256Y-107865298D02*
G01*
X138657579Y-107886447D01*
X138958042Y-108010903D01*
X139228451Y-108191585D01*
X139458415Y-108421549D01*
X139635957Y-108687259D01*
X139639098Y-108691960D01*
X139763553Y-108992422D01*
X139827000Y-109311389D01*
X139827000Y-109636611D01*
X139784702Y-109849256D01*
X139763553Y-109955579D01*
X139639097Y-110256042D01*
X139458415Y-110526451D01*
X139228451Y-110756415D01*
X138958042Y-110937097D01*
X138657579Y-111061553D01*
X138551256Y-111082702D01*
X138338611Y-111125000D01*
X138013389Y-111125000D01*
X137800744Y-111082702D01*
X137694421Y-111061553D01*
X137393958Y-110937097D01*
X137123549Y-110756415D01*
X136893585Y-110526451D01*
X136712903Y-110256042D01*
X136588447Y-109955579D01*
X136567298Y-109849256D01*
X136525000Y-109636611D01*
X136525000Y-109311389D01*
X136588447Y-108992422D01*
X136712902Y-108691960D01*
X136716043Y-108687259D01*
X136893585Y-108421549D01*
X137123549Y-108191585D01*
X137393958Y-108010903D01*
X137694421Y-107886447D01*
X137800744Y-107865298D01*
X138013389Y-107823000D01*
X138338611Y-107823000D01*
X138551256Y-107865298D01*
G37*
G36*
X136201000Y-107373000D02*
G01*
X133099000Y-107373000D01*
X133099000Y-106271000D01*
X136201000Y-106271000D01*
X136201000Y-107373000D01*
G37*
G36*
X154828859Y-104433860D02*
G01*
X154965532Y-104490472D01*
X155088535Y-104572660D01*
X155193140Y-104677265D01*
X155275328Y-104800268D01*
X155331940Y-104936941D01*
X155360800Y-105082033D01*
X155360800Y-105229967D01*
X155331940Y-105375059D01*
X155275328Y-105511732D01*
X155193140Y-105634735D01*
X155088535Y-105739340D01*
X154965532Y-105821528D01*
X154965531Y-105821529D01*
X154965530Y-105821529D01*
X154828859Y-105878140D01*
X154683768Y-105907000D01*
X154535832Y-105907000D01*
X154390741Y-105878140D01*
X154254070Y-105821529D01*
X154254069Y-105821529D01*
X154254068Y-105821528D01*
X154131065Y-105739340D01*
X154026460Y-105634735D01*
X153944272Y-105511732D01*
X153887660Y-105375059D01*
X153858800Y-105229967D01*
X153858800Y-105082033D01*
X153887660Y-104936941D01*
X153944272Y-104800268D01*
X154026460Y-104677265D01*
X154131065Y-104572660D01*
X154254068Y-104490472D01*
X154390741Y-104433860D01*
X154535832Y-104405000D01*
X154683768Y-104405000D01*
X154828859Y-104433860D01*
G37*
G36*
X147208859Y-104433860D02*
G01*
X147345532Y-104490472D01*
X147468535Y-104572660D01*
X147573140Y-104677265D01*
X147655328Y-104800268D01*
X147711940Y-104936941D01*
X147740800Y-105082033D01*
X147740800Y-105229967D01*
X147711940Y-105375059D01*
X147655328Y-105511732D01*
X147573140Y-105634735D01*
X147468535Y-105739340D01*
X147345532Y-105821528D01*
X147345531Y-105821529D01*
X147345530Y-105821529D01*
X147208859Y-105878140D01*
X147063768Y-105907000D01*
X146915832Y-105907000D01*
X146770741Y-105878140D01*
X146634070Y-105821529D01*
X146634069Y-105821529D01*
X146634068Y-105821528D01*
X146511065Y-105739340D01*
X146406460Y-105634735D01*
X146324272Y-105511732D01*
X146267660Y-105375059D01*
X146238800Y-105229967D01*
X146238800Y-105082033D01*
X146267660Y-104936941D01*
X146324272Y-104800268D01*
X146406460Y-104677265D01*
X146511065Y-104572660D01*
X146634068Y-104490472D01*
X146770741Y-104433860D01*
X146915832Y-104405000D01*
X147063768Y-104405000D01*
X147208859Y-104433860D01*
G37*
G36*
X145151459Y-104433860D02*
G01*
X145288132Y-104490472D01*
X145411135Y-104572660D01*
X145515740Y-104677265D01*
X145597928Y-104800268D01*
X145654540Y-104936941D01*
X145683400Y-105082033D01*
X145683400Y-105229967D01*
X145654540Y-105375059D01*
X145597928Y-105511732D01*
X145515740Y-105634735D01*
X145411135Y-105739340D01*
X145288132Y-105821528D01*
X145288131Y-105821529D01*
X145288130Y-105821529D01*
X145151459Y-105878140D01*
X145006368Y-105907000D01*
X144858432Y-105907000D01*
X144713341Y-105878140D01*
X144576670Y-105821529D01*
X144576669Y-105821529D01*
X144576668Y-105821528D01*
X144453665Y-105739340D01*
X144349060Y-105634735D01*
X144266872Y-105511732D01*
X144210260Y-105375059D01*
X144181400Y-105229967D01*
X144181400Y-105082033D01*
X144210260Y-104936941D01*
X144266872Y-104800268D01*
X144349060Y-104677265D01*
X144453665Y-104572660D01*
X144576668Y-104490472D01*
X144713341Y-104433860D01*
X144858432Y-104405000D01*
X145006368Y-104405000D01*
X145151459Y-104433860D01*
G37*
G36*
X137531459Y-104433860D02*
G01*
X137668132Y-104490472D01*
X137791135Y-104572660D01*
X137895740Y-104677265D01*
X137977928Y-104800268D01*
X138034540Y-104936941D01*
X138063400Y-105082033D01*
X138063400Y-105229967D01*
X138034540Y-105375059D01*
X137977928Y-105511732D01*
X137895740Y-105634735D01*
X137791135Y-105739340D01*
X137668132Y-105821528D01*
X137668131Y-105821529D01*
X137668130Y-105821529D01*
X137531459Y-105878140D01*
X137386368Y-105907000D01*
X137238432Y-105907000D01*
X137093341Y-105878140D01*
X136956670Y-105821529D01*
X136956669Y-105821529D01*
X136956668Y-105821528D01*
X136833665Y-105739340D01*
X136729060Y-105634735D01*
X136646872Y-105511732D01*
X136590260Y-105375059D01*
X136561400Y-105229967D01*
X136561400Y-105082033D01*
X136590260Y-104936941D01*
X136646872Y-104800268D01*
X136729060Y-104677265D01*
X136833665Y-104572660D01*
X136956668Y-104490472D01*
X137093341Y-104433860D01*
X137238432Y-104405000D01*
X137386368Y-104405000D01*
X137531459Y-104433860D01*
G37*
G36*
X136201000Y-104873000D02*
G01*
X133099000Y-104873000D01*
X133099000Y-103771000D01*
X136201000Y-103771000D01*
X136201000Y-104873000D01*
G37*
G36*
X136201000Y-102873000D02*
G01*
X133099000Y-102873000D01*
X133099000Y-101771000D01*
X136201000Y-101771000D01*
X136201000Y-102873000D01*
G37*
G36*
X147208859Y-101131860D02*
G01*
X147345532Y-101188472D01*
X147468535Y-101270660D01*
X147573140Y-101375265D01*
X147655328Y-101498268D01*
X147711940Y-101634941D01*
X147740800Y-101780033D01*
X147740800Y-101927967D01*
X147711940Y-102073059D01*
X147655328Y-102209732D01*
X147573140Y-102332735D01*
X147468535Y-102437340D01*
X147345532Y-102519528D01*
X147345531Y-102519529D01*
X147345530Y-102519529D01*
X147208859Y-102576140D01*
X147063768Y-102605000D01*
X146915832Y-102605000D01*
X146770741Y-102576140D01*
X146634070Y-102519529D01*
X146634069Y-102519529D01*
X146634068Y-102519528D01*
X146511065Y-102437340D01*
X146406460Y-102332735D01*
X146324272Y-102209732D01*
X146267660Y-102073059D01*
X146238800Y-101927967D01*
X146238800Y-101780033D01*
X146267660Y-101634941D01*
X146324272Y-101498268D01*
X146406460Y-101375265D01*
X146511065Y-101270660D01*
X146634068Y-101188472D01*
X146770741Y-101131860D01*
X146915832Y-101103000D01*
X147063768Y-101103000D01*
X147208859Y-101131860D01*
G37*
G36*
X154828859Y-101131860D02*
G01*
X154965532Y-101188472D01*
X155088535Y-101270660D01*
X155193140Y-101375265D01*
X155275328Y-101498268D01*
X155331940Y-101634941D01*
X155360800Y-101780033D01*
X155360800Y-101927967D01*
X155331940Y-102073059D01*
X155275328Y-102209732D01*
X155193140Y-102332735D01*
X155088535Y-102437340D01*
X154965532Y-102519528D01*
X154965531Y-102519529D01*
X154965530Y-102519529D01*
X154828859Y-102576140D01*
X154683768Y-102605000D01*
X154535832Y-102605000D01*
X154390741Y-102576140D01*
X154254070Y-102519529D01*
X154254069Y-102519529D01*
X154254068Y-102519528D01*
X154131065Y-102437340D01*
X154026460Y-102332735D01*
X153944272Y-102209732D01*
X153887660Y-102073059D01*
X153858800Y-101927967D01*
X153858800Y-101780033D01*
X153887660Y-101634941D01*
X153944272Y-101498268D01*
X154026460Y-101375265D01*
X154131065Y-101270660D01*
X154254068Y-101188472D01*
X154390741Y-101131860D01*
X154535832Y-101103000D01*
X154683768Y-101103000D01*
X154828859Y-101131860D01*
G37*
G36*
X137531459Y-101131860D02*
G01*
X137668132Y-101188472D01*
X137791135Y-101270660D01*
X137895740Y-101375265D01*
X137977928Y-101498268D01*
X138034540Y-101634941D01*
X138063400Y-101780033D01*
X138063400Y-101927967D01*
X138034540Y-102073059D01*
X137977928Y-102209732D01*
X137895740Y-102332735D01*
X137791135Y-102437340D01*
X137668132Y-102519528D01*
X137668131Y-102519529D01*
X137668130Y-102519529D01*
X137531459Y-102576140D01*
X137386368Y-102605000D01*
X137238432Y-102605000D01*
X137093341Y-102576140D01*
X136956670Y-102519529D01*
X136956669Y-102519529D01*
X136956668Y-102519528D01*
X136833665Y-102437340D01*
X136729060Y-102332735D01*
X136646872Y-102209732D01*
X136590260Y-102073059D01*
X136561400Y-101927967D01*
X136561400Y-101780033D01*
X136590260Y-101634941D01*
X136646872Y-101498268D01*
X136729060Y-101375265D01*
X136833665Y-101270660D01*
X136956668Y-101188472D01*
X137093341Y-101131860D01*
X137238432Y-101103000D01*
X137386368Y-101103000D01*
X137531459Y-101131860D01*
G37*
G36*
X145151459Y-101131860D02*
G01*
X145288132Y-101188472D01*
X145411135Y-101270660D01*
X145515740Y-101375265D01*
X145597928Y-101498268D01*
X145654540Y-101634941D01*
X145683400Y-101780033D01*
X145683400Y-101927967D01*
X145654540Y-102073059D01*
X145597928Y-102209732D01*
X145515740Y-102332735D01*
X145411135Y-102437340D01*
X145288132Y-102519528D01*
X145288131Y-102519529D01*
X145288130Y-102519529D01*
X145151459Y-102576140D01*
X145006368Y-102605000D01*
X144858432Y-102605000D01*
X144713341Y-102576140D01*
X144576670Y-102519529D01*
X144576669Y-102519529D01*
X144576668Y-102519528D01*
X144453665Y-102437340D01*
X144349060Y-102332735D01*
X144266872Y-102209732D01*
X144210260Y-102073059D01*
X144181400Y-101927967D01*
X144181400Y-101780033D01*
X144210260Y-101634941D01*
X144266872Y-101498268D01*
X144349060Y-101375265D01*
X144453665Y-101270660D01*
X144576668Y-101188472D01*
X144713341Y-101131860D01*
X144858432Y-101103000D01*
X145006368Y-101103000D01*
X145151459Y-101131860D01*
G37*
G36*
X136201000Y-100373000D02*
G01*
X133099000Y-100373000D01*
X133099000Y-99271000D01*
X136201000Y-99271000D01*
X136201000Y-100373000D01*
G37*
G36*
X138551256Y-95292298D02*
G01*
X138657579Y-95313447D01*
X138958042Y-95437903D01*
X139228451Y-95618585D01*
X139458415Y-95848549D01*
X139639097Y-96118958D01*
X139763553Y-96419421D01*
X139827000Y-96738391D01*
X139827000Y-97063609D01*
X139763553Y-97382579D01*
X139639097Y-97683042D01*
X139458415Y-97953451D01*
X139228451Y-98183415D01*
X138958042Y-98364097D01*
X138657579Y-98488553D01*
X138551256Y-98509702D01*
X138338611Y-98552000D01*
X138013389Y-98552000D01*
X137800744Y-98509702D01*
X137694421Y-98488553D01*
X137393958Y-98364097D01*
X137123549Y-98183415D01*
X136893585Y-97953451D01*
X136712903Y-97683042D01*
X136588447Y-97382579D01*
X136525000Y-97063609D01*
X136525000Y-96738391D01*
X136588447Y-96419421D01*
X136712903Y-96118958D01*
X136893585Y-95848549D01*
X137123549Y-95618585D01*
X137393958Y-95437903D01*
X137694421Y-95313447D01*
X137800744Y-95292298D01*
X138013389Y-95250000D01*
X138338611Y-95250000D01*
X138551256Y-95292298D01*
G37*
G36*
X130942585Y-95230802D02*
G01*
X131092410Y-95260604D01*
X131374674Y-95377521D01*
X131628705Y-95547259D01*
X131844741Y-95763295D01*
X132014479Y-96017326D01*
X132131396Y-96299590D01*
X132191000Y-96599240D01*
X132191000Y-96904760D01*
X132131396Y-97204410D01*
X132014479Y-97486674D01*
X131844741Y-97740705D01*
X131628705Y-97956741D01*
X131374674Y-98126479D01*
X131092410Y-98243396D01*
X130942585Y-98273198D01*
X130792761Y-98303000D01*
X130487239Y-98303000D01*
X130337415Y-98273198D01*
X130187590Y-98243396D01*
X129905326Y-98126479D01*
X129651295Y-97956741D01*
X129435259Y-97740705D01*
X129265521Y-97486674D01*
X129148604Y-97204410D01*
X129089000Y-96904760D01*
X129089000Y-96599240D01*
X129148604Y-96299590D01*
X129265521Y-96017326D01*
X129435259Y-95763295D01*
X129651295Y-95547259D01*
X129905326Y-95377521D01*
X130187590Y-95260604D01*
X130337415Y-95230802D01*
X130487239Y-95201000D01*
X130792761Y-95201000D01*
X130942585Y-95230802D01*
G37*
G36*
X145161617Y-90906420D02*
G01*
X145252403Y-90933960D01*
X145284335Y-90943646D01*
X145397424Y-91004094D01*
X145496554Y-91085447D01*
X145577906Y-91184575D01*
X145638354Y-91297664D01*
X145648040Y-91329596D01*
X145675580Y-91420382D01*
X145685000Y-91516027D01*
X145685000Y-92379973D01*
X145675580Y-92475618D01*
X145648040Y-92566404D01*
X145638354Y-92598336D01*
X145577906Y-92711425D01*
X145496554Y-92810554D01*
X145397425Y-92891906D01*
X145284336Y-92952354D01*
X145252404Y-92962040D01*
X145161618Y-92989580D01*
X145034000Y-93002149D01*
X144906383Y-92989580D01*
X144815597Y-92962040D01*
X144783665Y-92952354D01*
X144670576Y-92891906D01*
X144571447Y-92810554D01*
X144490095Y-92711425D01*
X144429647Y-92598336D01*
X144425282Y-92583946D01*
X144392420Y-92475618D01*
X144383000Y-92379973D01*
X144383000Y-91516028D01*
X144392420Y-91420383D01*
X144429645Y-91297669D01*
X144429646Y-91297665D01*
X144490094Y-91184576D01*
X144571447Y-91085446D01*
X144670575Y-91004094D01*
X144783664Y-90943646D01*
X144815596Y-90933960D01*
X144906382Y-90906420D01*
X145034000Y-90893851D01*
X145161617Y-90906420D01*
G37*
G36*
X132461617Y-90906420D02*
G01*
X132552403Y-90933960D01*
X132584335Y-90943646D01*
X132697424Y-91004094D01*
X132796554Y-91085447D01*
X132877906Y-91184575D01*
X132938354Y-91297664D01*
X132948040Y-91329596D01*
X132975580Y-91420382D01*
X132985000Y-91516027D01*
X132985000Y-92379973D01*
X132975580Y-92475618D01*
X132948040Y-92566404D01*
X132938354Y-92598336D01*
X132877906Y-92711425D01*
X132796554Y-92810554D01*
X132697425Y-92891906D01*
X132584336Y-92952354D01*
X132552404Y-92962040D01*
X132461618Y-92989580D01*
X132334000Y-93002149D01*
X132206383Y-92989580D01*
X132115597Y-92962040D01*
X132083665Y-92952354D01*
X131970576Y-92891906D01*
X131871447Y-92810554D01*
X131790095Y-92711425D01*
X131729647Y-92598336D01*
X131725282Y-92583946D01*
X131692420Y-92475618D01*
X131683000Y-92379973D01*
X131683000Y-91516028D01*
X131692420Y-91420383D01*
X131729645Y-91297669D01*
X131729646Y-91297665D01*
X131790094Y-91184576D01*
X131871447Y-91085446D01*
X131970575Y-91004094D01*
X132083664Y-90943646D01*
X132115596Y-90933960D01*
X132206382Y-90906420D01*
X132334000Y-90893851D01*
X132461617Y-90906420D01*
G37*
G36*
X135001617Y-90906420D02*
G01*
X135092403Y-90933960D01*
X135124335Y-90943646D01*
X135237424Y-91004094D01*
X135336554Y-91085447D01*
X135417906Y-91184575D01*
X135478354Y-91297664D01*
X135488040Y-91329596D01*
X135515580Y-91420382D01*
X135525000Y-91516027D01*
X135525000Y-92379973D01*
X135515580Y-92475618D01*
X135488040Y-92566404D01*
X135478354Y-92598336D01*
X135417906Y-92711425D01*
X135336554Y-92810554D01*
X135237425Y-92891906D01*
X135124336Y-92952354D01*
X135092404Y-92962040D01*
X135001618Y-92989580D01*
X134874000Y-93002149D01*
X134746383Y-92989580D01*
X134655597Y-92962040D01*
X134623665Y-92952354D01*
X134510576Y-92891906D01*
X134411447Y-92810554D01*
X134330095Y-92711425D01*
X134269647Y-92598336D01*
X134265282Y-92583946D01*
X134232420Y-92475618D01*
X134223000Y-92379973D01*
X134223000Y-91516028D01*
X134232420Y-91420383D01*
X134269645Y-91297669D01*
X134269646Y-91297665D01*
X134330094Y-91184576D01*
X134411447Y-91085446D01*
X134510575Y-91004094D01*
X134623664Y-90943646D01*
X134655596Y-90933960D01*
X134746382Y-90906420D01*
X134874000Y-90893851D01*
X135001617Y-90906420D01*
G37*
G36*
X137541617Y-90906420D02*
G01*
X137632403Y-90933960D01*
X137664335Y-90943646D01*
X137777424Y-91004094D01*
X137876554Y-91085447D01*
X137957906Y-91184575D01*
X138018354Y-91297664D01*
X138028040Y-91329596D01*
X138055580Y-91420382D01*
X138065000Y-91516027D01*
X138065000Y-92379973D01*
X138055580Y-92475618D01*
X138028040Y-92566404D01*
X138018354Y-92598336D01*
X137957906Y-92711425D01*
X137876554Y-92810554D01*
X137777425Y-92891906D01*
X137664336Y-92952354D01*
X137632404Y-92962040D01*
X137541618Y-92989580D01*
X137414000Y-93002149D01*
X137286383Y-92989580D01*
X137195597Y-92962040D01*
X137163665Y-92952354D01*
X137050576Y-92891906D01*
X136951447Y-92810554D01*
X136870095Y-92711425D01*
X136809647Y-92598336D01*
X136805282Y-92583946D01*
X136772420Y-92475618D01*
X136763000Y-92379973D01*
X136763000Y-91516028D01*
X136772420Y-91420383D01*
X136809645Y-91297669D01*
X136809646Y-91297665D01*
X136870094Y-91184576D01*
X136951447Y-91085446D01*
X137050575Y-91004094D01*
X137163664Y-90943646D01*
X137195596Y-90933960D01*
X137286382Y-90906420D01*
X137414000Y-90893851D01*
X137541617Y-90906420D01*
G37*
G36*
X140081617Y-90906420D02*
G01*
X140172403Y-90933960D01*
X140204335Y-90943646D01*
X140317424Y-91004094D01*
X140416554Y-91085447D01*
X140497906Y-91184575D01*
X140558354Y-91297664D01*
X140568040Y-91329596D01*
X140595580Y-91420382D01*
X140605000Y-91516027D01*
X140605000Y-92379973D01*
X140595580Y-92475618D01*
X140568040Y-92566404D01*
X140558354Y-92598336D01*
X140497906Y-92711425D01*
X140416554Y-92810554D01*
X140317425Y-92891906D01*
X140204336Y-92952354D01*
X140172404Y-92962040D01*
X140081618Y-92989580D01*
X139954000Y-93002149D01*
X139826383Y-92989580D01*
X139735597Y-92962040D01*
X139703665Y-92952354D01*
X139590576Y-92891906D01*
X139491447Y-92810554D01*
X139410095Y-92711425D01*
X139349647Y-92598336D01*
X139345282Y-92583946D01*
X139312420Y-92475618D01*
X139303000Y-92379973D01*
X139303000Y-91516028D01*
X139312420Y-91420383D01*
X139349645Y-91297669D01*
X139349646Y-91297665D01*
X139410094Y-91184576D01*
X139491447Y-91085446D01*
X139590575Y-91004094D01*
X139703664Y-90943646D01*
X139735596Y-90933960D01*
X139826382Y-90906420D01*
X139954000Y-90893851D01*
X140081617Y-90906420D01*
G37*
G36*
X155321617Y-90906420D02*
G01*
X155412403Y-90933960D01*
X155444335Y-90943646D01*
X155557424Y-91004094D01*
X155656554Y-91085447D01*
X155737906Y-91184575D01*
X155798354Y-91297664D01*
X155808040Y-91329596D01*
X155835580Y-91420382D01*
X155845000Y-91516027D01*
X155845000Y-92379973D01*
X155835580Y-92475618D01*
X155808040Y-92566404D01*
X155798354Y-92598336D01*
X155737906Y-92711425D01*
X155656554Y-92810554D01*
X155557425Y-92891906D01*
X155444336Y-92952354D01*
X155412404Y-92962040D01*
X155321618Y-92989580D01*
X155194000Y-93002149D01*
X155066383Y-92989580D01*
X154975597Y-92962040D01*
X154943665Y-92952354D01*
X154830576Y-92891906D01*
X154731447Y-92810554D01*
X154650095Y-92711425D01*
X154589647Y-92598336D01*
X154585282Y-92583946D01*
X154552420Y-92475618D01*
X154543000Y-92379973D01*
X154543000Y-91516028D01*
X154552420Y-91420383D01*
X154589645Y-91297669D01*
X154589646Y-91297665D01*
X154650094Y-91184576D01*
X154731447Y-91085446D01*
X154830575Y-91004094D01*
X154943664Y-90943646D01*
X154975596Y-90933960D01*
X155066382Y-90906420D01*
X155194000Y-90893851D01*
X155321617Y-90906420D01*
G37*
G36*
X152781617Y-90906420D02*
G01*
X152872403Y-90933960D01*
X152904335Y-90943646D01*
X153017424Y-91004094D01*
X153116554Y-91085447D01*
X153197906Y-91184575D01*
X153258354Y-91297664D01*
X153268040Y-91329596D01*
X153295580Y-91420382D01*
X153305000Y-91516027D01*
X153305000Y-92379973D01*
X153295580Y-92475618D01*
X153268040Y-92566404D01*
X153258354Y-92598336D01*
X153197906Y-92711425D01*
X153116554Y-92810554D01*
X153017425Y-92891906D01*
X152904336Y-92952354D01*
X152872404Y-92962040D01*
X152781618Y-92989580D01*
X152654000Y-93002149D01*
X152526383Y-92989580D01*
X152435597Y-92962040D01*
X152403665Y-92952354D01*
X152290576Y-92891906D01*
X152191447Y-92810554D01*
X152110095Y-92711425D01*
X152049647Y-92598336D01*
X152045282Y-92583946D01*
X152012420Y-92475618D01*
X152003000Y-92379973D01*
X152003000Y-91516028D01*
X152012420Y-91420383D01*
X152049645Y-91297669D01*
X152049646Y-91297665D01*
X152110094Y-91184576D01*
X152191447Y-91085446D01*
X152290575Y-91004094D01*
X152403664Y-90943646D01*
X152435596Y-90933960D01*
X152526382Y-90906420D01*
X152654000Y-90893851D01*
X152781617Y-90906420D01*
G37*
G36*
X150241617Y-90906420D02*
G01*
X150332403Y-90933960D01*
X150364335Y-90943646D01*
X150477424Y-91004094D01*
X150576554Y-91085447D01*
X150657906Y-91184575D01*
X150718354Y-91297664D01*
X150728040Y-91329596D01*
X150755580Y-91420382D01*
X150765000Y-91516027D01*
X150765000Y-92379973D01*
X150755580Y-92475618D01*
X150728040Y-92566404D01*
X150718354Y-92598336D01*
X150657906Y-92711425D01*
X150576554Y-92810554D01*
X150477425Y-92891906D01*
X150364336Y-92952354D01*
X150332404Y-92962040D01*
X150241618Y-92989580D01*
X150114000Y-93002149D01*
X149986383Y-92989580D01*
X149895597Y-92962040D01*
X149863665Y-92952354D01*
X149750576Y-92891906D01*
X149651447Y-92810554D01*
X149570095Y-92711425D01*
X149509647Y-92598336D01*
X149505282Y-92583946D01*
X149472420Y-92475618D01*
X149463000Y-92379973D01*
X149463000Y-91516028D01*
X149472420Y-91420383D01*
X149509645Y-91297669D01*
X149509646Y-91297665D01*
X149570094Y-91184576D01*
X149651447Y-91085446D01*
X149750575Y-91004094D01*
X149863664Y-90943646D01*
X149895596Y-90933960D01*
X149986382Y-90906420D01*
X150114000Y-90893851D01*
X150241617Y-90906420D01*
G37*
G36*
X147701617Y-90906420D02*
G01*
X147792403Y-90933960D01*
X147824335Y-90943646D01*
X147937424Y-91004094D01*
X148036554Y-91085447D01*
X148117906Y-91184575D01*
X148178354Y-91297664D01*
X148188040Y-91329596D01*
X148215580Y-91420382D01*
X148225000Y-91516027D01*
X148225000Y-92379973D01*
X148215580Y-92475618D01*
X148188040Y-92566404D01*
X148178354Y-92598336D01*
X148117906Y-92711425D01*
X148036554Y-92810554D01*
X147937425Y-92891906D01*
X147824336Y-92952354D01*
X147792404Y-92962040D01*
X147701618Y-92989580D01*
X147574000Y-93002149D01*
X147446383Y-92989580D01*
X147355597Y-92962040D01*
X147323665Y-92952354D01*
X147210576Y-92891906D01*
X147111447Y-92810554D01*
X147030095Y-92711425D01*
X146969647Y-92598336D01*
X146965282Y-92583946D01*
X146932420Y-92475618D01*
X146923000Y-92379973D01*
X146923000Y-91516028D01*
X146932420Y-91420383D01*
X146969645Y-91297669D01*
X146969646Y-91297665D01*
X147030094Y-91184576D01*
X147111447Y-91085446D01*
X147210575Y-91004094D01*
X147323664Y-90943646D01*
X147355596Y-90933960D01*
X147446382Y-90906420D01*
X147574000Y-90893851D01*
X147701617Y-90906420D01*
G37*
G36*
X142621617Y-90906420D02*
G01*
X142712403Y-90933960D01*
X142744335Y-90943646D01*
X142857424Y-91004094D01*
X142956554Y-91085447D01*
X143037906Y-91184575D01*
X143098354Y-91297664D01*
X143108040Y-91329596D01*
X143135580Y-91420382D01*
X143145000Y-91516027D01*
X143145000Y-92379973D01*
X143135580Y-92475618D01*
X143108040Y-92566404D01*
X143098354Y-92598336D01*
X143037906Y-92711425D01*
X142956554Y-92810554D01*
X142857425Y-92891906D01*
X142744336Y-92952354D01*
X142712404Y-92962040D01*
X142621618Y-92989580D01*
X142494000Y-93002149D01*
X142366383Y-92989580D01*
X142275597Y-92962040D01*
X142243665Y-92952354D01*
X142130576Y-92891906D01*
X142031447Y-92810554D01*
X141950095Y-92711425D01*
X141889647Y-92598336D01*
X141885282Y-92583946D01*
X141852420Y-92475618D01*
X141843000Y-92379973D01*
X141843000Y-91516028D01*
X141852420Y-91420383D01*
X141889645Y-91297669D01*
X141889646Y-91297665D01*
X141950094Y-91184576D01*
X142031447Y-91085446D01*
X142130575Y-91004094D01*
X142243664Y-90943646D01*
X142275596Y-90933960D01*
X142366382Y-90906420D01*
X142494000Y-90893851D01*
X142621617Y-90906420D01*
G37*
G36*
X129921617Y-90906420D02*
G01*
X130012403Y-90933960D01*
X130044335Y-90943646D01*
X130157424Y-91004094D01*
X130256554Y-91085447D01*
X130337906Y-91184575D01*
X130398354Y-91297664D01*
X130408040Y-91329596D01*
X130435580Y-91420382D01*
X130445000Y-91516027D01*
X130445000Y-92379973D01*
X130435580Y-92475618D01*
X130408040Y-92566404D01*
X130398354Y-92598336D01*
X130337906Y-92711425D01*
X130256554Y-92810554D01*
X130157425Y-92891906D01*
X130044336Y-92952354D01*
X130012404Y-92962040D01*
X129921618Y-92989580D01*
X129794000Y-93002149D01*
X129666383Y-92989580D01*
X129575597Y-92962040D01*
X129543665Y-92952354D01*
X129430576Y-92891906D01*
X129331447Y-92810554D01*
X129250095Y-92711425D01*
X129189647Y-92598336D01*
X129185282Y-92583946D01*
X129152420Y-92475618D01*
X129143000Y-92379973D01*
X129143000Y-91516028D01*
X129152420Y-91420383D01*
X129189645Y-91297669D01*
X129189646Y-91297665D01*
X129250094Y-91184576D01*
X129331447Y-91085446D01*
X129430575Y-91004094D01*
X129543664Y-90943646D01*
X129575596Y-90933960D01*
X129666382Y-90906420D01*
X129794000Y-90893851D01*
X129921617Y-90906420D01*
G37*
G36*
X122520639Y-88175937D02*
G01*
X122520641Y-88175938D01*
X122520642Y-88175938D01*
X122657679Y-88232700D01*
X122657682Y-88232702D01*
X122781007Y-88315105D01*
X122885895Y-88419993D01*
X122968298Y-88543318D01*
X122968300Y-88543321D01*
X123025062Y-88680358D01*
X123054000Y-88825836D01*
X123054000Y-88974164D01*
X123025062Y-89119642D01*
X122968300Y-89256679D01*
X122968298Y-89256682D01*
X122885895Y-89380007D01*
X122781007Y-89484895D01*
X122657682Y-89567298D01*
X122657679Y-89567300D01*
X122520642Y-89624062D01*
X122520641Y-89624062D01*
X122520639Y-89624063D01*
X122375165Y-89653000D01*
X122226835Y-89653000D01*
X122081361Y-89624063D01*
X122081359Y-89624062D01*
X122081358Y-89624062D01*
X121944321Y-89567300D01*
X121944318Y-89567298D01*
X121820993Y-89484895D01*
X121716105Y-89380007D01*
X121633702Y-89256682D01*
X121633700Y-89256679D01*
X121576938Y-89119642D01*
X121548000Y-88974164D01*
X121548000Y-88825836D01*
X121576938Y-88680358D01*
X121633700Y-88543321D01*
X121633702Y-88543318D01*
X121716105Y-88419993D01*
X121820993Y-88315105D01*
X121944318Y-88232702D01*
X121944321Y-88232700D01*
X122081358Y-88175938D01*
X122081359Y-88175938D01*
X122081361Y-88175937D01*
X122226835Y-88147000D01*
X122375165Y-88147000D01*
X122520639Y-88175937D01*
G37*
G36*
X125060639Y-88175937D02*
G01*
X125060641Y-88175938D01*
X125060642Y-88175938D01*
X125197679Y-88232700D01*
X125197682Y-88232702D01*
X125321007Y-88315105D01*
X125425895Y-88419993D01*
X125508298Y-88543318D01*
X125508300Y-88543321D01*
X125565062Y-88680358D01*
X125594000Y-88825836D01*
X125594000Y-88974164D01*
X125565062Y-89119642D01*
X125508300Y-89256679D01*
X125508298Y-89256682D01*
X125425895Y-89380007D01*
X125321007Y-89484895D01*
X125197682Y-89567298D01*
X125197679Y-89567300D01*
X125060642Y-89624062D01*
X125060641Y-89624062D01*
X125060639Y-89624063D01*
X124915165Y-89653000D01*
X124766835Y-89653000D01*
X124621361Y-89624063D01*
X124621359Y-89624062D01*
X124621358Y-89624062D01*
X124484321Y-89567300D01*
X124484318Y-89567298D01*
X124360993Y-89484895D01*
X124256105Y-89380007D01*
X124173702Y-89256682D01*
X124173700Y-89256679D01*
X124116938Y-89119642D01*
X124088000Y-88974164D01*
X124088000Y-88825836D01*
X124116938Y-88680358D01*
X124173700Y-88543321D01*
X124173702Y-88543318D01*
X124256105Y-88419993D01*
X124360993Y-88315105D01*
X124484318Y-88232702D01*
X124484321Y-88232700D01*
X124621358Y-88175938D01*
X124621359Y-88175938D01*
X124621361Y-88175937D01*
X124766835Y-88147000D01*
X124915165Y-88147000D01*
X125060639Y-88175937D01*
G37*
G36*
X127600639Y-88175937D02*
G01*
X127600641Y-88175938D01*
X127600642Y-88175938D01*
X127737679Y-88232700D01*
X127737682Y-88232702D01*
X127861007Y-88315105D01*
X127965895Y-88419993D01*
X128048298Y-88543318D01*
X128048300Y-88543321D01*
X128105062Y-88680358D01*
X128134000Y-88825836D01*
X128134000Y-88974164D01*
X128105062Y-89119642D01*
X128048300Y-89256679D01*
X128048298Y-89256682D01*
X127965895Y-89380007D01*
X127861007Y-89484895D01*
X127737682Y-89567298D01*
X127737679Y-89567300D01*
X127600642Y-89624062D01*
X127600641Y-89624062D01*
X127600639Y-89624063D01*
X127455165Y-89653000D01*
X127306835Y-89653000D01*
X127161361Y-89624063D01*
X127161359Y-89624062D01*
X127161358Y-89624062D01*
X127024321Y-89567300D01*
X127024318Y-89567298D01*
X126900993Y-89484895D01*
X126796105Y-89380007D01*
X126713702Y-89256682D01*
X126713700Y-89256679D01*
X126656938Y-89119642D01*
X126628000Y-88974164D01*
X126628000Y-88825836D01*
X126656938Y-88680358D01*
X126713700Y-88543321D01*
X126713702Y-88543318D01*
X126796105Y-88419993D01*
X126900993Y-88315105D01*
X127024318Y-88232702D01*
X127024321Y-88232700D01*
X127161358Y-88175938D01*
X127161359Y-88175938D01*
X127161361Y-88175937D01*
X127306835Y-88147000D01*
X127455165Y-88147000D01*
X127600639Y-88175937D01*
G37*
G36*
X130140639Y-88175937D02*
G01*
X130140641Y-88175938D01*
X130140642Y-88175938D01*
X130277679Y-88232700D01*
X130277682Y-88232702D01*
X130401007Y-88315105D01*
X130505895Y-88419993D01*
X130588298Y-88543318D01*
X130588300Y-88543321D01*
X130645062Y-88680358D01*
X130674000Y-88825836D01*
X130674000Y-88974164D01*
X130645062Y-89119642D01*
X130588300Y-89256679D01*
X130588298Y-89256682D01*
X130505895Y-89380007D01*
X130401007Y-89484895D01*
X130277682Y-89567298D01*
X130277679Y-89567300D01*
X130140642Y-89624062D01*
X130140641Y-89624062D01*
X130140639Y-89624063D01*
X129995165Y-89653000D01*
X129846835Y-89653000D01*
X129701361Y-89624063D01*
X129701359Y-89624062D01*
X129701358Y-89624062D01*
X129564321Y-89567300D01*
X129564318Y-89567298D01*
X129440993Y-89484895D01*
X129336105Y-89380007D01*
X129253702Y-89256682D01*
X129253700Y-89256679D01*
X129196938Y-89119642D01*
X129168000Y-88974164D01*
X129168000Y-88825836D01*
X129196938Y-88680358D01*
X129253700Y-88543321D01*
X129253702Y-88543318D01*
X129336105Y-88419993D01*
X129440993Y-88315105D01*
X129564318Y-88232702D01*
X129564321Y-88232700D01*
X129701358Y-88175938D01*
X129701359Y-88175938D01*
X129701361Y-88175937D01*
X129846835Y-88147000D01*
X129995165Y-88147000D01*
X130140639Y-88175937D01*
G37*
G36*
X132680639Y-88175937D02*
G01*
X132680641Y-88175938D01*
X132680642Y-88175938D01*
X132817679Y-88232700D01*
X132817682Y-88232702D01*
X132941007Y-88315105D01*
X133045895Y-88419993D01*
X133128298Y-88543318D01*
X133128300Y-88543321D01*
X133185062Y-88680358D01*
X133214000Y-88825836D01*
X133214000Y-88974164D01*
X133185062Y-89119642D01*
X133128300Y-89256679D01*
X133128298Y-89256682D01*
X133045895Y-89380007D01*
X132941007Y-89484895D01*
X132817682Y-89567298D01*
X132817679Y-89567300D01*
X132680642Y-89624062D01*
X132680641Y-89624062D01*
X132680639Y-89624063D01*
X132535165Y-89653000D01*
X132386835Y-89653000D01*
X132241361Y-89624063D01*
X132241359Y-89624062D01*
X132241358Y-89624062D01*
X132104321Y-89567300D01*
X132104318Y-89567298D01*
X131980993Y-89484895D01*
X131876105Y-89380007D01*
X131793702Y-89256682D01*
X131793700Y-89256679D01*
X131736938Y-89119642D01*
X131708000Y-88974164D01*
X131708000Y-88825836D01*
X131736938Y-88680358D01*
X131793700Y-88543321D01*
X131793702Y-88543318D01*
X131876105Y-88419993D01*
X131980993Y-88315105D01*
X132104318Y-88232702D01*
X132104321Y-88232700D01*
X132241358Y-88175938D01*
X132241359Y-88175938D01*
X132241361Y-88175937D01*
X132386835Y-88147000D01*
X132535165Y-88147000D01*
X132680639Y-88175937D01*
G37*
G36*
X135220639Y-88175937D02*
G01*
X135220641Y-88175938D01*
X135220642Y-88175938D01*
X135357679Y-88232700D01*
X135357682Y-88232702D01*
X135481007Y-88315105D01*
X135585895Y-88419993D01*
X135668298Y-88543318D01*
X135668300Y-88543321D01*
X135725062Y-88680358D01*
X135754000Y-88825836D01*
X135754000Y-88974164D01*
X135725062Y-89119642D01*
X135668300Y-89256679D01*
X135668298Y-89256682D01*
X135585895Y-89380007D01*
X135481007Y-89484895D01*
X135357682Y-89567298D01*
X135357679Y-89567300D01*
X135220642Y-89624062D01*
X135220641Y-89624062D01*
X135220639Y-89624063D01*
X135075165Y-89653000D01*
X134926835Y-89653000D01*
X134781361Y-89624063D01*
X134781359Y-89624062D01*
X134781358Y-89624062D01*
X134644321Y-89567300D01*
X134644318Y-89567298D01*
X134520993Y-89484895D01*
X134416105Y-89380007D01*
X134333702Y-89256682D01*
X134333700Y-89256679D01*
X134276938Y-89119642D01*
X134248000Y-88974164D01*
X134248000Y-88825836D01*
X134276938Y-88680358D01*
X134333700Y-88543321D01*
X134333702Y-88543318D01*
X134416105Y-88419993D01*
X134520993Y-88315105D01*
X134644318Y-88232702D01*
X134644321Y-88232700D01*
X134781358Y-88175938D01*
X134781359Y-88175938D01*
X134781361Y-88175937D01*
X134926835Y-88147000D01*
X135075165Y-88147000D01*
X135220639Y-88175937D01*
G37*
G36*
X137760639Y-88175937D02*
G01*
X137760641Y-88175938D01*
X137760642Y-88175938D01*
X137897679Y-88232700D01*
X137897682Y-88232702D01*
X138021007Y-88315105D01*
X138125895Y-88419993D01*
X138208298Y-88543318D01*
X138208300Y-88543321D01*
X138265062Y-88680358D01*
X138294000Y-88825836D01*
X138294000Y-88974164D01*
X138265062Y-89119642D01*
X138208300Y-89256679D01*
X138208298Y-89256682D01*
X138125895Y-89380007D01*
X138021007Y-89484895D01*
X137897682Y-89567298D01*
X137897679Y-89567300D01*
X137760642Y-89624062D01*
X137760641Y-89624062D01*
X137760639Y-89624063D01*
X137615165Y-89653000D01*
X137466835Y-89653000D01*
X137321361Y-89624063D01*
X137321359Y-89624062D01*
X137321358Y-89624062D01*
X137184321Y-89567300D01*
X137184318Y-89567298D01*
X137060993Y-89484895D01*
X136956105Y-89380007D01*
X136873702Y-89256682D01*
X136873700Y-89256679D01*
X136816938Y-89119642D01*
X136788000Y-88974164D01*
X136788000Y-88825836D01*
X136816938Y-88680358D01*
X136873700Y-88543321D01*
X136873702Y-88543318D01*
X136956105Y-88419993D01*
X137060993Y-88315105D01*
X137184318Y-88232702D01*
X137184321Y-88232700D01*
X137321358Y-88175938D01*
X137321359Y-88175938D01*
X137321361Y-88175937D01*
X137466835Y-88147000D01*
X137615165Y-88147000D01*
X137760639Y-88175937D01*
G37*
G36*
X142840639Y-88175937D02*
G01*
X142840641Y-88175938D01*
X142840642Y-88175938D01*
X142977679Y-88232700D01*
X142977682Y-88232702D01*
X143101007Y-88315105D01*
X143205895Y-88419993D01*
X143288298Y-88543318D01*
X143288300Y-88543321D01*
X143345062Y-88680358D01*
X143374000Y-88825836D01*
X143374000Y-88974164D01*
X143345062Y-89119642D01*
X143288300Y-89256679D01*
X143288298Y-89256682D01*
X143205895Y-89380007D01*
X143101007Y-89484895D01*
X142977682Y-89567298D01*
X142977679Y-89567300D01*
X142840642Y-89624062D01*
X142840641Y-89624062D01*
X142840639Y-89624063D01*
X142695165Y-89653000D01*
X142546835Y-89653000D01*
X142401361Y-89624063D01*
X142401359Y-89624062D01*
X142401358Y-89624062D01*
X142264321Y-89567300D01*
X142264318Y-89567298D01*
X142140993Y-89484895D01*
X142036105Y-89380007D01*
X141953702Y-89256682D01*
X141953700Y-89256679D01*
X141896938Y-89119642D01*
X141868000Y-88974164D01*
X141868000Y-88825836D01*
X141896938Y-88680358D01*
X141953700Y-88543321D01*
X141953702Y-88543318D01*
X142036105Y-88419993D01*
X142140993Y-88315105D01*
X142264318Y-88232702D01*
X142264321Y-88232700D01*
X142401358Y-88175938D01*
X142401359Y-88175938D01*
X142401361Y-88175937D01*
X142546835Y-88147000D01*
X142695165Y-88147000D01*
X142840639Y-88175937D01*
G37*
G36*
X140300639Y-88175937D02*
G01*
X140300641Y-88175938D01*
X140300642Y-88175938D01*
X140437679Y-88232700D01*
X140437682Y-88232702D01*
X140561007Y-88315105D01*
X140665895Y-88419993D01*
X140748298Y-88543318D01*
X140748300Y-88543321D01*
X140805062Y-88680358D01*
X140834000Y-88825836D01*
X140834000Y-88974164D01*
X140805062Y-89119642D01*
X140748300Y-89256679D01*
X140748298Y-89256682D01*
X140665895Y-89380007D01*
X140561007Y-89484895D01*
X140437682Y-89567298D01*
X140437679Y-89567300D01*
X140300642Y-89624062D01*
X140300641Y-89624062D01*
X140300639Y-89624063D01*
X140155165Y-89653000D01*
X140006835Y-89653000D01*
X139861361Y-89624063D01*
X139861359Y-89624062D01*
X139861358Y-89624062D01*
X139724321Y-89567300D01*
X139724318Y-89567298D01*
X139600993Y-89484895D01*
X139496105Y-89380007D01*
X139413702Y-89256682D01*
X139413700Y-89256679D01*
X139356938Y-89119642D01*
X139328000Y-88974164D01*
X139328000Y-88825836D01*
X139356938Y-88680358D01*
X139413700Y-88543321D01*
X139413702Y-88543318D01*
X139496105Y-88419993D01*
X139600993Y-88315105D01*
X139724318Y-88232702D01*
X139724321Y-88232700D01*
X139861358Y-88175938D01*
X139861359Y-88175938D01*
X139861361Y-88175937D01*
X140006835Y-88147000D01*
X140155165Y-88147000D01*
X140300639Y-88175937D01*
G37*
G36*
X150460639Y-88175937D02*
G01*
X150460641Y-88175938D01*
X150460642Y-88175938D01*
X150597679Y-88232700D01*
X150597682Y-88232702D01*
X150721007Y-88315105D01*
X150825895Y-88419993D01*
X150908298Y-88543318D01*
X150908300Y-88543321D01*
X150965062Y-88680358D01*
X150994000Y-88825836D01*
X150994000Y-88974164D01*
X150965062Y-89119642D01*
X150908300Y-89256679D01*
X150908298Y-89256682D01*
X150825895Y-89380007D01*
X150721007Y-89484895D01*
X150597682Y-89567298D01*
X150597679Y-89567300D01*
X150460642Y-89624062D01*
X150460641Y-89624062D01*
X150460639Y-89624063D01*
X150315165Y-89653000D01*
X150166835Y-89653000D01*
X150021361Y-89624063D01*
X150021359Y-89624062D01*
X150021358Y-89624062D01*
X149884321Y-89567300D01*
X149884318Y-89567298D01*
X149760993Y-89484895D01*
X149656105Y-89380007D01*
X149573702Y-89256682D01*
X149573700Y-89256679D01*
X149516938Y-89119642D01*
X149488000Y-88974164D01*
X149488000Y-88825836D01*
X149516938Y-88680358D01*
X149573700Y-88543321D01*
X149573702Y-88543318D01*
X149656105Y-88419993D01*
X149760993Y-88315105D01*
X149884318Y-88232702D01*
X149884321Y-88232700D01*
X150021358Y-88175938D01*
X150021359Y-88175938D01*
X150021361Y-88175937D01*
X150166835Y-88147000D01*
X150315165Y-88147000D01*
X150460639Y-88175937D01*
G37*
G36*
X155540639Y-88175937D02*
G01*
X155540641Y-88175938D01*
X155540642Y-88175938D01*
X155677679Y-88232700D01*
X155677682Y-88232702D01*
X155801007Y-88315105D01*
X155905895Y-88419993D01*
X155988298Y-88543318D01*
X155988300Y-88543321D01*
X156045062Y-88680358D01*
X156074000Y-88825836D01*
X156074000Y-88974164D01*
X156045062Y-89119642D01*
X155988300Y-89256679D01*
X155988298Y-89256682D01*
X155905895Y-89380007D01*
X155801007Y-89484895D01*
X155677682Y-89567298D01*
X155677679Y-89567300D01*
X155540642Y-89624062D01*
X155540641Y-89624062D01*
X155540639Y-89624063D01*
X155395165Y-89653000D01*
X155246835Y-89653000D01*
X155101361Y-89624063D01*
X155101359Y-89624062D01*
X155101358Y-89624062D01*
X154964321Y-89567300D01*
X154964318Y-89567298D01*
X154840993Y-89484895D01*
X154736105Y-89380007D01*
X154653702Y-89256682D01*
X154653700Y-89256679D01*
X154596938Y-89119642D01*
X154568000Y-88974164D01*
X154568000Y-88825836D01*
X154596938Y-88680358D01*
X154653700Y-88543321D01*
X154653702Y-88543318D01*
X154736105Y-88419993D01*
X154840993Y-88315105D01*
X154964318Y-88232702D01*
X154964321Y-88232700D01*
X155101358Y-88175938D01*
X155101359Y-88175938D01*
X155101361Y-88175937D01*
X155246835Y-88147000D01*
X155395165Y-88147000D01*
X155540639Y-88175937D01*
G37*
G36*
X153000639Y-88175937D02*
G01*
X153000641Y-88175938D01*
X153000642Y-88175938D01*
X153137679Y-88232700D01*
X153137682Y-88232702D01*
X153261007Y-88315105D01*
X153365895Y-88419993D01*
X153448298Y-88543318D01*
X153448300Y-88543321D01*
X153505062Y-88680358D01*
X153534000Y-88825836D01*
X153534000Y-88974164D01*
X153505062Y-89119642D01*
X153448300Y-89256679D01*
X153448298Y-89256682D01*
X153365895Y-89380007D01*
X153261007Y-89484895D01*
X153137682Y-89567298D01*
X153137679Y-89567300D01*
X153000642Y-89624062D01*
X153000641Y-89624062D01*
X153000639Y-89624063D01*
X152855165Y-89653000D01*
X152706835Y-89653000D01*
X152561361Y-89624063D01*
X152561359Y-89624062D01*
X152561358Y-89624062D01*
X152424321Y-89567300D01*
X152424318Y-89567298D01*
X152300993Y-89484895D01*
X152196105Y-89380007D01*
X152113702Y-89256682D01*
X152113700Y-89256679D01*
X152056938Y-89119642D01*
X152028000Y-88974164D01*
X152028000Y-88825836D01*
X152056938Y-88680358D01*
X152113700Y-88543321D01*
X152113702Y-88543318D01*
X152196105Y-88419993D01*
X152300993Y-88315105D01*
X152424318Y-88232702D01*
X152424321Y-88232700D01*
X152561358Y-88175938D01*
X152561359Y-88175938D01*
X152561361Y-88175937D01*
X152706835Y-88147000D01*
X152855165Y-88147000D01*
X153000639Y-88175937D01*
G37*
G36*
X147920639Y-88175937D02*
G01*
X147920641Y-88175938D01*
X147920642Y-88175938D01*
X148057679Y-88232700D01*
X148057682Y-88232702D01*
X148181007Y-88315105D01*
X148285895Y-88419993D01*
X148368298Y-88543318D01*
X148368300Y-88543321D01*
X148425062Y-88680358D01*
X148454000Y-88825836D01*
X148454000Y-88974164D01*
X148425062Y-89119642D01*
X148368300Y-89256679D01*
X148368298Y-89256682D01*
X148285895Y-89380007D01*
X148181007Y-89484895D01*
X148057682Y-89567298D01*
X148057679Y-89567300D01*
X147920642Y-89624062D01*
X147920641Y-89624062D01*
X147920639Y-89624063D01*
X147775165Y-89653000D01*
X147626835Y-89653000D01*
X147481361Y-89624063D01*
X147481359Y-89624062D01*
X147481358Y-89624062D01*
X147344321Y-89567300D01*
X147344318Y-89567298D01*
X147220993Y-89484895D01*
X147116105Y-89380007D01*
X147033702Y-89256682D01*
X147033700Y-89256679D01*
X146976938Y-89119642D01*
X146948000Y-88974164D01*
X146948000Y-88825836D01*
X146976938Y-88680358D01*
X147033700Y-88543321D01*
X147033702Y-88543318D01*
X147116105Y-88419993D01*
X147220993Y-88315105D01*
X147344318Y-88232702D01*
X147344321Y-88232700D01*
X147481358Y-88175938D01*
X147481359Y-88175938D01*
X147481361Y-88175937D01*
X147626835Y-88147000D01*
X147775165Y-88147000D01*
X147920639Y-88175937D01*
G37*
G36*
X145380639Y-88175937D02*
G01*
X145380641Y-88175938D01*
X145380642Y-88175938D01*
X145517679Y-88232700D01*
X145517682Y-88232702D01*
X145641007Y-88315105D01*
X145745895Y-88419993D01*
X145828298Y-88543318D01*
X145828300Y-88543321D01*
X145885062Y-88680358D01*
X145914000Y-88825836D01*
X145914000Y-88974164D01*
X145885062Y-89119642D01*
X145828300Y-89256679D01*
X145828298Y-89256682D01*
X145745895Y-89380007D01*
X145641007Y-89484895D01*
X145517682Y-89567298D01*
X145517679Y-89567300D01*
X145380642Y-89624062D01*
X145380641Y-89624062D01*
X145380639Y-89624063D01*
X145235165Y-89653000D01*
X145086835Y-89653000D01*
X144941361Y-89624063D01*
X144941359Y-89624062D01*
X144941358Y-89624062D01*
X144804321Y-89567300D01*
X144804318Y-89567298D01*
X144680993Y-89484895D01*
X144576105Y-89380007D01*
X144493702Y-89256682D01*
X144493700Y-89256679D01*
X144436938Y-89119642D01*
X144408000Y-88974164D01*
X144408000Y-88825836D01*
X144436938Y-88680358D01*
X144493700Y-88543321D01*
X144493702Y-88543318D01*
X144576105Y-88419993D01*
X144680993Y-88315105D01*
X144804318Y-88232702D01*
X144804321Y-88232700D01*
X144941358Y-88175938D01*
X144941359Y-88175938D01*
X144941361Y-88175937D01*
X145086835Y-88147000D01*
X145235165Y-88147000D01*
X145380639Y-88175937D01*
G37*
G36*
X155540639Y-85635937D02*
G01*
X155540641Y-85635938D01*
X155540642Y-85635938D01*
X155677679Y-85692700D01*
X155677682Y-85692702D01*
X155801007Y-85775105D01*
X155905895Y-85879993D01*
X155927191Y-85911865D01*
X155988300Y-86003321D01*
X156045062Y-86140358D01*
X156045063Y-86140361D01*
X156074000Y-86285835D01*
X156074000Y-86434165D01*
X156047964Y-86565057D01*
X156045062Y-86579642D01*
X155988300Y-86716679D01*
X155988298Y-86716682D01*
X155905895Y-86840007D01*
X155801007Y-86944895D01*
X155743992Y-86982991D01*
X155677679Y-87027300D01*
X155540642Y-87084062D01*
X155540641Y-87084062D01*
X155540639Y-87084063D01*
X155395165Y-87113000D01*
X155246835Y-87113000D01*
X155101361Y-87084063D01*
X155101359Y-87084062D01*
X155101358Y-87084062D01*
X154964321Y-87027300D01*
X154898008Y-86982991D01*
X154840993Y-86944895D01*
X154736105Y-86840007D01*
X154653702Y-86716682D01*
X154653700Y-86716679D01*
X154596938Y-86579642D01*
X154594037Y-86565057D01*
X154568000Y-86434165D01*
X154568000Y-86285835D01*
X154596937Y-86140361D01*
X154596938Y-86140358D01*
X154653700Y-86003321D01*
X154714809Y-85911865D01*
X154736105Y-85879993D01*
X154840993Y-85775105D01*
X154964318Y-85692702D01*
X154964321Y-85692700D01*
X155101358Y-85635938D01*
X155101359Y-85635938D01*
X155101361Y-85635937D01*
X155246835Y-85607000D01*
X155395165Y-85607000D01*
X155540639Y-85635937D01*
G37*
G36*
X150446058Y-85684015D02*
G01*
X150573996Y-85737009D01*
X150689137Y-85813944D01*
X150787056Y-85911863D01*
X150863991Y-86027004D01*
X150916985Y-86154942D01*
X150944000Y-86290760D01*
X150944000Y-86429240D01*
X150916985Y-86565058D01*
X150863991Y-86692996D01*
X150787056Y-86808137D01*
X150689137Y-86906056D01*
X150573996Y-86982991D01*
X150446058Y-87035985D01*
X150310240Y-87063000D01*
X150171760Y-87063000D01*
X150035942Y-87035985D01*
X149908004Y-86982991D01*
X149792863Y-86906056D01*
X149694944Y-86808137D01*
X149618009Y-86692996D01*
X149565015Y-86565058D01*
X149538000Y-86429240D01*
X149538000Y-86290760D01*
X149565015Y-86154942D01*
X149618009Y-86027004D01*
X149694944Y-85911863D01*
X149792863Y-85813944D01*
X149908004Y-85737009D01*
X150035942Y-85684015D01*
X150171760Y-85657000D01*
X150310240Y-85657000D01*
X150446058Y-85684015D01*
G37*
G36*
X147906058Y-85684015D02*
G01*
X148033996Y-85737009D01*
X148149137Y-85813944D01*
X148247056Y-85911863D01*
X148323991Y-86027004D01*
X148376985Y-86154942D01*
X148404000Y-86290760D01*
X148404000Y-86429240D01*
X148376985Y-86565058D01*
X148323991Y-86692996D01*
X148247056Y-86808137D01*
X148149137Y-86906056D01*
X148033996Y-86982991D01*
X147906058Y-87035985D01*
X147770240Y-87063000D01*
X147631760Y-87063000D01*
X147495942Y-87035985D01*
X147368004Y-86982991D01*
X147252863Y-86906056D01*
X147154944Y-86808137D01*
X147078009Y-86692996D01*
X147025015Y-86565058D01*
X146998000Y-86429240D01*
X146998000Y-86290760D01*
X147025015Y-86154942D01*
X147078009Y-86027004D01*
X147154944Y-85911863D01*
X147252863Y-85813944D01*
X147368004Y-85737009D01*
X147495942Y-85684015D01*
X147631760Y-85657000D01*
X147770240Y-85657000D01*
X147906058Y-85684015D01*
G37*
G36*
X129527776Y-77335704D02*
G01*
X129571535Y-77344408D01*
X129653976Y-77378556D01*
X129728171Y-77428132D01*
X129791268Y-77491229D01*
X129840844Y-77565424D01*
X129874992Y-77647865D01*
X129892400Y-77735383D01*
X129892400Y-77824617D01*
X129874992Y-77912135D01*
X129840844Y-77994576D01*
X129791268Y-78068771D01*
X129728171Y-78131868D01*
X129662017Y-78176071D01*
X129643080Y-78191612D01*
X129627535Y-78210554D01*
X129615984Y-78232165D01*
X129608871Y-78255614D01*
X129606469Y-78280000D01*
X129608871Y-78304386D01*
X129615984Y-78327835D01*
X129627535Y-78349446D01*
X129643080Y-78368388D01*
X129662017Y-78383929D01*
X129728171Y-78428132D01*
X129791268Y-78491229D01*
X129840844Y-78565424D01*
X129874992Y-78647865D01*
X129892400Y-78735383D01*
X129892400Y-78824617D01*
X129874992Y-78912135D01*
X129840844Y-78994576D01*
X129791268Y-79068771D01*
X129728171Y-79131868D01*
X129662017Y-79176071D01*
X129643080Y-79191612D01*
X129627535Y-79210554D01*
X129615984Y-79232165D01*
X129608871Y-79255614D01*
X129606469Y-79280000D01*
X129608871Y-79304386D01*
X129615984Y-79327835D01*
X129627535Y-79349446D01*
X129643080Y-79368388D01*
X129662017Y-79383929D01*
X129728171Y-79428132D01*
X129791268Y-79491229D01*
X129840844Y-79565424D01*
X129874992Y-79647865D01*
X129892400Y-79735383D01*
X129892400Y-79824617D01*
X129874992Y-79912135D01*
X129840844Y-79994576D01*
X129791268Y-80068771D01*
X129728171Y-80131868D01*
X129662017Y-80176071D01*
X129643080Y-80191612D01*
X129627535Y-80210554D01*
X129615984Y-80232165D01*
X129608871Y-80255614D01*
X129606469Y-80280000D01*
X129608871Y-80304386D01*
X129615984Y-80327835D01*
X129627535Y-80349446D01*
X129643080Y-80368388D01*
X129662017Y-80383929D01*
X129728171Y-80428132D01*
X129791268Y-80491229D01*
X129840844Y-80565424D01*
X129874992Y-80647865D01*
X129892400Y-80735383D01*
X129892400Y-80824617D01*
X129874992Y-80912135D01*
X129840844Y-80994576D01*
X129791268Y-81068771D01*
X129728171Y-81131868D01*
X129662017Y-81176071D01*
X129643080Y-81191612D01*
X129627535Y-81210554D01*
X129615984Y-81232165D01*
X129608871Y-81255614D01*
X129606469Y-81280000D01*
X129608871Y-81304386D01*
X129615984Y-81327835D01*
X129627535Y-81349446D01*
X129643080Y-81368388D01*
X129662017Y-81383929D01*
X129728171Y-81428132D01*
X129791268Y-81491229D01*
X129840844Y-81565424D01*
X129874992Y-81647865D01*
X129892400Y-81735383D01*
X129892400Y-81824617D01*
X129874992Y-81912135D01*
X129840844Y-81994576D01*
X129791268Y-82068771D01*
X129728171Y-82131868D01*
X129662017Y-82176071D01*
X129643080Y-82191612D01*
X129627535Y-82210554D01*
X129615984Y-82232165D01*
X129608871Y-82255614D01*
X129606469Y-82280000D01*
X129608871Y-82304386D01*
X129615984Y-82327835D01*
X129627535Y-82349446D01*
X129643080Y-82368388D01*
X129662017Y-82383929D01*
X129728171Y-82428132D01*
X129791268Y-82491229D01*
X129840844Y-82565424D01*
X129874992Y-82647865D01*
X129892400Y-82735383D01*
X129892400Y-82824617D01*
X129874992Y-82912135D01*
X129840844Y-82994576D01*
X129791268Y-83068771D01*
X129728171Y-83131868D01*
X129662017Y-83176071D01*
X129643080Y-83191612D01*
X129627535Y-83210554D01*
X129615984Y-83232165D01*
X129608871Y-83255614D01*
X129606469Y-83280000D01*
X129608871Y-83304386D01*
X129615984Y-83327835D01*
X129627535Y-83349446D01*
X129643080Y-83368388D01*
X129662017Y-83383929D01*
X129728171Y-83428132D01*
X129791268Y-83491229D01*
X129840844Y-83565424D01*
X129874992Y-83647865D01*
X129892400Y-83735383D01*
X129892400Y-83824617D01*
X129874992Y-83912135D01*
X129840844Y-83994576D01*
X129791268Y-84068771D01*
X129728171Y-84131868D01*
X129662017Y-84176071D01*
X129643080Y-84191612D01*
X129627535Y-84210554D01*
X129615984Y-84232165D01*
X129608871Y-84255614D01*
X129606469Y-84280000D01*
X129608871Y-84304386D01*
X129615984Y-84327835D01*
X129627535Y-84349446D01*
X129643080Y-84368388D01*
X129662017Y-84383929D01*
X129728171Y-84428132D01*
X129791268Y-84491229D01*
X129840844Y-84565424D01*
X129874992Y-84647865D01*
X129892400Y-84735383D01*
X129892400Y-84824617D01*
X129874992Y-84912135D01*
X129840844Y-84994576D01*
X129791268Y-85068771D01*
X129728171Y-85131868D01*
X129653976Y-85181444D01*
X129571535Y-85215592D01*
X129527776Y-85224296D01*
X129484018Y-85233000D01*
X129394782Y-85233000D01*
X129351024Y-85224296D01*
X129307265Y-85215592D01*
X129224824Y-85181444D01*
X129150629Y-85131868D01*
X129087532Y-85068771D01*
X129037956Y-84994576D01*
X129003808Y-84912135D01*
X128986400Y-84824617D01*
X128986400Y-84735383D01*
X129003808Y-84647865D01*
X129037956Y-84565424D01*
X129087532Y-84491229D01*
X129150629Y-84428132D01*
X129216783Y-84383929D01*
X129235720Y-84368388D01*
X129251265Y-84349446D01*
X129262816Y-84327835D01*
X129269929Y-84304386D01*
X129272331Y-84280000D01*
X129269929Y-84255614D01*
X129262816Y-84232165D01*
X129251265Y-84210554D01*
X129235720Y-84191612D01*
X129216783Y-84176071D01*
X129150629Y-84131868D01*
X129087532Y-84068771D01*
X129037956Y-83994576D01*
X129003808Y-83912135D01*
X128986400Y-83824617D01*
X128986400Y-83735383D01*
X129003808Y-83647865D01*
X129037956Y-83565424D01*
X129087532Y-83491229D01*
X129150629Y-83428132D01*
X129216783Y-83383929D01*
X129235720Y-83368388D01*
X129251265Y-83349446D01*
X129262816Y-83327835D01*
X129269929Y-83304386D01*
X129272331Y-83280000D01*
X129269929Y-83255614D01*
X129262816Y-83232165D01*
X129251265Y-83210554D01*
X129235720Y-83191612D01*
X129216783Y-83176071D01*
X129150629Y-83131868D01*
X129087532Y-83068771D01*
X129037956Y-82994576D01*
X129003808Y-82912135D01*
X128986400Y-82824617D01*
X128986400Y-82735383D01*
X129003808Y-82647865D01*
X129037956Y-82565424D01*
X129087532Y-82491229D01*
X129150629Y-82428132D01*
X129216783Y-82383929D01*
X129235720Y-82368388D01*
X129251265Y-82349446D01*
X129262816Y-82327835D01*
X129269929Y-82304386D01*
X129272331Y-82280000D01*
X129269929Y-82255614D01*
X129262816Y-82232165D01*
X129251265Y-82210554D01*
X129235720Y-82191612D01*
X129216783Y-82176071D01*
X129150629Y-82131868D01*
X129087532Y-82068771D01*
X129037956Y-81994576D01*
X129003808Y-81912135D01*
X128986400Y-81824617D01*
X128986400Y-81735383D01*
X129003808Y-81647865D01*
X129037956Y-81565424D01*
X129087532Y-81491229D01*
X129150629Y-81428132D01*
X129216783Y-81383929D01*
X129235720Y-81368388D01*
X129251265Y-81349446D01*
X129262816Y-81327835D01*
X129269929Y-81304386D01*
X129272331Y-81280000D01*
X129269929Y-81255614D01*
X129262816Y-81232165D01*
X129251265Y-81210554D01*
X129235720Y-81191612D01*
X129216783Y-81176071D01*
X129150629Y-81131868D01*
X129087532Y-81068771D01*
X129037956Y-80994576D01*
X129003808Y-80912135D01*
X128986400Y-80824617D01*
X128986400Y-80735383D01*
X129003808Y-80647865D01*
X129037956Y-80565424D01*
X129087532Y-80491229D01*
X129150629Y-80428132D01*
X129216783Y-80383929D01*
X129235720Y-80368388D01*
X129251265Y-80349446D01*
X129262816Y-80327835D01*
X129269929Y-80304386D01*
X129272331Y-80280000D01*
X129269929Y-80255614D01*
X129262816Y-80232165D01*
X129251265Y-80210554D01*
X129235720Y-80191612D01*
X129216783Y-80176071D01*
X129150629Y-80131868D01*
X129087532Y-80068771D01*
X129037956Y-79994576D01*
X129003808Y-79912135D01*
X128986400Y-79824617D01*
X128986400Y-79735383D01*
X129003808Y-79647865D01*
X129037956Y-79565424D01*
X129087532Y-79491229D01*
X129150629Y-79428132D01*
X129216783Y-79383929D01*
X129235720Y-79368388D01*
X129251265Y-79349446D01*
X129262816Y-79327835D01*
X129269929Y-79304386D01*
X129272331Y-79280000D01*
X129269929Y-79255614D01*
X129262816Y-79232165D01*
X129251265Y-79210554D01*
X129235720Y-79191612D01*
X129216783Y-79176071D01*
X129150629Y-79131868D01*
X129087532Y-79068771D01*
X129037956Y-78994576D01*
X129003808Y-78912135D01*
X128986400Y-78824617D01*
X128986400Y-78735383D01*
X129003808Y-78647865D01*
X129037956Y-78565424D01*
X129087532Y-78491229D01*
X129150629Y-78428132D01*
X129216783Y-78383929D01*
X129235720Y-78368388D01*
X129251265Y-78349446D01*
X129262816Y-78327835D01*
X129269929Y-78304386D01*
X129272331Y-78280000D01*
X129269929Y-78255614D01*
X129262816Y-78232165D01*
X129251265Y-78210554D01*
X129235720Y-78191612D01*
X129216783Y-78176071D01*
X129150629Y-78131868D01*
X129087532Y-78068771D01*
X129037956Y-77994576D01*
X129003808Y-77912135D01*
X128986400Y-77824617D01*
X128986400Y-77735383D01*
X129003808Y-77647865D01*
X129037956Y-77565424D01*
X129087532Y-77491229D01*
X129150629Y-77428132D01*
X129224824Y-77378556D01*
X129307265Y-77344408D01*
X129351024Y-77335704D01*
X129394782Y-77327000D01*
X129484018Y-77327000D01*
X129527776Y-77335704D01*
G37*
G36*
X155540639Y-83095937D02*
G01*
X155540641Y-83095938D01*
X155540642Y-83095938D01*
X155677679Y-83152700D01*
X155677682Y-83152702D01*
X155801007Y-83235105D01*
X155905895Y-83339993D01*
X155988298Y-83463318D01*
X155988300Y-83463321D01*
X156045062Y-83600358D01*
X156045063Y-83600361D01*
X156074000Y-83745835D01*
X156074000Y-83894165D01*
X156047964Y-84025057D01*
X156045062Y-84039642D01*
X155988300Y-84176679D01*
X155988298Y-84176682D01*
X155905895Y-84300007D01*
X155801007Y-84404895D01*
X155766230Y-84428132D01*
X155677679Y-84487300D01*
X155540642Y-84544062D01*
X155540641Y-84544062D01*
X155540639Y-84544063D01*
X155395165Y-84573000D01*
X155246835Y-84573000D01*
X155101361Y-84544063D01*
X155101359Y-84544062D01*
X155101358Y-84544062D01*
X154964321Y-84487300D01*
X154875770Y-84428132D01*
X154840993Y-84404895D01*
X154736105Y-84300007D01*
X154653702Y-84176682D01*
X154653700Y-84176679D01*
X154596938Y-84039642D01*
X154594037Y-84025057D01*
X154568000Y-83894165D01*
X154568000Y-83745835D01*
X154596937Y-83600361D01*
X154596938Y-83600358D01*
X154653700Y-83463321D01*
X154653702Y-83463318D01*
X154736105Y-83339993D01*
X154840993Y-83235105D01*
X154964318Y-83152702D01*
X154964321Y-83152700D01*
X155101358Y-83095938D01*
X155101359Y-83095938D01*
X155101361Y-83095937D01*
X155246835Y-83067000D01*
X155395165Y-83067000D01*
X155540639Y-83095937D01*
G37*
G36*
X150446058Y-83144015D02*
G01*
X150573996Y-83197009D01*
X150689137Y-83273944D01*
X150787056Y-83371863D01*
X150863991Y-83487004D01*
X150916985Y-83614942D01*
X150944000Y-83750760D01*
X150944000Y-83889240D01*
X150916985Y-84025058D01*
X150863991Y-84152996D01*
X150787056Y-84268137D01*
X150689137Y-84366056D01*
X150573996Y-84442991D01*
X150446058Y-84495985D01*
X150310240Y-84523000D01*
X150171760Y-84523000D01*
X150035942Y-84495985D01*
X149908004Y-84442991D01*
X149792863Y-84366056D01*
X149694944Y-84268137D01*
X149618009Y-84152996D01*
X149565015Y-84025058D01*
X149538000Y-83889240D01*
X149538000Y-83750760D01*
X149565015Y-83614942D01*
X149618009Y-83487004D01*
X149694944Y-83371863D01*
X149792863Y-83273944D01*
X149908004Y-83197009D01*
X150035942Y-83144015D01*
X150171760Y-83117000D01*
X150310240Y-83117000D01*
X150446058Y-83144015D01*
G37*
G36*
X147906058Y-83144015D02*
G01*
X148033996Y-83197009D01*
X148149137Y-83273944D01*
X148247056Y-83371863D01*
X148323991Y-83487004D01*
X148376985Y-83614942D01*
X148404000Y-83750760D01*
X148404000Y-83889240D01*
X148376985Y-84025058D01*
X148323991Y-84152996D01*
X148247056Y-84268137D01*
X148149137Y-84366056D01*
X148033996Y-84442991D01*
X147906058Y-84495985D01*
X147770240Y-84523000D01*
X147631760Y-84523000D01*
X147495942Y-84495985D01*
X147368004Y-84442991D01*
X147252863Y-84366056D01*
X147154944Y-84268137D01*
X147078009Y-84152996D01*
X147025015Y-84025058D01*
X146998000Y-83889240D01*
X146998000Y-83750760D01*
X147025015Y-83614942D01*
X147078009Y-83487004D01*
X147154944Y-83371863D01*
X147252863Y-83273944D01*
X147368004Y-83197009D01*
X147495942Y-83144015D01*
X147631760Y-83117000D01*
X147770240Y-83117000D01*
X147906058Y-83144015D01*
G37*
G36*
X123776058Y-81874015D02*
G01*
X123903996Y-81927009D01*
X124019137Y-82003944D01*
X124117056Y-82101863D01*
X124193991Y-82217004D01*
X124246985Y-82344942D01*
X124274000Y-82480760D01*
X124274000Y-82619240D01*
X124246985Y-82755058D01*
X124193991Y-82882996D01*
X124117056Y-82998137D01*
X124019137Y-83096056D01*
X123903996Y-83172991D01*
X123776058Y-83225985D01*
X123640240Y-83253000D01*
X123501760Y-83253000D01*
X123365942Y-83225985D01*
X123238004Y-83172991D01*
X123122863Y-83096056D01*
X123024944Y-82998137D01*
X122948009Y-82882996D01*
X122895015Y-82755058D01*
X122868000Y-82619240D01*
X122868000Y-82480760D01*
X122895015Y-82344942D01*
X122948009Y-82217004D01*
X123024944Y-82101863D01*
X123122863Y-82003944D01*
X123238004Y-81927009D01*
X123365942Y-81874015D01*
X123501760Y-81847000D01*
X123640240Y-81847000D01*
X123776058Y-81874015D01*
G37*
G36*
X155540639Y-80555937D02*
G01*
X155540641Y-80555938D01*
X155540642Y-80555938D01*
X155677679Y-80612700D01*
X155677682Y-80612702D01*
X155801007Y-80695105D01*
X155905895Y-80799993D01*
X155927191Y-80831865D01*
X155988300Y-80923321D01*
X156017814Y-80994576D01*
X156045063Y-81060361D01*
X156074000Y-81205835D01*
X156074000Y-81354165D01*
X156046736Y-81491230D01*
X156045062Y-81499642D01*
X155988300Y-81636679D01*
X155988298Y-81636682D01*
X155905895Y-81760007D01*
X155801007Y-81864895D01*
X155677682Y-81947298D01*
X155677679Y-81947300D01*
X155540642Y-82004062D01*
X155540641Y-82004062D01*
X155540639Y-82004063D01*
X155395165Y-82033000D01*
X155246835Y-82033000D01*
X155101361Y-82004063D01*
X155101359Y-82004062D01*
X155101358Y-82004062D01*
X154964321Y-81947300D01*
X154964318Y-81947298D01*
X154840993Y-81864895D01*
X154736105Y-81760007D01*
X154653702Y-81636682D01*
X154653700Y-81636679D01*
X154596938Y-81499642D01*
X154595265Y-81491230D01*
X154568000Y-81354165D01*
X154568000Y-81205835D01*
X154596937Y-81060361D01*
X154624186Y-80994576D01*
X154653700Y-80923321D01*
X154714809Y-80831865D01*
X154736105Y-80799993D01*
X154840993Y-80695105D01*
X154964318Y-80612702D01*
X154964321Y-80612700D01*
X155101358Y-80555938D01*
X155101359Y-80555938D01*
X155101361Y-80555937D01*
X155246835Y-80527000D01*
X155395165Y-80527000D01*
X155540639Y-80555937D01*
G37*
G36*
X150446058Y-80604015D02*
G01*
X150573996Y-80657009D01*
X150689137Y-80733944D01*
X150787056Y-80831863D01*
X150863991Y-80947004D01*
X150916985Y-81074942D01*
X150944000Y-81210760D01*
X150944000Y-81349240D01*
X150916985Y-81485058D01*
X150863991Y-81612996D01*
X150787056Y-81728137D01*
X150689137Y-81826056D01*
X150573996Y-81902991D01*
X150446058Y-81955985D01*
X150310240Y-81983000D01*
X150171760Y-81983000D01*
X150035942Y-81955985D01*
X149908004Y-81902991D01*
X149792863Y-81826056D01*
X149694944Y-81728137D01*
X149618009Y-81612996D01*
X149565015Y-81485058D01*
X149538000Y-81349240D01*
X149538000Y-81210760D01*
X149565015Y-81074942D01*
X149618009Y-80947004D01*
X149694944Y-80831863D01*
X149792863Y-80733944D01*
X149908004Y-80657009D01*
X150035942Y-80604015D01*
X150171760Y-80577000D01*
X150310240Y-80577000D01*
X150446058Y-80604015D01*
G37*
G36*
X147906058Y-80604015D02*
G01*
X148033996Y-80657009D01*
X148149137Y-80733944D01*
X148247056Y-80831863D01*
X148323991Y-80947004D01*
X148376985Y-81074942D01*
X148404000Y-81210760D01*
X148404000Y-81349240D01*
X148376985Y-81485058D01*
X148323991Y-81612996D01*
X148247056Y-81728137D01*
X148149137Y-81826056D01*
X148033996Y-81902991D01*
X147906058Y-81955985D01*
X147770240Y-81983000D01*
X147631760Y-81983000D01*
X147495942Y-81955985D01*
X147368004Y-81902991D01*
X147252863Y-81826056D01*
X147154944Y-81728137D01*
X147078009Y-81612996D01*
X147025015Y-81485058D01*
X146998000Y-81349240D01*
X146998000Y-81210760D01*
X147025015Y-81074942D01*
X147078009Y-80947004D01*
X147154944Y-80831863D01*
X147252863Y-80733944D01*
X147368004Y-80657009D01*
X147495942Y-80604015D01*
X147631760Y-80577000D01*
X147770240Y-80577000D01*
X147906058Y-80604015D01*
G37*
G36*
X123776058Y-79334015D02*
G01*
X123903996Y-79387009D01*
X124019137Y-79463944D01*
X124117056Y-79561863D01*
X124193991Y-79677004D01*
X124246985Y-79804942D01*
X124274000Y-79940760D01*
X124274000Y-80079240D01*
X124246985Y-80215058D01*
X124193991Y-80342996D01*
X124117056Y-80458137D01*
X124019137Y-80556056D01*
X123903996Y-80632991D01*
X123776058Y-80685985D01*
X123640240Y-80713000D01*
X123501760Y-80713000D01*
X123365942Y-80685985D01*
X123238004Y-80632991D01*
X123122863Y-80556056D01*
X123024944Y-80458137D01*
X122948009Y-80342996D01*
X122895015Y-80215058D01*
X122868000Y-80079240D01*
X122868000Y-79940760D01*
X122895015Y-79804942D01*
X122948009Y-79677004D01*
X123024944Y-79561863D01*
X123122863Y-79463944D01*
X123238004Y-79387009D01*
X123365942Y-79334015D01*
X123501760Y-79307000D01*
X123640240Y-79307000D01*
X123776058Y-79334015D01*
G37*
G36*
X155540639Y-78015937D02*
G01*
X155540641Y-78015938D01*
X155540642Y-78015938D01*
X155677679Y-78072700D01*
X155677682Y-78072702D01*
X155801007Y-78155105D01*
X155905895Y-78259993D01*
X155962299Y-78344408D01*
X155988300Y-78383321D01*
X156006861Y-78428132D01*
X156045063Y-78520361D01*
X156074000Y-78665835D01*
X156074000Y-78814165D01*
X156047964Y-78945057D01*
X156045062Y-78959642D01*
X155988300Y-79096679D01*
X155988298Y-79096682D01*
X155905895Y-79220007D01*
X155801007Y-79324895D01*
X155677682Y-79407298D01*
X155677679Y-79407300D01*
X155540642Y-79464062D01*
X155540641Y-79464062D01*
X155540639Y-79464063D01*
X155395165Y-79493000D01*
X155246835Y-79493000D01*
X155101361Y-79464063D01*
X155101359Y-79464062D01*
X155101358Y-79464062D01*
X154964321Y-79407300D01*
X154964318Y-79407298D01*
X154840993Y-79324895D01*
X154736105Y-79220007D01*
X154653702Y-79096682D01*
X154653700Y-79096679D01*
X154596938Y-78959642D01*
X154594037Y-78945057D01*
X154568000Y-78814165D01*
X154568000Y-78665835D01*
X154596937Y-78520361D01*
X154635139Y-78428132D01*
X154653700Y-78383321D01*
X154679701Y-78344408D01*
X154736105Y-78259993D01*
X154840993Y-78155105D01*
X154964318Y-78072702D01*
X154964321Y-78072700D01*
X155101358Y-78015938D01*
X155101359Y-78015938D01*
X155101361Y-78015937D01*
X155246835Y-77987000D01*
X155395165Y-77987000D01*
X155540639Y-78015937D01*
G37*
G36*
X147906058Y-78064015D02*
G01*
X148033996Y-78117009D01*
X148149137Y-78193944D01*
X148247056Y-78291863D01*
X148323991Y-78407004D01*
X148376985Y-78534942D01*
X148404000Y-78670760D01*
X148404000Y-78809240D01*
X148376985Y-78945058D01*
X148323991Y-79072996D01*
X148247056Y-79188137D01*
X148149137Y-79286056D01*
X148033996Y-79362991D01*
X147906058Y-79415985D01*
X147770240Y-79443000D01*
X147631760Y-79443000D01*
X147495942Y-79415985D01*
X147368004Y-79362991D01*
X147252863Y-79286056D01*
X147154944Y-79188137D01*
X147078009Y-79072996D01*
X147025015Y-78945058D01*
X146998000Y-78809240D01*
X146998000Y-78670760D01*
X147025015Y-78534942D01*
X147078009Y-78407004D01*
X147154944Y-78291863D01*
X147252863Y-78193944D01*
X147368004Y-78117009D01*
X147495942Y-78064015D01*
X147631760Y-78037000D01*
X147770240Y-78037000D01*
X147906058Y-78064015D01*
G37*
G36*
X150446058Y-78064015D02*
G01*
X150573996Y-78117009D01*
X150689137Y-78193944D01*
X150787056Y-78291863D01*
X150863991Y-78407004D01*
X150916985Y-78534942D01*
X150944000Y-78670760D01*
X150944000Y-78809240D01*
X150916985Y-78945058D01*
X150863991Y-79072996D01*
X150787056Y-79188137D01*
X150689137Y-79286056D01*
X150573996Y-79362991D01*
X150446058Y-79415985D01*
X150310240Y-79443000D01*
X150171760Y-79443000D01*
X150035942Y-79415985D01*
X149908004Y-79362991D01*
X149792863Y-79286056D01*
X149694944Y-79188137D01*
X149618009Y-79072996D01*
X149565015Y-78945058D01*
X149538000Y-78809240D01*
X149538000Y-78670760D01*
X149565015Y-78534942D01*
X149618009Y-78407004D01*
X149694944Y-78291863D01*
X149792863Y-78193944D01*
X149908004Y-78117009D01*
X150035942Y-78064015D01*
X150171760Y-78037000D01*
X150310240Y-78037000D01*
X150446058Y-78064015D01*
G37*
G36*
X155540639Y-75475937D02*
G01*
X155540641Y-75475938D01*
X155540642Y-75475938D01*
X155677679Y-75532700D01*
X155677682Y-75532702D01*
X155801007Y-75615105D01*
X155905895Y-75719993D01*
X155927191Y-75751865D01*
X155988300Y-75843321D01*
X156045062Y-75980358D01*
X156045063Y-75980361D01*
X156074000Y-76125835D01*
X156074000Y-76274165D01*
X156047964Y-76405057D01*
X156045062Y-76419642D01*
X155988300Y-76556679D01*
X155988298Y-76556682D01*
X155905895Y-76680007D01*
X155801007Y-76784895D01*
X155743992Y-76822991D01*
X155677679Y-76867300D01*
X155540642Y-76924062D01*
X155540641Y-76924062D01*
X155540639Y-76924063D01*
X155395165Y-76953000D01*
X155246835Y-76953000D01*
X155101361Y-76924063D01*
X155101359Y-76924062D01*
X155101358Y-76924062D01*
X154964321Y-76867300D01*
X154898008Y-76822991D01*
X154840993Y-76784895D01*
X154736105Y-76680007D01*
X154653702Y-76556682D01*
X154653700Y-76556679D01*
X154596938Y-76419642D01*
X154594037Y-76405057D01*
X154568000Y-76274165D01*
X154568000Y-76125835D01*
X154596937Y-75980361D01*
X154596938Y-75980358D01*
X154653700Y-75843321D01*
X154714809Y-75751865D01*
X154736105Y-75719993D01*
X154840993Y-75615105D01*
X154964318Y-75532702D01*
X154964321Y-75532700D01*
X155101358Y-75475938D01*
X155101359Y-75475938D01*
X155101361Y-75475937D01*
X155246835Y-75447000D01*
X155395165Y-75447000D01*
X155540639Y-75475937D01*
G37*
G36*
X125060639Y-75475937D02*
G01*
X125060641Y-75475938D01*
X125060642Y-75475938D01*
X125197679Y-75532700D01*
X125197682Y-75532702D01*
X125321007Y-75615105D01*
X125425895Y-75719993D01*
X125447191Y-75751865D01*
X125508300Y-75843321D01*
X125565062Y-75980358D01*
X125565063Y-75980361D01*
X125594000Y-76125835D01*
X125594000Y-76274165D01*
X125567964Y-76405057D01*
X125565062Y-76419642D01*
X125508300Y-76556679D01*
X125508298Y-76556682D01*
X125425895Y-76680007D01*
X125321007Y-76784895D01*
X125263992Y-76822991D01*
X125197679Y-76867300D01*
X125060642Y-76924062D01*
X125060641Y-76924062D01*
X125060639Y-76924063D01*
X124915165Y-76953000D01*
X124766835Y-76953000D01*
X124621361Y-76924063D01*
X124621359Y-76924062D01*
X124621358Y-76924062D01*
X124484321Y-76867300D01*
X124418008Y-76822991D01*
X124360993Y-76784895D01*
X124256105Y-76680007D01*
X124173702Y-76556682D01*
X124173700Y-76556679D01*
X124116938Y-76419642D01*
X124114037Y-76405057D01*
X124088000Y-76274165D01*
X124088000Y-76125835D01*
X124116937Y-75980361D01*
X124116938Y-75980358D01*
X124173700Y-75843321D01*
X124234809Y-75751865D01*
X124256105Y-75719993D01*
X124360993Y-75615105D01*
X124484318Y-75532702D01*
X124484321Y-75532700D01*
X124621358Y-75475938D01*
X124621359Y-75475938D01*
X124621361Y-75475937D01*
X124766835Y-75447000D01*
X124915165Y-75447000D01*
X125060639Y-75475937D01*
G37*
G36*
X150446058Y-75524015D02*
G01*
X150573996Y-75577009D01*
X150689137Y-75653944D01*
X150787056Y-75751863D01*
X150863991Y-75867004D01*
X150916985Y-75994942D01*
X150944000Y-76130760D01*
X150944000Y-76269240D01*
X150916985Y-76405058D01*
X150863991Y-76532996D01*
X150787056Y-76648137D01*
X150689137Y-76746056D01*
X150573996Y-76822991D01*
X150446058Y-76875985D01*
X150310240Y-76903000D01*
X150171760Y-76903000D01*
X150035942Y-76875985D01*
X149908004Y-76822991D01*
X149792863Y-76746056D01*
X149694944Y-76648137D01*
X149618009Y-76532996D01*
X149565015Y-76405058D01*
X149538000Y-76269240D01*
X149538000Y-76130760D01*
X149565015Y-75994942D01*
X149618009Y-75867004D01*
X149694944Y-75751863D01*
X149792863Y-75653944D01*
X149908004Y-75577009D01*
X150035942Y-75524015D01*
X150171760Y-75497000D01*
X150310240Y-75497000D01*
X150446058Y-75524015D01*
G37*
G36*
X147906058Y-75524015D02*
G01*
X148033996Y-75577009D01*
X148149137Y-75653944D01*
X148247056Y-75751863D01*
X148323991Y-75867004D01*
X148376985Y-75994942D01*
X148404000Y-76130760D01*
X148404000Y-76269240D01*
X148376985Y-76405058D01*
X148323991Y-76532996D01*
X148247056Y-76648137D01*
X148149137Y-76746056D01*
X148033996Y-76822991D01*
X147906058Y-76875985D01*
X147770240Y-76903000D01*
X147631760Y-76903000D01*
X147495942Y-76875985D01*
X147368004Y-76822991D01*
X147252863Y-76746056D01*
X147154944Y-76648137D01*
X147078009Y-76532996D01*
X147025015Y-76405058D01*
X146998000Y-76269240D01*
X146998000Y-76130760D01*
X147025015Y-75994942D01*
X147078009Y-75867004D01*
X147154944Y-75751863D01*
X147252863Y-75653944D01*
X147368004Y-75577009D01*
X147495942Y-75524015D01*
X147631760Y-75497000D01*
X147770240Y-75497000D01*
X147906058Y-75524015D01*
G37*
G36*
X155540639Y-72935937D02*
G01*
X155540641Y-72935938D01*
X155540642Y-72935938D01*
X155677679Y-72992700D01*
X155677682Y-72992702D01*
X155801007Y-73075105D01*
X155905895Y-73179993D01*
X155988298Y-73303318D01*
X155988300Y-73303321D01*
X156045062Y-73440358D01*
X156074000Y-73585836D01*
X156074000Y-73734164D01*
X156045062Y-73879642D01*
X155988300Y-74016679D01*
X155988298Y-74016682D01*
X155905895Y-74140007D01*
X155801007Y-74244895D01*
X155677682Y-74327298D01*
X155677679Y-74327300D01*
X155540642Y-74384062D01*
X155540641Y-74384062D01*
X155540639Y-74384063D01*
X155395165Y-74413000D01*
X155246835Y-74413000D01*
X155101361Y-74384063D01*
X155101359Y-74384062D01*
X155101358Y-74384062D01*
X154964321Y-74327300D01*
X154964318Y-74327298D01*
X154840993Y-74244895D01*
X154736105Y-74140007D01*
X154653702Y-74016682D01*
X154653700Y-74016679D01*
X154596938Y-73879642D01*
X154568000Y-73734164D01*
X154568000Y-73585836D01*
X154596938Y-73440358D01*
X154653700Y-73303321D01*
X154653702Y-73303318D01*
X154736105Y-73179993D01*
X154840993Y-73075105D01*
X154964318Y-72992702D01*
X154964321Y-72992700D01*
X155101358Y-72935938D01*
X155101359Y-72935938D01*
X155101361Y-72935937D01*
X155246835Y-72907000D01*
X155395165Y-72907000D01*
X155540639Y-72935937D01*
G37*
G36*
X142840639Y-72935937D02*
G01*
X142840641Y-72935938D01*
X142840642Y-72935938D01*
X142977679Y-72992700D01*
X142977682Y-72992702D01*
X143101007Y-73075105D01*
X143205895Y-73179993D01*
X143288298Y-73303318D01*
X143288300Y-73303321D01*
X143345062Y-73440358D01*
X143374000Y-73585836D01*
X143374000Y-73734164D01*
X143345062Y-73879642D01*
X143288300Y-74016679D01*
X143288298Y-74016682D01*
X143205895Y-74140007D01*
X143101007Y-74244895D01*
X142977682Y-74327298D01*
X142977679Y-74327300D01*
X142840642Y-74384062D01*
X142840641Y-74384062D01*
X142840639Y-74384063D01*
X142695165Y-74413000D01*
X142546835Y-74413000D01*
X142401361Y-74384063D01*
X142401359Y-74384062D01*
X142401358Y-74384062D01*
X142264321Y-74327300D01*
X142264318Y-74327298D01*
X142140993Y-74244895D01*
X142036105Y-74140007D01*
X141953702Y-74016682D01*
X141953700Y-74016679D01*
X141896938Y-73879642D01*
X141868000Y-73734164D01*
X141868000Y-73585836D01*
X141896938Y-73440358D01*
X141953700Y-73303321D01*
X141953702Y-73303318D01*
X142036105Y-73179993D01*
X142140993Y-73075105D01*
X142264318Y-72992702D01*
X142264321Y-72992700D01*
X142401358Y-72935938D01*
X142401359Y-72935938D01*
X142401361Y-72935937D01*
X142546835Y-72907000D01*
X142695165Y-72907000D01*
X142840639Y-72935937D01*
G37*
G36*
X140300639Y-72935937D02*
G01*
X140300641Y-72935938D01*
X140300642Y-72935938D01*
X140437679Y-72992700D01*
X140437682Y-72992702D01*
X140561007Y-73075105D01*
X140665895Y-73179993D01*
X140748298Y-73303318D01*
X140748300Y-73303321D01*
X140805062Y-73440358D01*
X140834000Y-73585836D01*
X140834000Y-73734164D01*
X140805062Y-73879642D01*
X140748300Y-74016679D01*
X140748298Y-74016682D01*
X140665895Y-74140007D01*
X140561007Y-74244895D01*
X140437682Y-74327298D01*
X140437679Y-74327300D01*
X140300642Y-74384062D01*
X140300641Y-74384062D01*
X140300639Y-74384063D01*
X140155165Y-74413000D01*
X140006835Y-74413000D01*
X139861361Y-74384063D01*
X139861359Y-74384062D01*
X139861358Y-74384062D01*
X139724321Y-74327300D01*
X139724318Y-74327298D01*
X139600993Y-74244895D01*
X139496105Y-74140007D01*
X139413702Y-74016682D01*
X139413700Y-74016679D01*
X139356938Y-73879642D01*
X139328000Y-73734164D01*
X139328000Y-73585836D01*
X139356938Y-73440358D01*
X139413700Y-73303321D01*
X139413702Y-73303318D01*
X139496105Y-73179993D01*
X139600993Y-73075105D01*
X139724318Y-72992702D01*
X139724321Y-72992700D01*
X139861358Y-72935938D01*
X139861359Y-72935938D01*
X139861361Y-72935937D01*
X140006835Y-72907000D01*
X140155165Y-72907000D01*
X140300639Y-72935937D01*
G37*
G36*
X137760639Y-72935937D02*
G01*
X137760641Y-72935938D01*
X137760642Y-72935938D01*
X137897679Y-72992700D01*
X137897682Y-72992702D01*
X138021007Y-73075105D01*
X138125895Y-73179993D01*
X138208298Y-73303318D01*
X138208300Y-73303321D01*
X138265062Y-73440358D01*
X138294000Y-73585836D01*
X138294000Y-73734164D01*
X138265062Y-73879642D01*
X138208300Y-74016679D01*
X138208298Y-74016682D01*
X138125895Y-74140007D01*
X138021007Y-74244895D01*
X137897682Y-74327298D01*
X137897679Y-74327300D01*
X137760642Y-74384062D01*
X137760641Y-74384062D01*
X137760639Y-74384063D01*
X137615165Y-74413000D01*
X137466835Y-74413000D01*
X137321361Y-74384063D01*
X137321359Y-74384062D01*
X137321358Y-74384062D01*
X137184321Y-74327300D01*
X137184318Y-74327298D01*
X137060993Y-74244895D01*
X136956105Y-74140007D01*
X136873702Y-74016682D01*
X136873700Y-74016679D01*
X136816938Y-73879642D01*
X136788000Y-73734164D01*
X136788000Y-73585836D01*
X136816938Y-73440358D01*
X136873700Y-73303321D01*
X136873702Y-73303318D01*
X136956105Y-73179993D01*
X137060993Y-73075105D01*
X137184318Y-72992702D01*
X137184321Y-72992700D01*
X137321358Y-72935938D01*
X137321359Y-72935938D01*
X137321361Y-72935937D01*
X137466835Y-72907000D01*
X137615165Y-72907000D01*
X137760639Y-72935937D01*
G37*
G36*
X135220639Y-72935937D02*
G01*
X135220641Y-72935938D01*
X135220642Y-72935938D01*
X135357679Y-72992700D01*
X135357682Y-72992702D01*
X135481007Y-73075105D01*
X135585895Y-73179993D01*
X135668298Y-73303318D01*
X135668300Y-73303321D01*
X135725062Y-73440358D01*
X135754000Y-73585836D01*
X135754000Y-73734164D01*
X135725062Y-73879642D01*
X135668300Y-74016679D01*
X135668298Y-74016682D01*
X135585895Y-74140007D01*
X135481007Y-74244895D01*
X135357682Y-74327298D01*
X135357679Y-74327300D01*
X135220642Y-74384062D01*
X135220641Y-74384062D01*
X135220639Y-74384063D01*
X135075165Y-74413000D01*
X134926835Y-74413000D01*
X134781361Y-74384063D01*
X134781359Y-74384062D01*
X134781358Y-74384062D01*
X134644321Y-74327300D01*
X134644318Y-74327298D01*
X134520993Y-74244895D01*
X134416105Y-74140007D01*
X134333702Y-74016682D01*
X134333700Y-74016679D01*
X134276938Y-73879642D01*
X134248000Y-73734164D01*
X134248000Y-73585836D01*
X134276938Y-73440358D01*
X134333700Y-73303321D01*
X134333702Y-73303318D01*
X134416105Y-73179993D01*
X134520993Y-73075105D01*
X134644318Y-72992702D01*
X134644321Y-72992700D01*
X134781358Y-72935938D01*
X134781359Y-72935938D01*
X134781361Y-72935937D01*
X134926835Y-72907000D01*
X135075165Y-72907000D01*
X135220639Y-72935937D01*
G37*
G36*
X145380639Y-72935937D02*
G01*
X145380641Y-72935938D01*
X145380642Y-72935938D01*
X145517679Y-72992700D01*
X145517682Y-72992702D01*
X145641007Y-73075105D01*
X145745895Y-73179993D01*
X145828298Y-73303318D01*
X145828300Y-73303321D01*
X145885062Y-73440358D01*
X145914000Y-73585836D01*
X145914000Y-73734164D01*
X145885062Y-73879642D01*
X145828300Y-74016679D01*
X145828298Y-74016682D01*
X145745895Y-74140007D01*
X145641007Y-74244895D01*
X145517682Y-74327298D01*
X145517679Y-74327300D01*
X145380642Y-74384062D01*
X145380641Y-74384062D01*
X145380639Y-74384063D01*
X145235165Y-74413000D01*
X145086835Y-74413000D01*
X144941361Y-74384063D01*
X144941359Y-74384062D01*
X144941358Y-74384062D01*
X144804321Y-74327300D01*
X144804318Y-74327298D01*
X144680993Y-74244895D01*
X144576105Y-74140007D01*
X144493702Y-74016682D01*
X144493700Y-74016679D01*
X144436938Y-73879642D01*
X144408000Y-73734164D01*
X144408000Y-73585836D01*
X144436938Y-73440358D01*
X144493700Y-73303321D01*
X144493702Y-73303318D01*
X144576105Y-73179993D01*
X144680993Y-73075105D01*
X144804318Y-72992702D01*
X144804321Y-72992700D01*
X144941358Y-72935938D01*
X144941359Y-72935938D01*
X144941361Y-72935937D01*
X145086835Y-72907000D01*
X145235165Y-72907000D01*
X145380639Y-72935937D01*
G37*
G36*
X150460639Y-72935937D02*
G01*
X150460641Y-72935938D01*
X150460642Y-72935938D01*
X150597679Y-72992700D01*
X150597682Y-72992702D01*
X150721007Y-73075105D01*
X150825895Y-73179993D01*
X150908298Y-73303318D01*
X150908300Y-73303321D01*
X150965062Y-73440358D01*
X150994000Y-73585836D01*
X150994000Y-73734164D01*
X150965062Y-73879642D01*
X150908300Y-74016679D01*
X150908298Y-74016682D01*
X150825895Y-74140007D01*
X150721007Y-74244895D01*
X150597682Y-74327298D01*
X150597679Y-74327300D01*
X150460642Y-74384062D01*
X150460641Y-74384062D01*
X150460639Y-74384063D01*
X150315165Y-74413000D01*
X150166835Y-74413000D01*
X150021361Y-74384063D01*
X150021359Y-74384062D01*
X150021358Y-74384062D01*
X149884321Y-74327300D01*
X149884318Y-74327298D01*
X149760993Y-74244895D01*
X149656105Y-74140007D01*
X149573702Y-74016682D01*
X149573700Y-74016679D01*
X149516938Y-73879642D01*
X149488000Y-73734164D01*
X149488000Y-73585836D01*
X149516938Y-73440358D01*
X149573700Y-73303321D01*
X149573702Y-73303318D01*
X149656105Y-73179993D01*
X149760993Y-73075105D01*
X149884318Y-72992702D01*
X149884321Y-72992700D01*
X150021358Y-72935938D01*
X150021359Y-72935938D01*
X150021361Y-72935937D01*
X150166835Y-72907000D01*
X150315165Y-72907000D01*
X150460639Y-72935937D01*
G37*
G36*
X153000639Y-72935937D02*
G01*
X153000641Y-72935938D01*
X153000642Y-72935938D01*
X153137679Y-72992700D01*
X153137682Y-72992702D01*
X153261007Y-73075105D01*
X153365895Y-73179993D01*
X153448298Y-73303318D01*
X153448300Y-73303321D01*
X153505062Y-73440358D01*
X153534000Y-73585836D01*
X153534000Y-73734164D01*
X153505062Y-73879642D01*
X153448300Y-74016679D01*
X153448298Y-74016682D01*
X153365895Y-74140007D01*
X153261007Y-74244895D01*
X153137682Y-74327298D01*
X153137679Y-74327300D01*
X153000642Y-74384062D01*
X153000641Y-74384062D01*
X153000639Y-74384063D01*
X152855165Y-74413000D01*
X152706835Y-74413000D01*
X152561361Y-74384063D01*
X152561359Y-74384062D01*
X152561358Y-74384062D01*
X152424321Y-74327300D01*
X152424318Y-74327298D01*
X152300993Y-74244895D01*
X152196105Y-74140007D01*
X152113702Y-74016682D01*
X152113700Y-74016679D01*
X152056938Y-73879642D01*
X152028000Y-73734164D01*
X152028000Y-73585836D01*
X152056938Y-73440358D01*
X152113700Y-73303321D01*
X152113702Y-73303318D01*
X152196105Y-73179993D01*
X152300993Y-73075105D01*
X152424318Y-72992702D01*
X152424321Y-72992700D01*
X152561358Y-72935938D01*
X152561359Y-72935938D01*
X152561361Y-72935937D01*
X152706835Y-72907000D01*
X152855165Y-72907000D01*
X153000639Y-72935937D01*
G37*
G36*
X147920639Y-72935937D02*
G01*
X147920641Y-72935938D01*
X147920642Y-72935938D01*
X148057679Y-72992700D01*
X148057682Y-72992702D01*
X148181007Y-73075105D01*
X148285895Y-73179993D01*
X148368298Y-73303318D01*
X148368300Y-73303321D01*
X148425062Y-73440358D01*
X148454000Y-73585836D01*
X148454000Y-73734164D01*
X148425062Y-73879642D01*
X148368300Y-74016679D01*
X148368298Y-74016682D01*
X148285895Y-74140007D01*
X148181007Y-74244895D01*
X148057682Y-74327298D01*
X148057679Y-74327300D01*
X147920642Y-74384062D01*
X147920641Y-74384062D01*
X147920639Y-74384063D01*
X147775165Y-74413000D01*
X147626835Y-74413000D01*
X147481361Y-74384063D01*
X147481359Y-74384062D01*
X147481358Y-74384062D01*
X147344321Y-74327300D01*
X147344318Y-74327298D01*
X147220993Y-74244895D01*
X147116105Y-74140007D01*
X147033702Y-74016682D01*
X147033700Y-74016679D01*
X146976938Y-73879642D01*
X146948000Y-73734164D01*
X146948000Y-73585836D01*
X146976938Y-73440358D01*
X147033700Y-73303321D01*
X147033702Y-73303318D01*
X147116105Y-73179993D01*
X147220993Y-73075105D01*
X147344318Y-72992702D01*
X147344321Y-72992700D01*
X147481358Y-72935938D01*
X147481359Y-72935938D01*
X147481361Y-72935937D01*
X147626835Y-72907000D01*
X147775165Y-72907000D01*
X147920639Y-72935937D01*
G37*
G36*
X132680639Y-72935937D02*
G01*
X132680641Y-72935938D01*
X132680642Y-72935938D01*
X132817679Y-72992700D01*
X132817682Y-72992702D01*
X132941007Y-73075105D01*
X133045895Y-73179993D01*
X133128298Y-73303318D01*
X133128300Y-73303321D01*
X133185062Y-73440358D01*
X133214000Y-73585836D01*
X133214000Y-73734164D01*
X133185062Y-73879642D01*
X133128300Y-74016679D01*
X133128298Y-74016682D01*
X133045895Y-74140007D01*
X132941007Y-74244895D01*
X132817682Y-74327298D01*
X132817679Y-74327300D01*
X132680642Y-74384062D01*
X132680641Y-74384062D01*
X132680639Y-74384063D01*
X132535165Y-74413000D01*
X132386835Y-74413000D01*
X132241361Y-74384063D01*
X132241359Y-74384062D01*
X132241358Y-74384062D01*
X132104321Y-74327300D01*
X132104318Y-74327298D01*
X131980993Y-74244895D01*
X131876105Y-74140007D01*
X131793702Y-74016682D01*
X131793700Y-74016679D01*
X131736938Y-73879642D01*
X131708000Y-73734164D01*
X131708000Y-73585836D01*
X131736938Y-73440358D01*
X131793700Y-73303321D01*
X131793702Y-73303318D01*
X131876105Y-73179993D01*
X131980993Y-73075105D01*
X132104318Y-72992702D01*
X132104321Y-72992700D01*
X132241358Y-72935938D01*
X132241359Y-72935938D01*
X132241361Y-72935937D01*
X132386835Y-72907000D01*
X132535165Y-72907000D01*
X132680639Y-72935937D01*
G37*
G36*
X130140639Y-72935937D02*
G01*
X130140641Y-72935938D01*
X130140642Y-72935938D01*
X130277679Y-72992700D01*
X130277682Y-72992702D01*
X130401007Y-73075105D01*
X130505895Y-73179993D01*
X130588298Y-73303318D01*
X130588300Y-73303321D01*
X130645062Y-73440358D01*
X130674000Y-73585836D01*
X130674000Y-73734164D01*
X130645062Y-73879642D01*
X130588300Y-74016679D01*
X130588298Y-74016682D01*
X130505895Y-74140007D01*
X130401007Y-74244895D01*
X130277682Y-74327298D01*
X130277679Y-74327300D01*
X130140642Y-74384062D01*
X130140641Y-74384062D01*
X130140639Y-74384063D01*
X129995165Y-74413000D01*
X129846835Y-74413000D01*
X129701361Y-74384063D01*
X129701359Y-74384062D01*
X129701358Y-74384062D01*
X129564321Y-74327300D01*
X129564318Y-74327298D01*
X129440993Y-74244895D01*
X129336105Y-74140007D01*
X129253702Y-74016682D01*
X129253700Y-74016679D01*
X129196938Y-73879642D01*
X129168000Y-73734164D01*
X129168000Y-73585836D01*
X129196938Y-73440358D01*
X129253700Y-73303321D01*
X129253702Y-73303318D01*
X129336105Y-73179993D01*
X129440993Y-73075105D01*
X129564318Y-72992702D01*
X129564321Y-72992700D01*
X129701358Y-72935938D01*
X129701359Y-72935938D01*
X129701361Y-72935937D01*
X129846835Y-72907000D01*
X129995165Y-72907000D01*
X130140639Y-72935937D01*
G37*
G36*
X125060639Y-72935937D02*
G01*
X125060641Y-72935938D01*
X125060642Y-72935938D01*
X125197679Y-72992700D01*
X125197682Y-72992702D01*
X125321007Y-73075105D01*
X125425895Y-73179993D01*
X125508298Y-73303318D01*
X125508300Y-73303321D01*
X125565062Y-73440358D01*
X125594000Y-73585836D01*
X125594000Y-73734164D01*
X125565062Y-73879642D01*
X125508300Y-74016679D01*
X125508298Y-74016682D01*
X125425895Y-74140007D01*
X125321007Y-74244895D01*
X125197682Y-74327298D01*
X125197679Y-74327300D01*
X125060642Y-74384062D01*
X125060641Y-74384062D01*
X125060639Y-74384063D01*
X124915165Y-74413000D01*
X124766835Y-74413000D01*
X124621361Y-74384063D01*
X124621359Y-74384062D01*
X124621358Y-74384062D01*
X124484321Y-74327300D01*
X124484318Y-74327298D01*
X124360993Y-74244895D01*
X124256105Y-74140007D01*
X124173702Y-74016682D01*
X124173700Y-74016679D01*
X124116938Y-73879642D01*
X124088000Y-73734164D01*
X124088000Y-73585836D01*
X124116938Y-73440358D01*
X124173700Y-73303321D01*
X124173702Y-73303318D01*
X124256105Y-73179993D01*
X124360993Y-73075105D01*
X124484318Y-72992702D01*
X124484321Y-72992700D01*
X124621358Y-72935938D01*
X124621359Y-72935938D01*
X124621361Y-72935937D01*
X124766835Y-72907000D01*
X124915165Y-72907000D01*
X125060639Y-72935937D01*
G37*
G36*
X122520639Y-72935937D02*
G01*
X122520641Y-72935938D01*
X122520642Y-72935938D01*
X122657679Y-72992700D01*
X122657682Y-72992702D01*
X122781007Y-73075105D01*
X122885895Y-73179993D01*
X122968298Y-73303318D01*
X122968300Y-73303321D01*
X123025062Y-73440358D01*
X123054000Y-73585836D01*
X123054000Y-73734164D01*
X123025062Y-73879642D01*
X122968300Y-74016679D01*
X122968298Y-74016682D01*
X122885895Y-74140007D01*
X122781007Y-74244895D01*
X122657682Y-74327298D01*
X122657679Y-74327300D01*
X122520642Y-74384062D01*
X122520641Y-74384062D01*
X122520639Y-74384063D01*
X122375165Y-74413000D01*
X122226835Y-74413000D01*
X122081361Y-74384063D01*
X122081359Y-74384062D01*
X122081358Y-74384062D01*
X121944321Y-74327300D01*
X121944318Y-74327298D01*
X121820993Y-74244895D01*
X121716105Y-74140007D01*
X121633702Y-74016682D01*
X121633700Y-74016679D01*
X121576938Y-73879642D01*
X121548000Y-73734164D01*
X121548000Y-73585836D01*
X121576938Y-73440358D01*
X121633700Y-73303321D01*
X121633702Y-73303318D01*
X121716105Y-73179993D01*
X121820993Y-73075105D01*
X121944318Y-72992702D01*
X121944321Y-72992700D01*
X122081358Y-72935938D01*
X122081359Y-72935938D01*
X122081361Y-72935937D01*
X122226835Y-72907000D01*
X122375165Y-72907000D01*
X122520639Y-72935937D01*
G37*
G36*
X127600639Y-72935937D02*
G01*
X127600641Y-72935938D01*
X127600642Y-72935938D01*
X127737679Y-72992700D01*
X127737682Y-72992702D01*
X127861007Y-73075105D01*
X127965895Y-73179993D01*
X128048298Y-73303318D01*
X128048300Y-73303321D01*
X128105062Y-73440358D01*
X128134000Y-73585836D01*
X128134000Y-73734164D01*
X128105062Y-73879642D01*
X128048300Y-74016679D01*
X128048298Y-74016682D01*
X127965895Y-74140007D01*
X127861007Y-74244895D01*
X127737682Y-74327298D01*
X127737679Y-74327300D01*
X127600642Y-74384062D01*
X127600641Y-74384062D01*
X127600639Y-74384063D01*
X127455165Y-74413000D01*
X127306835Y-74413000D01*
X127161361Y-74384063D01*
X127161359Y-74384062D01*
X127161358Y-74384062D01*
X127024321Y-74327300D01*
X127024318Y-74327298D01*
X126900993Y-74244895D01*
X126796105Y-74140007D01*
X126713702Y-74016682D01*
X126713700Y-74016679D01*
X126656938Y-73879642D01*
X126628000Y-73734164D01*
X126628000Y-73585836D01*
X126656938Y-73440358D01*
X126713700Y-73303321D01*
X126713702Y-73303318D01*
X126796105Y-73179993D01*
X126900993Y-73075105D01*
X127024318Y-72992702D01*
X127024321Y-72992700D01*
X127161358Y-72935938D01*
X127161359Y-72935938D01*
X127161361Y-72935937D01*
X127306835Y-72907000D01*
X127455165Y-72907000D01*
X127600639Y-72935937D01*
G37*
G36*
X150241617Y-69824420D02*
G01*
X150332403Y-69851960D01*
X150364335Y-69861646D01*
X150477424Y-69922094D01*
X150576554Y-70003447D01*
X150657906Y-70102575D01*
X150718354Y-70215664D01*
X150728040Y-70247596D01*
X150755580Y-70338382D01*
X150765000Y-70434027D01*
X150765000Y-71297973D01*
X150755580Y-71393618D01*
X150728040Y-71484404D01*
X150718354Y-71516336D01*
X150657906Y-71629425D01*
X150576554Y-71728554D01*
X150477425Y-71809906D01*
X150364336Y-71870354D01*
X150332404Y-71880040D01*
X150241618Y-71907580D01*
X150114000Y-71920149D01*
X149986383Y-71907580D01*
X149895597Y-71880040D01*
X149863665Y-71870354D01*
X149750576Y-71809906D01*
X149651447Y-71728554D01*
X149570095Y-71629425D01*
X149509647Y-71516336D01*
X149505282Y-71501946D01*
X149472420Y-71393618D01*
X149463000Y-71297973D01*
X149463000Y-70434028D01*
X149472420Y-70338383D01*
X149509645Y-70215669D01*
X149509646Y-70215665D01*
X149570094Y-70102576D01*
X149651447Y-70003446D01*
X149750575Y-69922094D01*
X149863664Y-69861646D01*
X149895596Y-69851960D01*
X149986382Y-69824420D01*
X150114000Y-69811851D01*
X150241617Y-69824420D01*
G37*
G36*
X155321617Y-69824420D02*
G01*
X155412403Y-69851960D01*
X155444335Y-69861646D01*
X155557424Y-69922094D01*
X155656554Y-70003447D01*
X155737906Y-70102575D01*
X155798354Y-70215664D01*
X155808040Y-70247596D01*
X155835580Y-70338382D01*
X155845000Y-70434027D01*
X155845000Y-71297973D01*
X155835580Y-71393618D01*
X155808040Y-71484404D01*
X155798354Y-71516336D01*
X155737906Y-71629425D01*
X155656554Y-71728554D01*
X155557425Y-71809906D01*
X155444336Y-71870354D01*
X155412404Y-71880040D01*
X155321618Y-71907580D01*
X155194000Y-71920149D01*
X155066383Y-71907580D01*
X154975597Y-71880040D01*
X154943665Y-71870354D01*
X154830576Y-71809906D01*
X154731447Y-71728554D01*
X154650095Y-71629425D01*
X154589647Y-71516336D01*
X154585282Y-71501946D01*
X154552420Y-71393618D01*
X154543000Y-71297973D01*
X154543000Y-70434028D01*
X154552420Y-70338383D01*
X154589645Y-70215669D01*
X154589646Y-70215665D01*
X154650094Y-70102576D01*
X154731447Y-70003446D01*
X154830575Y-69922094D01*
X154943664Y-69861646D01*
X154975596Y-69851960D01*
X155066382Y-69824420D01*
X155194000Y-69811851D01*
X155321617Y-69824420D01*
G37*
G36*
X145161617Y-69824420D02*
G01*
X145252403Y-69851960D01*
X145284335Y-69861646D01*
X145397424Y-69922094D01*
X145496554Y-70003447D01*
X145577906Y-70102575D01*
X145638354Y-70215664D01*
X145648040Y-70247596D01*
X145675580Y-70338382D01*
X145685000Y-70434027D01*
X145685000Y-71297973D01*
X145675580Y-71393618D01*
X145648040Y-71484404D01*
X145638354Y-71516336D01*
X145577906Y-71629425D01*
X145496554Y-71728554D01*
X145397425Y-71809906D01*
X145284336Y-71870354D01*
X145252404Y-71880040D01*
X145161618Y-71907580D01*
X145034000Y-71920149D01*
X144906383Y-71907580D01*
X144815597Y-71880040D01*
X144783665Y-71870354D01*
X144670576Y-71809906D01*
X144571447Y-71728554D01*
X144490095Y-71629425D01*
X144429647Y-71516336D01*
X144425282Y-71501946D01*
X144392420Y-71393618D01*
X144383000Y-71297973D01*
X144383000Y-70434028D01*
X144392420Y-70338383D01*
X144429645Y-70215669D01*
X144429646Y-70215665D01*
X144490094Y-70102576D01*
X144571447Y-70003446D01*
X144670575Y-69922094D01*
X144783664Y-69861646D01*
X144815596Y-69851960D01*
X144906382Y-69824420D01*
X145034000Y-69811851D01*
X145161617Y-69824420D01*
G37*
G36*
X147701617Y-69824420D02*
G01*
X147792403Y-69851960D01*
X147824335Y-69861646D01*
X147937424Y-69922094D01*
X148036554Y-70003447D01*
X148117906Y-70102575D01*
X148178354Y-70215664D01*
X148188040Y-70247596D01*
X148215580Y-70338382D01*
X148225000Y-70434027D01*
X148225000Y-71297973D01*
X148215580Y-71393618D01*
X148188040Y-71484404D01*
X148178354Y-71516336D01*
X148117906Y-71629425D01*
X148036554Y-71728554D01*
X147937425Y-71809906D01*
X147824336Y-71870354D01*
X147792404Y-71880040D01*
X147701618Y-71907580D01*
X147574000Y-71920149D01*
X147446383Y-71907580D01*
X147355597Y-71880040D01*
X147323665Y-71870354D01*
X147210576Y-71809906D01*
X147111447Y-71728554D01*
X147030095Y-71629425D01*
X146969647Y-71516336D01*
X146965282Y-71501946D01*
X146932420Y-71393618D01*
X146923000Y-71297973D01*
X146923000Y-70434028D01*
X146932420Y-70338383D01*
X146969645Y-70215669D01*
X146969646Y-70215665D01*
X147030094Y-70102576D01*
X147111447Y-70003446D01*
X147210575Y-69922094D01*
X147323664Y-69861646D01*
X147355596Y-69851960D01*
X147446382Y-69824420D01*
X147574000Y-69811851D01*
X147701617Y-69824420D01*
G37*
G36*
X142621617Y-69824420D02*
G01*
X142712403Y-69851960D01*
X142744335Y-69861646D01*
X142857424Y-69922094D01*
X142956554Y-70003447D01*
X143037906Y-70102575D01*
X143098354Y-70215664D01*
X143108040Y-70247596D01*
X143135580Y-70338382D01*
X143145000Y-70434027D01*
X143145000Y-71297973D01*
X143135580Y-71393618D01*
X143108040Y-71484404D01*
X143098354Y-71516336D01*
X143037906Y-71629425D01*
X142956554Y-71728554D01*
X142857425Y-71809906D01*
X142744336Y-71870354D01*
X142712404Y-71880040D01*
X142621618Y-71907580D01*
X142494000Y-71920149D01*
X142366383Y-71907580D01*
X142275597Y-71880040D01*
X142243665Y-71870354D01*
X142130576Y-71809906D01*
X142031447Y-71728554D01*
X141950095Y-71629425D01*
X141889647Y-71516336D01*
X141885282Y-71501946D01*
X141852420Y-71393618D01*
X141843000Y-71297973D01*
X141843000Y-70434028D01*
X141852420Y-70338383D01*
X141889645Y-70215669D01*
X141889646Y-70215665D01*
X141950094Y-70102576D01*
X142031447Y-70003446D01*
X142130575Y-69922094D01*
X142243664Y-69861646D01*
X142275596Y-69851960D01*
X142366382Y-69824420D01*
X142494000Y-69811851D01*
X142621617Y-69824420D01*
G37*
G36*
X152781617Y-69824420D02*
G01*
X152872403Y-69851960D01*
X152904335Y-69861646D01*
X153017424Y-69922094D01*
X153116554Y-70003447D01*
X153197906Y-70102575D01*
X153258354Y-70215664D01*
X153268040Y-70247596D01*
X153295580Y-70338382D01*
X153305000Y-70434027D01*
X153305000Y-71297973D01*
X153295580Y-71393618D01*
X153268040Y-71484404D01*
X153258354Y-71516336D01*
X153197906Y-71629425D01*
X153116554Y-71728554D01*
X153017425Y-71809906D01*
X152904336Y-71870354D01*
X152872404Y-71880040D01*
X152781618Y-71907580D01*
X152654000Y-71920149D01*
X152526383Y-71907580D01*
X152435597Y-71880040D01*
X152403665Y-71870354D01*
X152290576Y-71809906D01*
X152191447Y-71728554D01*
X152110095Y-71629425D01*
X152049647Y-71516336D01*
X152045282Y-71501946D01*
X152012420Y-71393618D01*
X152003000Y-71297973D01*
X152003000Y-70434028D01*
X152012420Y-70338383D01*
X152049645Y-70215669D01*
X152049646Y-70215665D01*
X152110094Y-70102576D01*
X152191447Y-70003446D01*
X152290575Y-69922094D01*
X152403664Y-69861646D01*
X152435596Y-69851960D01*
X152526382Y-69824420D01*
X152654000Y-69811851D01*
X152781617Y-69824420D01*
G37*
G36*
X140081617Y-69824420D02*
G01*
X140172403Y-69851960D01*
X140204335Y-69861646D01*
X140317424Y-69922094D01*
X140416554Y-70003447D01*
X140497906Y-70102575D01*
X140558354Y-70215664D01*
X140568040Y-70247596D01*
X140595580Y-70338382D01*
X140605000Y-70434027D01*
X140605000Y-71297973D01*
X140595580Y-71393618D01*
X140568040Y-71484404D01*
X140558354Y-71516336D01*
X140497906Y-71629425D01*
X140416554Y-71728554D01*
X140317425Y-71809906D01*
X140204336Y-71870354D01*
X140172404Y-71880040D01*
X140081618Y-71907580D01*
X139954000Y-71920149D01*
X139826383Y-71907580D01*
X139735597Y-71880040D01*
X139703665Y-71870354D01*
X139590576Y-71809906D01*
X139491447Y-71728554D01*
X139410095Y-71629425D01*
X139349647Y-71516336D01*
X139345282Y-71501946D01*
X139312420Y-71393618D01*
X139303000Y-71297973D01*
X139303000Y-70434028D01*
X139312420Y-70338383D01*
X139349645Y-70215669D01*
X139349646Y-70215665D01*
X139410094Y-70102576D01*
X139491447Y-70003446D01*
X139590575Y-69922094D01*
X139703664Y-69861646D01*
X139735596Y-69851960D01*
X139826382Y-69824420D01*
X139954000Y-69811851D01*
X140081617Y-69824420D01*
G37*
G36*
X137541617Y-69824420D02*
G01*
X137632403Y-69851960D01*
X137664335Y-69861646D01*
X137777424Y-69922094D01*
X137876554Y-70003447D01*
X137957906Y-70102575D01*
X138018354Y-70215664D01*
X138028040Y-70247596D01*
X138055580Y-70338382D01*
X138065000Y-70434027D01*
X138065000Y-71297973D01*
X138055580Y-71393618D01*
X138028040Y-71484404D01*
X138018354Y-71516336D01*
X137957906Y-71629425D01*
X137876554Y-71728554D01*
X137777425Y-71809906D01*
X137664336Y-71870354D01*
X137632404Y-71880040D01*
X137541618Y-71907580D01*
X137414000Y-71920149D01*
X137286383Y-71907580D01*
X137195597Y-71880040D01*
X137163665Y-71870354D01*
X137050576Y-71809906D01*
X136951447Y-71728554D01*
X136870095Y-71629425D01*
X136809647Y-71516336D01*
X136805282Y-71501946D01*
X136772420Y-71393618D01*
X136763000Y-71297973D01*
X136763000Y-70434028D01*
X136772420Y-70338383D01*
X136809645Y-70215669D01*
X136809646Y-70215665D01*
X136870094Y-70102576D01*
X136951447Y-70003446D01*
X137050575Y-69922094D01*
X137163664Y-69861646D01*
X137195596Y-69851960D01*
X137286382Y-69824420D01*
X137414000Y-69811851D01*
X137541617Y-69824420D01*
G37*
G36*
X123814032Y-66208259D02*
G01*
X123925579Y-66230447D01*
X124226042Y-66354903D01*
X124496451Y-66535585D01*
X124726415Y-66765549D01*
X124907097Y-67035958D01*
X125025433Y-67321645D01*
X125031553Y-67336422D01*
X125095000Y-67655389D01*
X125095000Y-67980611D01*
X125031553Y-68299578D01*
X124913508Y-68584566D01*
X124907097Y-68600042D01*
X124726415Y-68870451D01*
X124496451Y-69100415D01*
X124226042Y-69281097D01*
X123925579Y-69405553D01*
X123819256Y-69426702D01*
X123606611Y-69469000D01*
X123281389Y-69469000D01*
X123068744Y-69426702D01*
X122962421Y-69405553D01*
X122661958Y-69281097D01*
X122391549Y-69100415D01*
X122161585Y-68870451D01*
X121980903Y-68600042D01*
X121974493Y-68584566D01*
X121856447Y-68299578D01*
X121793000Y-67980611D01*
X121793000Y-67655389D01*
X121856447Y-67336422D01*
X121862568Y-67321645D01*
X121980903Y-67035958D01*
X122161585Y-66765549D01*
X122391549Y-66535585D01*
X122661958Y-66354903D01*
X122962421Y-66230447D01*
X123073968Y-66208259D01*
X123281389Y-66167000D01*
X123606611Y-66167000D01*
X123814032Y-66208259D01*
G37*
G36*
X147701617Y-67284420D02*
G01*
X147792403Y-67311960D01*
X147824335Y-67321646D01*
X147937424Y-67382094D01*
X148036554Y-67463447D01*
X148117906Y-67562575D01*
X148178354Y-67675664D01*
X148188040Y-67707596D01*
X148215580Y-67798382D01*
X148225000Y-67894027D01*
X148225000Y-68757973D01*
X148215580Y-68853618D01*
X148188040Y-68944404D01*
X148178354Y-68976336D01*
X148117906Y-69089425D01*
X148036554Y-69188554D01*
X147937425Y-69269906D01*
X147824336Y-69330354D01*
X147792404Y-69340040D01*
X147701618Y-69367580D01*
X147574000Y-69380149D01*
X147446383Y-69367580D01*
X147355597Y-69340040D01*
X147323665Y-69330354D01*
X147210576Y-69269906D01*
X147111447Y-69188554D01*
X147030095Y-69089425D01*
X146969647Y-68976336D01*
X146965282Y-68961946D01*
X146932420Y-68853618D01*
X146923000Y-68757973D01*
X146923000Y-67894028D01*
X146932420Y-67798383D01*
X146969645Y-67675669D01*
X146969646Y-67675665D01*
X147030094Y-67562576D01*
X147111447Y-67463446D01*
X147210575Y-67382094D01*
X147323664Y-67321646D01*
X147355596Y-67311960D01*
X147446382Y-67284420D01*
X147574000Y-67271851D01*
X147701617Y-67284420D01*
G37*
G36*
X142621617Y-67284420D02*
G01*
X142712403Y-67311960D01*
X142744335Y-67321646D01*
X142857424Y-67382094D01*
X142956554Y-67463447D01*
X143037906Y-67562575D01*
X143098354Y-67675664D01*
X143108040Y-67707596D01*
X143135580Y-67798382D01*
X143145000Y-67894027D01*
X143145000Y-68757973D01*
X143135580Y-68853618D01*
X143108040Y-68944404D01*
X143098354Y-68976336D01*
X143037906Y-69089425D01*
X142956554Y-69188554D01*
X142857425Y-69269906D01*
X142744336Y-69330354D01*
X142712404Y-69340040D01*
X142621618Y-69367580D01*
X142494000Y-69380149D01*
X142366383Y-69367580D01*
X142275597Y-69340040D01*
X142243665Y-69330354D01*
X142130576Y-69269906D01*
X142031447Y-69188554D01*
X141950095Y-69089425D01*
X141889647Y-68976336D01*
X141885282Y-68961946D01*
X141852420Y-68853618D01*
X141843000Y-68757973D01*
X141843000Y-67894028D01*
X141852420Y-67798383D01*
X141889645Y-67675669D01*
X141889646Y-67675665D01*
X141950094Y-67562576D01*
X142031447Y-67463446D01*
X142130575Y-67382094D01*
X142243664Y-67321646D01*
X142275596Y-67311960D01*
X142366382Y-67284420D01*
X142494000Y-67271851D01*
X142621617Y-67284420D01*
G37*
G36*
X155321617Y-67284420D02*
G01*
X155412403Y-67311960D01*
X155444335Y-67321646D01*
X155557424Y-67382094D01*
X155656554Y-67463447D01*
X155737906Y-67562575D01*
X155798354Y-67675664D01*
X155808040Y-67707596D01*
X155835580Y-67798382D01*
X155845000Y-67894027D01*
X155845000Y-68757973D01*
X155835580Y-68853618D01*
X155808040Y-68944404D01*
X155798354Y-68976336D01*
X155737906Y-69089425D01*
X155656554Y-69188554D01*
X155557425Y-69269906D01*
X155444336Y-69330354D01*
X155412404Y-69340040D01*
X155321618Y-69367580D01*
X155194000Y-69380149D01*
X155066383Y-69367580D01*
X154975597Y-69340040D01*
X154943665Y-69330354D01*
X154830576Y-69269906D01*
X154731447Y-69188554D01*
X154650095Y-69089425D01*
X154589647Y-68976336D01*
X154585282Y-68961946D01*
X154552420Y-68853618D01*
X154543000Y-68757973D01*
X154543000Y-67894028D01*
X154552420Y-67798383D01*
X154589645Y-67675669D01*
X154589646Y-67675665D01*
X154650094Y-67562576D01*
X154731447Y-67463446D01*
X154830575Y-67382094D01*
X154943664Y-67321646D01*
X154975596Y-67311960D01*
X155066382Y-67284420D01*
X155194000Y-67271851D01*
X155321617Y-67284420D01*
G37*
G36*
X152781617Y-67284420D02*
G01*
X152872403Y-67311960D01*
X152904335Y-67321646D01*
X153017424Y-67382094D01*
X153116554Y-67463447D01*
X153197906Y-67562575D01*
X153258354Y-67675664D01*
X153268040Y-67707596D01*
X153295580Y-67798382D01*
X153305000Y-67894027D01*
X153305000Y-68757973D01*
X153295580Y-68853618D01*
X153268040Y-68944404D01*
X153258354Y-68976336D01*
X153197906Y-69089425D01*
X153116554Y-69188554D01*
X153017425Y-69269906D01*
X152904336Y-69330354D01*
X152872404Y-69340040D01*
X152781618Y-69367580D01*
X152654000Y-69380149D01*
X152526383Y-69367580D01*
X152435597Y-69340040D01*
X152403665Y-69330354D01*
X152290576Y-69269906D01*
X152191447Y-69188554D01*
X152110095Y-69089425D01*
X152049647Y-68976336D01*
X152045282Y-68961946D01*
X152012420Y-68853618D01*
X152003000Y-68757973D01*
X152003000Y-67894028D01*
X152012420Y-67798383D01*
X152049645Y-67675669D01*
X152049646Y-67675665D01*
X152110094Y-67562576D01*
X152191447Y-67463446D01*
X152290575Y-67382094D01*
X152403664Y-67321646D01*
X152435596Y-67311960D01*
X152526382Y-67284420D01*
X152654000Y-67271851D01*
X152781617Y-67284420D01*
G37*
G36*
X150241617Y-67284420D02*
G01*
X150332403Y-67311960D01*
X150364335Y-67321646D01*
X150477424Y-67382094D01*
X150576554Y-67463447D01*
X150657906Y-67562575D01*
X150718354Y-67675664D01*
X150728040Y-67707596D01*
X150755580Y-67798382D01*
X150765000Y-67894027D01*
X150765000Y-68757973D01*
X150755580Y-68853618D01*
X150728040Y-68944404D01*
X150718354Y-68976336D01*
X150657906Y-69089425D01*
X150576554Y-69188554D01*
X150477425Y-69269906D01*
X150364336Y-69330354D01*
X150332404Y-69340040D01*
X150241618Y-69367580D01*
X150114000Y-69380149D01*
X149986383Y-69367580D01*
X149895597Y-69340040D01*
X149863665Y-69330354D01*
X149750576Y-69269906D01*
X149651447Y-69188554D01*
X149570095Y-69089425D01*
X149509647Y-68976336D01*
X149505282Y-68961946D01*
X149472420Y-68853618D01*
X149463000Y-68757973D01*
X149463000Y-67894028D01*
X149472420Y-67798383D01*
X149509645Y-67675669D01*
X149509646Y-67675665D01*
X149570094Y-67562576D01*
X149651447Y-67463446D01*
X149750575Y-67382094D01*
X149863664Y-67321646D01*
X149895596Y-67311960D01*
X149986382Y-67284420D01*
X150114000Y-67271851D01*
X150241617Y-67284420D01*
G37*
G36*
X137541617Y-67284420D02*
G01*
X137632403Y-67311960D01*
X137664335Y-67321646D01*
X137777424Y-67382094D01*
X137876554Y-67463447D01*
X137957906Y-67562575D01*
X138018354Y-67675664D01*
X138028040Y-67707596D01*
X138055580Y-67798382D01*
X138065000Y-67894027D01*
X138065000Y-68757973D01*
X138055580Y-68853618D01*
X138028040Y-68944404D01*
X138018354Y-68976336D01*
X137957906Y-69089425D01*
X137876554Y-69188554D01*
X137777425Y-69269906D01*
X137664336Y-69330354D01*
X137632404Y-69340040D01*
X137541618Y-69367580D01*
X137414000Y-69380149D01*
X137286383Y-69367580D01*
X137195597Y-69340040D01*
X137163665Y-69330354D01*
X137050576Y-69269906D01*
X136951447Y-69188554D01*
X136870095Y-69089425D01*
X136809647Y-68976336D01*
X136805282Y-68961946D01*
X136772420Y-68853618D01*
X136763000Y-68757973D01*
X136763000Y-67894028D01*
X136772420Y-67798383D01*
X136809645Y-67675669D01*
X136809646Y-67675665D01*
X136870094Y-67562576D01*
X136951447Y-67463446D01*
X137050575Y-67382094D01*
X137163664Y-67321646D01*
X137195596Y-67311960D01*
X137286382Y-67284420D01*
X137414000Y-67271851D01*
X137541617Y-67284420D01*
G37*
G36*
X140081617Y-67284420D02*
G01*
X140172403Y-67311960D01*
X140204335Y-67321646D01*
X140317424Y-67382094D01*
X140416554Y-67463447D01*
X140497906Y-67562575D01*
X140558354Y-67675664D01*
X140568040Y-67707596D01*
X140595580Y-67798382D01*
X140605000Y-67894027D01*
X140605000Y-68757973D01*
X140595580Y-68853618D01*
X140568040Y-68944404D01*
X140558354Y-68976336D01*
X140497906Y-69089425D01*
X140416554Y-69188554D01*
X140317425Y-69269906D01*
X140204336Y-69330354D01*
X140172404Y-69340040D01*
X140081618Y-69367580D01*
X139954000Y-69380149D01*
X139826383Y-69367580D01*
X139735597Y-69340040D01*
X139703665Y-69330354D01*
X139590576Y-69269906D01*
X139491447Y-69188554D01*
X139410095Y-69089425D01*
X139349647Y-68976336D01*
X139345282Y-68961946D01*
X139312420Y-68853618D01*
X139303000Y-68757973D01*
X139303000Y-67894028D01*
X139312420Y-67798383D01*
X139349645Y-67675669D01*
X139349646Y-67675665D01*
X139410094Y-67562576D01*
X139491447Y-67463446D01*
X139590575Y-67382094D01*
X139703664Y-67321646D01*
X139735596Y-67311960D01*
X139826382Y-67284420D01*
X139954000Y-67271851D01*
X140081617Y-67284420D01*
G37*
G36*
X145161617Y-67284420D02*
G01*
X145252403Y-67311960D01*
X145284335Y-67321646D01*
X145397424Y-67382094D01*
X145496554Y-67463447D01*
X145577906Y-67562575D01*
X145638354Y-67675664D01*
X145648040Y-67707596D01*
X145675580Y-67798382D01*
X145685000Y-67894027D01*
X145685000Y-68757973D01*
X145675580Y-68853618D01*
X145648040Y-68944404D01*
X145638354Y-68976336D01*
X145577906Y-69089425D01*
X145496554Y-69188554D01*
X145397425Y-69269906D01*
X145284336Y-69330354D01*
X145252404Y-69340040D01*
X145161618Y-69367580D01*
X145034000Y-69380149D01*
X144906383Y-69367580D01*
X144815597Y-69340040D01*
X144783665Y-69330354D01*
X144670576Y-69269906D01*
X144571447Y-69188554D01*
X144490095Y-69089425D01*
X144429647Y-68976336D01*
X144425282Y-68961946D01*
X144392420Y-68853618D01*
X144383000Y-68757973D01*
X144383000Y-67894028D01*
X144392420Y-67798383D01*
X144429645Y-67675669D01*
X144429646Y-67675665D01*
X144490094Y-67562576D01*
X144571447Y-67463446D01*
X144670575Y-67382094D01*
X144783664Y-67321646D01*
X144815596Y-67311960D01*
X144906382Y-67284420D01*
X145034000Y-67271851D01*
X145161617Y-67284420D01*
G37*
G36*
X127861595Y-66827346D02*
G01*
X128034666Y-66899034D01*
X128034667Y-66899035D01*
X128190427Y-67003110D01*
X128322890Y-67135573D01*
X128322891Y-67135575D01*
X128426966Y-67291334D01*
X128498654Y-67464405D01*
X128535200Y-67648133D01*
X128535200Y-67835467D01*
X128498654Y-68019195D01*
X128426966Y-68192266D01*
X128426965Y-68192267D01*
X128322890Y-68348027D01*
X128190427Y-68480490D01*
X128112018Y-68532881D01*
X128034666Y-68584566D01*
X127861595Y-68656254D01*
X127677867Y-68692800D01*
X127490533Y-68692800D01*
X127306805Y-68656254D01*
X127133734Y-68584566D01*
X127056382Y-68532881D01*
X126977973Y-68480490D01*
X126845510Y-68348027D01*
X126741435Y-68192267D01*
X126741434Y-68192266D01*
X126669746Y-68019195D01*
X126633200Y-67835467D01*
X126633200Y-67648133D01*
X126669746Y-67464405D01*
X126741434Y-67291334D01*
X126845509Y-67135575D01*
X126845510Y-67135573D01*
X126977973Y-67003110D01*
X127133733Y-66899035D01*
X127133734Y-66899034D01*
X127306805Y-66827346D01*
X127490533Y-66790800D01*
X127677867Y-66790800D01*
X127861595Y-66827346D01*
G37*
G36*
X137658459Y-65267060D02*
G01*
X137795132Y-65323672D01*
X137918135Y-65405860D01*
X138022740Y-65510465D01*
X138104928Y-65633468D01*
X138161540Y-65770141D01*
X138190400Y-65915233D01*
X138190400Y-66063167D01*
X138161540Y-66208259D01*
X138104928Y-66344932D01*
X138022740Y-66467935D01*
X137918135Y-66572540D01*
X137795132Y-66654728D01*
X137795131Y-66654729D01*
X137795130Y-66654729D01*
X137658459Y-66711340D01*
X137513368Y-66740200D01*
X137365432Y-66740200D01*
X137220341Y-66711340D01*
X137083670Y-66654729D01*
X137083669Y-66654729D01*
X137083668Y-66654728D01*
X136960665Y-66572540D01*
X136856060Y-66467935D01*
X136773872Y-66344932D01*
X136717260Y-66208259D01*
X136688400Y-66063167D01*
X136688400Y-65915233D01*
X136717260Y-65770141D01*
X136773872Y-65633468D01*
X136856060Y-65510465D01*
X136960665Y-65405860D01*
X137083668Y-65323672D01*
X137220341Y-65267060D01*
X137365432Y-65238200D01*
X137513368Y-65238200D01*
X137658459Y-65267060D01*
G37*
G36*
X130038459Y-65267060D02*
G01*
X130175132Y-65323672D01*
X130298135Y-65405860D01*
X130402740Y-65510465D01*
X130484928Y-65633468D01*
X130541540Y-65770141D01*
X130570400Y-65915233D01*
X130570400Y-66063167D01*
X130541540Y-66208259D01*
X130484928Y-66344932D01*
X130402740Y-66467935D01*
X130298135Y-66572540D01*
X130175132Y-66654728D01*
X130175131Y-66654729D01*
X130175130Y-66654729D01*
X130038459Y-66711340D01*
X129893368Y-66740200D01*
X129745432Y-66740200D01*
X129600341Y-66711340D01*
X129463670Y-66654729D01*
X129463669Y-66654729D01*
X129463668Y-66654728D01*
X129340665Y-66572540D01*
X129236060Y-66467935D01*
X129153872Y-66344932D01*
X129097260Y-66208259D01*
X129068400Y-66063167D01*
X129068400Y-65915233D01*
X129097260Y-65770141D01*
X129153872Y-65633468D01*
X129236060Y-65510465D01*
X129340665Y-65405860D01*
X129463668Y-65323672D01*
X129600341Y-65267060D01*
X129745432Y-65238200D01*
X129893368Y-65238200D01*
X130038459Y-65267060D01*
G37*
G36*
X128535200Y-66152800D02*
G01*
X126633200Y-66152800D01*
X126633200Y-64250800D01*
X128535200Y-64250800D01*
X128535200Y-66152800D01*
G37*
G36*
X132800487Y-61874996D02*
G01*
X133037253Y-61973068D01*
X133037255Y-61973069D01*
X133250339Y-62115447D01*
X133431553Y-62296661D01*
X133536331Y-62453472D01*
X133573932Y-62509747D01*
X133672004Y-62746513D01*
X133722000Y-62997861D01*
X133722000Y-63254139D01*
X133672004Y-63505487D01*
X133590464Y-63702341D01*
X133573931Y-63742255D01*
X133431553Y-63955339D01*
X133250339Y-64136553D01*
X133037255Y-64278931D01*
X133037254Y-64278932D01*
X133037253Y-64278932D01*
X132800487Y-64377004D01*
X132549139Y-64427000D01*
X132292861Y-64427000D01*
X132041513Y-64377004D01*
X131804747Y-64278932D01*
X131804746Y-64278932D01*
X131804745Y-64278931D01*
X131591661Y-64136553D01*
X131410447Y-63955339D01*
X131268069Y-63742255D01*
X131251536Y-63702341D01*
X131169996Y-63505487D01*
X131120000Y-63254139D01*
X131120000Y-62997861D01*
X131169996Y-62746513D01*
X131268068Y-62509747D01*
X131305670Y-62453472D01*
X131410447Y-62296661D01*
X131591661Y-62115447D01*
X131804745Y-61973069D01*
X131804747Y-61973068D01*
X132041513Y-61874996D01*
X132292861Y-61825000D01*
X132549139Y-61825000D01*
X132800487Y-61874996D01*
G37*
G36*
X152394256Y-60875298D02*
G01*
X152500579Y-60896447D01*
X152713037Y-60984450D01*
X152787627Y-61015346D01*
X152801042Y-61020903D01*
X153071451Y-61201585D01*
X153301415Y-61431549D01*
X153482097Y-61701958D01*
X153606553Y-62002421D01*
X153670000Y-62321391D01*
X153670000Y-62646609D01*
X153606553Y-62965579D01*
X153573642Y-63045032D01*
X153487028Y-63254139D01*
X153482097Y-63266042D01*
X153301415Y-63536451D01*
X153071451Y-63766415D01*
X152801042Y-63947097D01*
X152500579Y-64071553D01*
X152394256Y-64092702D01*
X152181611Y-64135000D01*
X151856389Y-64135000D01*
X151643744Y-64092702D01*
X151537421Y-64071553D01*
X151236958Y-63947097D01*
X150966549Y-63766415D01*
X150736585Y-63536451D01*
X150555903Y-63266042D01*
X150550973Y-63254139D01*
X150464358Y-63045032D01*
X150431447Y-62965579D01*
X150368000Y-62646609D01*
X150368000Y-62321391D01*
X150431447Y-62002421D01*
X150555903Y-61701958D01*
X150736585Y-61431549D01*
X150966549Y-61201585D01*
X151236958Y-61020903D01*
X151250374Y-61015346D01*
X151324963Y-60984450D01*
X151537421Y-60896447D01*
X151643744Y-60875298D01*
X151856389Y-60833000D01*
X152181611Y-60833000D01*
X152394256Y-60875298D01*
G37*
G36*
X145761059Y-62396860D02*
G01*
X145897732Y-62453472D01*
X146020735Y-62535660D01*
X146125340Y-62640265D01*
X146207528Y-62763268D01*
X146207529Y-62763270D01*
X146264140Y-62899941D01*
X146283618Y-62997863D01*
X146293000Y-63045033D01*
X146293000Y-63192967D01*
X146264140Y-63338059D01*
X146207528Y-63474732D01*
X146125340Y-63597735D01*
X146020735Y-63702340D01*
X145897732Y-63784528D01*
X145897731Y-63784529D01*
X145897730Y-63784529D01*
X145761059Y-63841140D01*
X145615968Y-63870000D01*
X145468032Y-63870000D01*
X145322941Y-63841140D01*
X145186270Y-63784529D01*
X145186269Y-63784529D01*
X145186268Y-63784528D01*
X145063265Y-63702340D01*
X144958660Y-63597735D01*
X144876472Y-63474732D01*
X144819860Y-63338059D01*
X144791000Y-63192967D01*
X144791000Y-63045033D01*
X144800383Y-62997863D01*
X144819860Y-62899941D01*
X144876471Y-62763270D01*
X144876472Y-62763268D01*
X144958660Y-62640265D01*
X145063265Y-62535660D01*
X145186268Y-62453472D01*
X145322941Y-62396860D01*
X145468032Y-62368000D01*
X145615968Y-62368000D01*
X145761059Y-62396860D01*
G37*
G36*
X138141059Y-62396860D02*
G01*
X138277732Y-62453472D01*
X138400735Y-62535660D01*
X138505340Y-62640265D01*
X138587528Y-62763268D01*
X138587529Y-62763270D01*
X138644140Y-62899941D01*
X138663618Y-62997863D01*
X138673000Y-63045033D01*
X138673000Y-63192967D01*
X138644140Y-63338059D01*
X138587528Y-63474732D01*
X138505340Y-63597735D01*
X138400735Y-63702340D01*
X138277732Y-63784528D01*
X138277731Y-63784529D01*
X138277730Y-63784529D01*
X138141059Y-63841140D01*
X137995968Y-63870000D01*
X137848032Y-63870000D01*
X137702941Y-63841140D01*
X137566270Y-63784529D01*
X137566269Y-63784529D01*
X137566268Y-63784528D01*
X137443265Y-63702340D01*
X137338660Y-63597735D01*
X137256472Y-63474732D01*
X137199860Y-63338059D01*
X137171000Y-63192967D01*
X137171000Y-63045033D01*
X137180383Y-62997863D01*
X137199860Y-62899941D01*
X137256471Y-62763270D01*
X137256472Y-62763268D01*
X137338660Y-62640265D01*
X137443265Y-62535660D01*
X137566268Y-62453472D01*
X137702941Y-62396860D01*
X137848032Y-62368000D01*
X137995968Y-62368000D01*
X138141059Y-62396860D01*
G37*
G36*
X135300487Y-59374996D02*
G01*
X135532562Y-59471125D01*
X135537255Y-59473069D01*
X135750339Y-59615447D01*
X135931553Y-59796661D01*
X136064520Y-59995660D01*
X136073932Y-60009747D01*
X136172004Y-60246513D01*
X136222000Y-60497861D01*
X136222000Y-60754139D01*
X136172004Y-61005487D01*
X136090777Y-61201585D01*
X136073931Y-61242255D01*
X135931553Y-61455339D01*
X135750339Y-61636553D01*
X135537255Y-61778931D01*
X135537254Y-61778932D01*
X135537253Y-61778932D01*
X135300487Y-61877004D01*
X135049139Y-61927000D01*
X134792861Y-61927000D01*
X134541513Y-61877004D01*
X134304747Y-61778932D01*
X134304746Y-61778932D01*
X134304745Y-61778931D01*
X134091661Y-61636553D01*
X133910447Y-61455339D01*
X133768069Y-61242255D01*
X133751223Y-61201585D01*
X133669996Y-61005487D01*
X133620000Y-60754139D01*
X133620000Y-60497861D01*
X133669996Y-60246513D01*
X133768068Y-60009747D01*
X133777481Y-59995660D01*
X133910447Y-59796661D01*
X134091661Y-59615447D01*
X134304745Y-59473069D01*
X134309438Y-59471125D01*
X134541513Y-59374996D01*
X134792861Y-59325000D01*
X135049139Y-59325000D01*
X135300487Y-59374996D01*
G37*
G36*
X122578023Y-59486590D02*
G01*
X122678682Y-59517125D01*
X122729013Y-59532392D01*
X122868165Y-59606771D01*
X122990133Y-59706867D01*
X123090229Y-59828835D01*
X123164608Y-59967987D01*
X123179875Y-60018318D01*
X123210410Y-60118977D01*
X123222000Y-60236655D01*
X123222000Y-61015345D01*
X123210410Y-61133023D01*
X123201516Y-61162341D01*
X123164608Y-61284013D01*
X123155453Y-61301140D01*
X123090229Y-61423165D01*
X122990133Y-61545133D01*
X122878736Y-61636553D01*
X122868164Y-61645229D01*
X122729012Y-61719608D01*
X122678681Y-61734875D01*
X122578022Y-61765410D01*
X122421000Y-61780875D01*
X122263977Y-61765410D01*
X122163318Y-61734875D01*
X122112987Y-61719608D01*
X121973835Y-61645229D01*
X121963263Y-61636553D01*
X121851867Y-61545133D01*
X121751771Y-61423164D01*
X121677392Y-61284012D01*
X121662125Y-61233681D01*
X121631590Y-61133022D01*
X121623863Y-61054570D01*
X121620000Y-61015345D01*
X121620000Y-60236654D01*
X121631590Y-60118979D01*
X121631590Y-60118977D01*
X121664726Y-60009745D01*
X121677393Y-59967987D01*
X121751772Y-59828835D01*
X121851868Y-59706867D01*
X121973836Y-59606771D01*
X122112988Y-59532392D01*
X122163319Y-59517125D01*
X122263978Y-59486590D01*
X122421000Y-59471125D01*
X122578023Y-59486590D01*
G37*
G36*
X138141059Y-59856860D02*
G01*
X138277732Y-59913472D01*
X138400735Y-59995660D01*
X138505340Y-60100265D01*
X138505341Y-60100267D01*
X138587529Y-60223270D01*
X138644140Y-60359941D01*
X138673000Y-60505032D01*
X138673000Y-60652968D01*
X138652876Y-60754139D01*
X138644140Y-60798059D01*
X138587528Y-60934732D01*
X138505340Y-61057735D01*
X138400735Y-61162340D01*
X138277732Y-61244528D01*
X138277731Y-61244529D01*
X138277730Y-61244529D01*
X138141059Y-61301140D01*
X137995968Y-61330000D01*
X137848032Y-61330000D01*
X137702941Y-61301140D01*
X137566270Y-61244529D01*
X137566269Y-61244529D01*
X137566268Y-61244528D01*
X137443265Y-61162340D01*
X137338660Y-61057735D01*
X137256472Y-60934732D01*
X137199860Y-60798059D01*
X137191124Y-60754139D01*
X137171000Y-60652968D01*
X137171000Y-60505032D01*
X137199860Y-60359941D01*
X137256471Y-60223270D01*
X137338659Y-60100267D01*
X137338660Y-60100265D01*
X137443265Y-59995660D01*
X137566268Y-59913472D01*
X137702941Y-59856860D01*
X137848032Y-59828000D01*
X137995968Y-59828000D01*
X138141059Y-59856860D01*
G37*
G36*
X145761059Y-59856860D02*
G01*
X145897732Y-59913472D01*
X146020735Y-59995660D01*
X146125340Y-60100265D01*
X146125341Y-60100267D01*
X146207529Y-60223270D01*
X146264140Y-60359941D01*
X146293000Y-60505032D01*
X146293000Y-60652968D01*
X146272876Y-60754139D01*
X146264140Y-60798059D01*
X146207528Y-60934732D01*
X146125340Y-61057735D01*
X146020735Y-61162340D01*
X145897732Y-61244528D01*
X145897731Y-61244529D01*
X145897730Y-61244529D01*
X145761059Y-61301140D01*
X145615968Y-61330000D01*
X145468032Y-61330000D01*
X145322941Y-61301140D01*
X145186270Y-61244529D01*
X145186269Y-61244529D01*
X145186268Y-61244528D01*
X145063265Y-61162340D01*
X144958660Y-61057735D01*
X144876472Y-60934732D01*
X144819860Y-60798059D01*
X144811124Y-60754139D01*
X144791000Y-60652968D01*
X144791000Y-60505032D01*
X144819860Y-60359941D01*
X144876471Y-60223270D01*
X144958659Y-60100267D01*
X144958660Y-60100265D01*
X145063265Y-59995660D01*
X145186268Y-59913472D01*
X145322941Y-59856860D01*
X145468032Y-59828000D01*
X145615968Y-59828000D01*
X145761059Y-59856860D01*
G37*
G36*
X138551228Y-57220703D02*
G01*
X138706100Y-57284853D01*
X138845481Y-57377985D01*
X138964015Y-57496519D01*
X139057147Y-57635900D01*
X139121297Y-57790772D01*
X139154000Y-57955184D01*
X139154000Y-58122816D01*
X139121297Y-58287228D01*
X139057147Y-58442100D01*
X138964015Y-58581481D01*
X138845481Y-58700015D01*
X138706100Y-58793147D01*
X138551228Y-58857297D01*
X138386816Y-58890000D01*
X138219184Y-58890000D01*
X138054772Y-58857297D01*
X137899900Y-58793147D01*
X137760519Y-58700015D01*
X137641985Y-58581481D01*
X137548853Y-58442100D01*
X137484703Y-58287228D01*
X137452000Y-58122816D01*
X137452000Y-57955184D01*
X137484703Y-57790772D01*
X137548853Y-57635900D01*
X137641985Y-57496519D01*
X137760519Y-57377985D01*
X137899900Y-57284853D01*
X138054772Y-57220703D01*
X138219184Y-57188000D01*
X138386816Y-57188000D01*
X138551228Y-57220703D01*
G37*
G36*
X148965228Y-56712703D02*
G01*
X149120100Y-56776853D01*
X149259481Y-56869985D01*
X149378015Y-56988519D01*
X149471147Y-57127900D01*
X149535297Y-57282772D01*
X149568000Y-57447184D01*
X149568000Y-57614816D01*
X149535297Y-57779228D01*
X149471147Y-57934100D01*
X149378015Y-58073481D01*
X149259481Y-58192015D01*
X149120100Y-58285147D01*
X148965228Y-58349297D01*
X148800816Y-58382000D01*
X148633184Y-58382000D01*
X148468772Y-58349297D01*
X148313900Y-58285147D01*
X148174519Y-58192015D01*
X148055985Y-58073481D01*
X147962853Y-57934100D01*
X147898703Y-57779228D01*
X147866000Y-57614816D01*
X147866000Y-57447184D01*
X147898703Y-57282772D01*
X147962853Y-57127900D01*
X148055985Y-56988519D01*
X148174519Y-56869985D01*
X148313900Y-56776853D01*
X148468772Y-56712703D01*
X148633184Y-56680000D01*
X148800816Y-56680000D01*
X148965228Y-56712703D01*
G37*
G36*
X141345228Y-56712703D02*
G01*
X141500100Y-56776853D01*
X141639481Y-56869985D01*
X141758015Y-56988519D01*
X141851147Y-57127900D01*
X141915297Y-57282772D01*
X141948000Y-57447184D01*
X141948000Y-57614816D01*
X141915297Y-57779228D01*
X141851147Y-57934100D01*
X141758015Y-58073481D01*
X141639481Y-58192015D01*
X141500100Y-58285147D01*
X141345228Y-58349297D01*
X141180816Y-58382000D01*
X141013184Y-58382000D01*
X140848772Y-58349297D01*
X140693900Y-58285147D01*
X140554519Y-58192015D01*
X140435985Y-58073481D01*
X140342853Y-57934100D01*
X140278703Y-57779228D01*
X140246000Y-57614816D01*
X140246000Y-57447184D01*
X140278703Y-57282772D01*
X140342853Y-57127900D01*
X140435985Y-56988519D01*
X140554519Y-56869985D01*
X140693900Y-56776853D01*
X140848772Y-56712703D01*
X141013184Y-56680000D01*
X141180816Y-56680000D01*
X141345228Y-56712703D01*
G37*
G36*
X132800487Y-54374996D02*
G01*
X133037253Y-54473068D01*
X133037255Y-54473069D01*
X133209112Y-54587900D01*
X133250339Y-54615447D01*
X133431553Y-54796661D01*
X133573932Y-55009747D01*
X133672004Y-55246513D01*
X133722000Y-55497861D01*
X133722000Y-55754139D01*
X133672004Y-56005487D01*
X133573932Y-56242253D01*
X133573931Y-56242255D01*
X133431553Y-56455339D01*
X133250339Y-56636553D01*
X133037255Y-56778931D01*
X133037254Y-56778932D01*
X133037253Y-56778932D01*
X132800487Y-56877004D01*
X132549139Y-56927000D01*
X132292861Y-56927000D01*
X132041513Y-56877004D01*
X131804747Y-56778932D01*
X131804746Y-56778932D01*
X131804745Y-56778931D01*
X131591661Y-56636553D01*
X131410447Y-56455339D01*
X131268069Y-56242255D01*
X131268068Y-56242253D01*
X131169996Y-56005487D01*
X131120000Y-55754139D01*
X131120000Y-55497861D01*
X131169996Y-55246513D01*
X131268068Y-55009747D01*
X131410447Y-54796661D01*
X131591661Y-54615447D01*
X131632888Y-54587900D01*
X131804745Y-54473069D01*
X131804747Y-54473068D01*
X132041513Y-54374996D01*
X132292861Y-54325000D01*
X132549139Y-54325000D01*
X132800487Y-54374996D01*
G37*
G36*
X148965228Y-54172703D02*
G01*
X149120100Y-54236853D01*
X149259481Y-54329985D01*
X149378015Y-54448519D01*
X149471147Y-54587900D01*
X149535297Y-54742772D01*
X149568000Y-54907184D01*
X149568000Y-55074816D01*
X149535297Y-55239228D01*
X149471147Y-55394100D01*
X149378015Y-55533481D01*
X149259481Y-55652015D01*
X149120100Y-55745147D01*
X148965228Y-55809297D01*
X148800816Y-55842000D01*
X148633184Y-55842000D01*
X148468772Y-55809297D01*
X148313900Y-55745147D01*
X148174519Y-55652015D01*
X148055985Y-55533481D01*
X147962853Y-55394100D01*
X147898703Y-55239228D01*
X147866000Y-55074816D01*
X147866000Y-54907184D01*
X147898703Y-54742772D01*
X147962853Y-54587900D01*
X148055985Y-54448519D01*
X148174519Y-54329985D01*
X148313900Y-54236853D01*
X148468772Y-54172703D01*
X148633184Y-54140000D01*
X148800816Y-54140000D01*
X148965228Y-54172703D01*
G37*
G36*
X141345228Y-54172703D02*
G01*
X141500100Y-54236853D01*
X141639481Y-54329985D01*
X141758015Y-54448519D01*
X141851147Y-54587900D01*
X141915297Y-54742772D01*
X141948000Y-54907184D01*
X141948000Y-55074816D01*
X141915297Y-55239228D01*
X141851147Y-55394100D01*
X141758015Y-55533481D01*
X141639481Y-55652015D01*
X141500100Y-55745147D01*
X141345228Y-55809297D01*
X141180816Y-55842000D01*
X141013184Y-55842000D01*
X140848772Y-55809297D01*
X140693900Y-55745147D01*
X140554519Y-55652015D01*
X140435985Y-55533481D01*
X140342853Y-55394100D01*
X140278703Y-55239228D01*
X140246000Y-55074816D01*
X140246000Y-54907184D01*
X140278703Y-54742772D01*
X140342853Y-54587900D01*
X140435985Y-54448519D01*
X140554519Y-54329985D01*
X140693900Y-54236853D01*
X140848772Y-54172703D01*
X141013184Y-54140000D01*
X141180816Y-54140000D01*
X141345228Y-54172703D01*
G37*
G36*
X141345228Y-51632703D02*
G01*
X141500100Y-51696853D01*
X141639481Y-51789985D01*
X141758015Y-51908519D01*
X141851147Y-52047900D01*
X141915297Y-52202772D01*
X141948000Y-52367184D01*
X141948000Y-52534816D01*
X141915297Y-52699228D01*
X141851147Y-52854100D01*
X141758015Y-52993481D01*
X141639481Y-53112015D01*
X141500100Y-53205147D01*
X141345228Y-53269297D01*
X141180816Y-53302000D01*
X141013184Y-53302000D01*
X140848772Y-53269297D01*
X140693900Y-53205147D01*
X140554519Y-53112015D01*
X140435985Y-52993481D01*
X140342853Y-52854100D01*
X140278703Y-52699228D01*
X140246000Y-52534816D01*
X140246000Y-52367184D01*
X140278703Y-52202772D01*
X140342853Y-52047900D01*
X140435985Y-51908519D01*
X140554519Y-51789985D01*
X140693900Y-51696853D01*
X140848772Y-51632703D01*
X141013184Y-51600000D01*
X141180816Y-51600000D01*
X141345228Y-51632703D01*
G37*
G36*
X148965228Y-51632703D02*
G01*
X149120100Y-51696853D01*
X149259481Y-51789985D01*
X149378015Y-51908519D01*
X149471147Y-52047900D01*
X149535297Y-52202772D01*
X149568000Y-52367184D01*
X149568000Y-52534816D01*
X149535297Y-52699228D01*
X149471147Y-52854100D01*
X149378015Y-52993481D01*
X149259481Y-53112015D01*
X149120100Y-53205147D01*
X148965228Y-53269297D01*
X148800816Y-53302000D01*
X148633184Y-53302000D01*
X148468772Y-53269297D01*
X148313900Y-53205147D01*
X148174519Y-53112015D01*
X148055985Y-52993481D01*
X147962853Y-52854100D01*
X147898703Y-52699228D01*
X147866000Y-52534816D01*
X147866000Y-52367184D01*
X147898703Y-52202772D01*
X147962853Y-52047900D01*
X148055985Y-51908519D01*
X148174519Y-51789985D01*
X148313900Y-51696853D01*
X148468772Y-51632703D01*
X148633184Y-51600000D01*
X148800816Y-51600000D01*
X148965228Y-51632703D01*
G37*
G36*
X135300487Y-49374996D02*
G01*
X135532562Y-49471125D01*
X135537255Y-49473069D01*
X135750339Y-49615447D01*
X135931553Y-49796661D01*
X136063956Y-49994816D01*
X136073932Y-50009747D01*
X136172004Y-50246513D01*
X136222000Y-50497861D01*
X136222000Y-50754139D01*
X136172004Y-51005487D01*
X136073932Y-51242253D01*
X136073931Y-51242255D01*
X135931553Y-51455339D01*
X135750339Y-51636553D01*
X135537255Y-51778931D01*
X135537254Y-51778932D01*
X135537253Y-51778932D01*
X135300487Y-51877004D01*
X135049139Y-51927000D01*
X134792861Y-51927000D01*
X134541513Y-51877004D01*
X134304747Y-51778932D01*
X134304746Y-51778932D01*
X134304745Y-51778931D01*
X134091661Y-51636553D01*
X133910447Y-51455339D01*
X133768069Y-51242255D01*
X133768068Y-51242253D01*
X133669996Y-51005487D01*
X133620000Y-50754139D01*
X133620000Y-50497861D01*
X133669996Y-50246513D01*
X133768068Y-50009747D01*
X133778045Y-49994816D01*
X133910447Y-49796661D01*
X134091661Y-49615447D01*
X134304745Y-49473069D01*
X134309438Y-49471125D01*
X134541513Y-49374996D01*
X134792861Y-49325000D01*
X135049139Y-49325000D01*
X135300487Y-49374996D01*
G37*
G36*
X122578023Y-49486590D02*
G01*
X122678682Y-49517125D01*
X122729013Y-49532392D01*
X122868165Y-49606771D01*
X122990133Y-49706867D01*
X123090229Y-49828835D01*
X123164608Y-49967987D01*
X123179875Y-50018318D01*
X123210410Y-50118977D01*
X123222000Y-50236655D01*
X123222000Y-51015345D01*
X123210410Y-51133023D01*
X123179875Y-51233682D01*
X123164608Y-51284013D01*
X123090230Y-51423164D01*
X123090229Y-51423165D01*
X122990133Y-51545133D01*
X122923276Y-51600000D01*
X122868164Y-51645229D01*
X122729012Y-51719608D01*
X122678681Y-51734875D01*
X122578022Y-51765410D01*
X122421000Y-51780875D01*
X122263977Y-51765410D01*
X122163318Y-51734875D01*
X122112987Y-51719608D01*
X121973835Y-51645229D01*
X121963263Y-51636553D01*
X121851867Y-51545133D01*
X121751771Y-51423164D01*
X121677393Y-51284013D01*
X121677392Y-51284012D01*
X121662125Y-51233681D01*
X121631590Y-51133022D01*
X121620000Y-51015344D01*
X121620000Y-50236655D01*
X121631590Y-50118977D01*
X121664726Y-50009745D01*
X121677393Y-49967987D01*
X121751772Y-49828835D01*
X121851868Y-49706867D01*
X121973836Y-49606771D01*
X122112988Y-49532392D01*
X122163319Y-49517125D01*
X122263978Y-49486590D01*
X122421000Y-49471125D01*
X122578023Y-49486590D01*
G37*
G36*
X139154000Y-51270000D02*
G01*
X137452000Y-51270000D01*
X137452000Y-49568000D01*
X139154000Y-49568000D01*
X139154000Y-51270000D01*
G37*
G36*
X148965228Y-49092703D02*
G01*
X149120100Y-49156853D01*
X149259481Y-49249985D01*
X149378015Y-49368519D01*
X149471147Y-49507900D01*
X149535297Y-49662772D01*
X149568000Y-49827184D01*
X149568000Y-49994816D01*
X149535297Y-50159228D01*
X149471147Y-50314100D01*
X149378015Y-50453481D01*
X149259481Y-50572015D01*
X149120100Y-50665147D01*
X148965228Y-50729297D01*
X148800816Y-50762000D01*
X148633184Y-50762000D01*
X148468772Y-50729297D01*
X148313900Y-50665147D01*
X148174519Y-50572015D01*
X148055985Y-50453481D01*
X147962853Y-50314100D01*
X147898703Y-50159228D01*
X147866000Y-49994816D01*
X147866000Y-49827184D01*
X147898703Y-49662772D01*
X147962853Y-49507900D01*
X148055985Y-49368519D01*
X148174519Y-49249985D01*
X148313900Y-49156853D01*
X148468772Y-49092703D01*
X148633184Y-49060000D01*
X148800816Y-49060000D01*
X148965228Y-49092703D01*
G37*
G36*
X141948000Y-50762000D02*
G01*
X140246000Y-50762000D01*
X140246000Y-49060000D01*
X141948000Y-49060000D01*
X141948000Y-50762000D01*
G37*
G36*
X132800487Y-46874996D02*
G01*
X133037253Y-46973068D01*
X133037255Y-46973069D01*
X133250339Y-47115447D01*
X133431553Y-47296661D01*
X133539450Y-47458140D01*
X133573932Y-47509747D01*
X133672004Y-47746513D01*
X133722000Y-47997861D01*
X133722000Y-48254139D01*
X133672004Y-48505487D01*
X133573932Y-48742253D01*
X133573931Y-48742255D01*
X133431553Y-48955339D01*
X133250339Y-49136553D01*
X133037255Y-49278931D01*
X133037254Y-49278932D01*
X133037253Y-49278932D01*
X132800487Y-49377004D01*
X132549139Y-49427000D01*
X132292861Y-49427000D01*
X132041513Y-49377004D01*
X131804747Y-49278932D01*
X131804746Y-49278932D01*
X131804745Y-49278931D01*
X131591661Y-49136553D01*
X131410447Y-48955339D01*
X131268069Y-48742255D01*
X131268068Y-48742253D01*
X131169996Y-48505487D01*
X131120000Y-48254139D01*
X131120000Y-47997861D01*
X131169996Y-47746513D01*
X131268068Y-47509747D01*
X131302551Y-47458140D01*
X131410447Y-47296661D01*
X131591661Y-47115447D01*
X131804745Y-46973069D01*
X131804747Y-46973068D01*
X132041513Y-46874996D01*
X132292861Y-46825000D01*
X132549139Y-46825000D01*
X132800487Y-46874996D01*
G37*
G36*
X140681059Y-46013860D02*
G01*
X140817732Y-46070472D01*
X140940735Y-46152660D01*
X141045340Y-46257265D01*
X141127528Y-46380268D01*
X141184140Y-46516941D01*
X141213000Y-46662033D01*
X141213000Y-46809967D01*
X141184140Y-46955059D01*
X141127528Y-47091732D01*
X141045340Y-47214735D01*
X140940735Y-47319340D01*
X140817732Y-47401528D01*
X140817731Y-47401529D01*
X140817730Y-47401529D01*
X140681059Y-47458140D01*
X140535968Y-47487000D01*
X140388032Y-47487000D01*
X140242941Y-47458140D01*
X140106270Y-47401529D01*
X140106269Y-47401529D01*
X140106268Y-47401528D01*
X139983265Y-47319340D01*
X139878660Y-47214735D01*
X139796472Y-47091732D01*
X139739860Y-46955059D01*
X139711000Y-46809967D01*
X139711000Y-46662033D01*
X139739860Y-46516941D01*
X139796472Y-46380268D01*
X139878660Y-46257265D01*
X139983265Y-46152660D01*
X140106268Y-46070472D01*
X140242941Y-46013860D01*
X140388032Y-45985000D01*
X140535968Y-45985000D01*
X140681059Y-46013860D01*
G37*
G36*
X142967059Y-46013860D02*
G01*
X143103732Y-46070472D01*
X143226735Y-46152660D01*
X143331340Y-46257265D01*
X143413528Y-46380268D01*
X143470140Y-46516941D01*
X143499000Y-46662033D01*
X143499000Y-46809967D01*
X143470140Y-46955059D01*
X143413528Y-47091732D01*
X143331340Y-47214735D01*
X143226735Y-47319340D01*
X143103732Y-47401528D01*
X143103731Y-47401529D01*
X143103730Y-47401529D01*
X142967059Y-47458140D01*
X142821968Y-47487000D01*
X142674032Y-47487000D01*
X142528941Y-47458140D01*
X142392270Y-47401529D01*
X142392269Y-47401529D01*
X142392268Y-47401528D01*
X142269265Y-47319340D01*
X142164660Y-47214735D01*
X142082472Y-47091732D01*
X142025860Y-46955059D01*
X141997000Y-46809967D01*
X141997000Y-46662033D01*
X142025860Y-46516941D01*
X142082472Y-46380268D01*
X142164660Y-46257265D01*
X142269265Y-46152660D01*
X142392268Y-46070472D01*
X142528941Y-46013860D01*
X142674032Y-45985000D01*
X142821968Y-45985000D01*
X142967059Y-46013860D01*
G37*
G36*
X136646256Y-43984298D02*
G01*
X136752579Y-44005447D01*
X137053042Y-44129903D01*
X137323451Y-44310585D01*
X137553415Y-44540549D01*
X137734097Y-44810958D01*
X137858553Y-45111421D01*
X137922000Y-45430391D01*
X137922000Y-45755609D01*
X137858553Y-46074579D01*
X137734097Y-46375042D01*
X137553415Y-46645451D01*
X137323451Y-46875415D01*
X137053042Y-47056097D01*
X136752579Y-47180553D01*
X136646256Y-47201702D01*
X136433611Y-47244000D01*
X136108389Y-47244000D01*
X135895744Y-47201702D01*
X135789421Y-47180553D01*
X135488958Y-47056097D01*
X135218549Y-46875415D01*
X134988585Y-46645451D01*
X134807903Y-46375042D01*
X134683447Y-46074579D01*
X134620000Y-45755609D01*
X134620000Y-45430391D01*
X134683447Y-45111421D01*
X134807903Y-44810958D01*
X134988585Y-44540549D01*
X135218549Y-44310585D01*
X135488958Y-44129903D01*
X135789421Y-44005447D01*
X135895744Y-43984298D01*
X136108389Y-43942000D01*
X136433611Y-43942000D01*
X136646256Y-43984298D01*
G37*
G36*
X132800487Y-41681996D02*
G01*
X133037253Y-41780068D01*
X133037255Y-41780069D01*
X133081183Y-41809421D01*
X133250339Y-41922447D01*
X133431553Y-42103661D01*
X133573932Y-42316747D01*
X133672004Y-42553513D01*
X133722000Y-42804861D01*
X133722000Y-43061139D01*
X133672004Y-43312487D01*
X133659179Y-43343449D01*
X133573931Y-43549255D01*
X133431553Y-43762339D01*
X133250339Y-43943553D01*
X133037255Y-44085931D01*
X133037254Y-44085932D01*
X133037253Y-44085932D01*
X132800487Y-44184004D01*
X132549139Y-44234000D01*
X132292861Y-44234000D01*
X132041513Y-44184004D01*
X131804747Y-44085932D01*
X131804746Y-44085932D01*
X131804745Y-44085931D01*
X131591661Y-43943553D01*
X131410447Y-43762339D01*
X131268069Y-43549255D01*
X131182821Y-43343449D01*
X131169996Y-43312487D01*
X131120000Y-43061139D01*
X131120000Y-42804861D01*
X131169996Y-42553513D01*
X131268068Y-42316747D01*
X131410447Y-42103661D01*
X131591661Y-41922447D01*
X131760817Y-41809421D01*
X131804745Y-41780069D01*
X131804747Y-41780068D01*
X132041513Y-41681996D01*
X132292861Y-41632000D01*
X132549139Y-41632000D01*
X132800487Y-41681996D01*
G37*
G36*
X147314256Y-40682298D02*
G01*
X147420579Y-40703447D01*
X147633037Y-40791450D01*
X147707627Y-40822346D01*
X147721042Y-40827903D01*
X147991451Y-41008585D01*
X148221415Y-41238549D01*
X148402097Y-41508958D01*
X148526553Y-41809421D01*
X148590000Y-42128391D01*
X148590000Y-42453609D01*
X148526553Y-42772579D01*
X148438550Y-42985037D01*
X148407028Y-43061139D01*
X148402097Y-43073042D01*
X148221415Y-43343451D01*
X147991451Y-43573415D01*
X147721042Y-43754097D01*
X147420579Y-43878553D01*
X147314256Y-43899702D01*
X147101611Y-43942000D01*
X146776389Y-43942000D01*
X146563744Y-43899702D01*
X146457421Y-43878553D01*
X146156958Y-43754097D01*
X145886549Y-43573415D01*
X145656585Y-43343451D01*
X145475903Y-43073042D01*
X145470973Y-43061139D01*
X145439450Y-42985037D01*
X145351447Y-42772579D01*
X145288000Y-42453609D01*
X145288000Y-42128391D01*
X145351447Y-41809421D01*
X145475903Y-41508958D01*
X145656585Y-41238549D01*
X145886549Y-41008585D01*
X146156958Y-40827903D01*
X146170374Y-40822346D01*
X146244963Y-40791450D01*
X146457421Y-40703447D01*
X146563744Y-40682298D01*
X146776389Y-40640000D01*
X147101611Y-40640000D01*
X147314256Y-40682298D01*
G37*
G36*
X135300487Y-39181996D02*
G01*
X135532562Y-39278125D01*
X135537255Y-39280069D01*
X135750339Y-39422447D01*
X135931553Y-39603661D01*
X135995484Y-39699340D01*
X136073932Y-39816747D01*
X136172004Y-40053513D01*
X136222000Y-40304861D01*
X136222000Y-40561139D01*
X136172004Y-40812487D01*
X136090777Y-41008585D01*
X136073931Y-41049255D01*
X135931553Y-41262339D01*
X135750339Y-41443553D01*
X135537255Y-41585931D01*
X135537254Y-41585932D01*
X135537253Y-41585932D01*
X135300487Y-41684004D01*
X135049139Y-41734000D01*
X134792861Y-41734000D01*
X134541513Y-41684004D01*
X134304747Y-41585932D01*
X134304746Y-41585932D01*
X134304745Y-41585931D01*
X134091661Y-41443553D01*
X133910447Y-41262339D01*
X133768069Y-41049255D01*
X133751223Y-41008585D01*
X133669996Y-40812487D01*
X133620000Y-40561139D01*
X133620000Y-40304861D01*
X133669996Y-40053513D01*
X133768068Y-39816747D01*
X133846517Y-39699340D01*
X133910447Y-39603661D01*
X134091661Y-39422447D01*
X134304745Y-39280069D01*
X134309438Y-39278125D01*
X134541513Y-39181996D01*
X134792861Y-39132000D01*
X135049139Y-39132000D01*
X135300487Y-39181996D01*
G37*
G36*
X122578023Y-39293590D02*
G01*
X122678682Y-39324125D01*
X122729013Y-39339392D01*
X122868165Y-39413771D01*
X122990133Y-39513867D01*
X123090229Y-39635835D01*
X123164608Y-39774987D01*
X123179875Y-39825318D01*
X123210410Y-39925977D01*
X123222000Y-40043655D01*
X123222000Y-40822345D01*
X123210410Y-40940023D01*
X123189612Y-41008584D01*
X123164608Y-41091013D01*
X123090230Y-41230164D01*
X123090229Y-41230165D01*
X122990133Y-41352133D01*
X122878736Y-41443553D01*
X122868164Y-41452229D01*
X122729012Y-41526608D01*
X122678681Y-41541875D01*
X122578022Y-41572410D01*
X122421000Y-41587875D01*
X122263977Y-41572410D01*
X122163318Y-41541875D01*
X122112987Y-41526608D01*
X121973835Y-41452229D01*
X121963263Y-41443553D01*
X121851867Y-41352133D01*
X121751771Y-41230164D01*
X121677393Y-41091013D01*
X121677392Y-41091012D01*
X121662125Y-41040681D01*
X121631590Y-40940022D01*
X121623863Y-40861570D01*
X121620000Y-40822345D01*
X121620000Y-40043654D01*
X121631590Y-39925979D01*
X121631590Y-39925977D01*
X121677393Y-39774988D01*
X121677393Y-39774987D01*
X121751772Y-39635835D01*
X121851868Y-39513867D01*
X121973836Y-39413771D01*
X122112988Y-39339392D01*
X122163319Y-39324125D01*
X122263978Y-39293590D01*
X122421000Y-39278125D01*
X122578023Y-39293590D01*
G37*
G36*
X142967059Y-38393860D02*
G01*
X143103732Y-38450472D01*
X143226735Y-38532660D01*
X143331340Y-38637265D01*
X143413528Y-38760268D01*
X143470140Y-38896941D01*
X143499000Y-39042033D01*
X143499000Y-39189967D01*
X143470140Y-39335059D01*
X143413528Y-39471732D01*
X143331340Y-39594735D01*
X143226735Y-39699340D01*
X143103732Y-39781528D01*
X143103731Y-39781529D01*
X143103730Y-39781529D01*
X142967059Y-39838140D01*
X142821968Y-39867000D01*
X142674032Y-39867000D01*
X142528941Y-39838140D01*
X142392270Y-39781529D01*
X142392269Y-39781529D01*
X142392268Y-39781528D01*
X142269265Y-39699340D01*
X142164660Y-39594735D01*
X142082472Y-39471732D01*
X142025860Y-39335059D01*
X141997000Y-39189967D01*
X141997000Y-39042033D01*
X142025860Y-38896941D01*
X142082472Y-38760268D01*
X142164660Y-38637265D01*
X142269265Y-38532660D01*
X142392268Y-38450472D01*
X142528941Y-38393860D01*
X142674032Y-38365000D01*
X142821968Y-38365000D01*
X142967059Y-38393860D01*
G37*
G36*
X140681059Y-38393860D02*
G01*
X140817732Y-38450472D01*
X140940735Y-38532660D01*
X141045340Y-38637265D01*
X141127528Y-38760268D01*
X141184140Y-38896941D01*
X141213000Y-39042033D01*
X141213000Y-39189967D01*
X141184140Y-39335059D01*
X141127528Y-39471732D01*
X141045340Y-39594735D01*
X140940735Y-39699340D01*
X140817732Y-39781528D01*
X140817731Y-39781529D01*
X140817730Y-39781529D01*
X140681059Y-39838140D01*
X140535968Y-39867000D01*
X140388032Y-39867000D01*
X140242941Y-39838140D01*
X140106270Y-39781529D01*
X140106269Y-39781529D01*
X140106268Y-39781528D01*
X139983265Y-39699340D01*
X139878660Y-39594735D01*
X139796472Y-39471732D01*
X139739860Y-39335059D01*
X139711000Y-39189967D01*
X139711000Y-39042033D01*
X139739860Y-38896941D01*
X139796472Y-38760268D01*
X139878660Y-38637265D01*
X139983265Y-38532660D01*
X140106268Y-38450472D01*
X140242941Y-38393860D01*
X140388032Y-38365000D01*
X140535968Y-38365000D01*
X140681059Y-38393860D01*
G37*
G36*
X145380059Y-35726860D02*
G01*
X145516732Y-35783472D01*
X145639735Y-35865660D01*
X145744340Y-35970265D01*
X145826528Y-36093268D01*
X145883140Y-36229941D01*
X145912000Y-36375033D01*
X145912000Y-36522967D01*
X145883140Y-36668059D01*
X145826528Y-36804732D01*
X145744340Y-36927735D01*
X145639735Y-37032340D01*
X145516732Y-37114528D01*
X145516731Y-37114529D01*
X145516730Y-37114529D01*
X145380059Y-37171140D01*
X145234968Y-37200000D01*
X145087032Y-37200000D01*
X144941941Y-37171140D01*
X144805270Y-37114529D01*
X144805269Y-37114529D01*
X144805268Y-37114528D01*
X144682265Y-37032340D01*
X144577660Y-36927735D01*
X144495472Y-36804732D01*
X144438860Y-36668059D01*
X144410000Y-36522967D01*
X144410000Y-36375033D01*
X144438860Y-36229941D01*
X144495472Y-36093268D01*
X144577660Y-35970265D01*
X144682265Y-35865660D01*
X144805268Y-35783472D01*
X144941941Y-35726860D01*
X145087032Y-35698000D01*
X145234968Y-35698000D01*
X145380059Y-35726860D01*
G37*
G36*
X132800487Y-34181996D02*
G01*
X133037253Y-34280068D01*
X133037255Y-34280069D01*
X133250339Y-34422447D01*
X133431553Y-34603661D01*
X133573932Y-34816747D01*
X133672004Y-35053513D01*
X133722000Y-35304861D01*
X133722000Y-35561139D01*
X133672004Y-35812487D01*
X133606650Y-35970265D01*
X133573931Y-36049255D01*
X133431553Y-36262339D01*
X133250339Y-36443553D01*
X133037255Y-36585931D01*
X133037254Y-36585932D01*
X133037253Y-36585932D01*
X132800487Y-36684004D01*
X132549139Y-36734000D01*
X132292861Y-36734000D01*
X132041513Y-36684004D01*
X131804747Y-36585932D01*
X131804746Y-36585932D01*
X131804745Y-36585931D01*
X131591661Y-36443553D01*
X131410447Y-36262339D01*
X131268069Y-36049255D01*
X131235350Y-35970265D01*
X131169996Y-35812487D01*
X131120000Y-35561139D01*
X131120000Y-35304861D01*
X131169996Y-35053513D01*
X131268068Y-34816747D01*
X131410447Y-34603661D01*
X131591661Y-34422447D01*
X131804745Y-34280069D01*
X131804747Y-34280068D01*
X132041513Y-34181996D01*
X132292861Y-34132000D01*
X132549139Y-34132000D01*
X132800487Y-34181996D01*
G37*
G36*
X139567256Y-31411298D02*
G01*
X139673579Y-31432447D01*
X139886037Y-31520450D01*
X139900904Y-31526608D01*
X139974042Y-31556903D01*
X140244451Y-31737585D01*
X140474415Y-31967549D01*
X140655097Y-32237958D01*
X140779553Y-32538421D01*
X140843000Y-32857391D01*
X140843000Y-33182609D01*
X140779553Y-33501579D01*
X140655097Y-33802042D01*
X140474415Y-34072451D01*
X140244451Y-34302415D01*
X139974042Y-34483097D01*
X139673579Y-34607553D01*
X139567256Y-34628702D01*
X139354611Y-34671000D01*
X139029389Y-34671000D01*
X138816744Y-34628702D01*
X138710421Y-34607553D01*
X138409958Y-34483097D01*
X138139549Y-34302415D01*
X137909585Y-34072451D01*
X137728903Y-33802042D01*
X137604447Y-33501579D01*
X137541000Y-33182609D01*
X137541000Y-32857391D01*
X137604447Y-32538421D01*
X137728903Y-32237958D01*
X137909585Y-31967549D01*
X138139549Y-31737585D01*
X138409958Y-31556903D01*
X138483097Y-31526608D01*
X138497963Y-31520450D01*
X138710421Y-31432447D01*
X138816744Y-31411298D01*
X139029389Y-31369000D01*
X139354611Y-31369000D01*
X139567256Y-31411298D01*
G37*
G36*
X135300487Y-29181996D02*
G01*
X135532562Y-29278125D01*
X135537255Y-29280069D01*
X135578657Y-29307733D01*
X135750339Y-29422447D01*
X135931553Y-29603661D01*
X136073932Y-29816747D01*
X136172004Y-30053513D01*
X136222000Y-30304861D01*
X136222000Y-30561139D01*
X136172004Y-30812487D01*
X136073932Y-31049253D01*
X136073931Y-31049255D01*
X135931553Y-31262339D01*
X135750339Y-31443553D01*
X135537255Y-31585931D01*
X135537254Y-31585932D01*
X135537253Y-31585932D01*
X135300487Y-31684004D01*
X135049139Y-31734000D01*
X134792861Y-31734000D01*
X134541513Y-31684004D01*
X134304747Y-31585932D01*
X134304746Y-31585932D01*
X134304745Y-31585931D01*
X134091661Y-31443553D01*
X133910447Y-31262339D01*
X133768069Y-31049255D01*
X133768068Y-31049253D01*
X133669996Y-30812487D01*
X133620000Y-30561139D01*
X133620000Y-30304861D01*
X133669996Y-30053513D01*
X133768068Y-29816747D01*
X133910447Y-29603661D01*
X134091661Y-29422447D01*
X134263343Y-29307733D01*
X134304745Y-29280069D01*
X134309438Y-29278125D01*
X134541513Y-29181996D01*
X134792861Y-29132000D01*
X135049139Y-29132000D01*
X135300487Y-29181996D01*
G37*
G36*
X122578023Y-29293590D02*
G01*
X122678682Y-29324125D01*
X122729013Y-29339392D01*
X122868165Y-29413771D01*
X122990133Y-29513867D01*
X123090229Y-29635835D01*
X123164608Y-29774987D01*
X123179875Y-29825318D01*
X123210410Y-29925977D01*
X123222000Y-30043655D01*
X123222000Y-30822345D01*
X123210410Y-30940023D01*
X123179875Y-31040682D01*
X123164608Y-31091013D01*
X123090230Y-31230164D01*
X123090229Y-31230165D01*
X122990133Y-31352133D01*
X122892269Y-31432447D01*
X122868164Y-31452229D01*
X122729012Y-31526608D01*
X122678681Y-31541875D01*
X122578022Y-31572410D01*
X122421000Y-31587875D01*
X122263977Y-31572410D01*
X122163318Y-31541875D01*
X122112987Y-31526608D01*
X121973835Y-31452229D01*
X121963263Y-31443553D01*
X121851867Y-31352133D01*
X121751771Y-31230164D01*
X121677393Y-31091013D01*
X121677392Y-31091012D01*
X121662125Y-31040681D01*
X121631590Y-30940022D01*
X121620000Y-30822344D01*
X121620000Y-30043655D01*
X121631590Y-29925977D01*
X121677393Y-29774988D01*
X121677393Y-29774987D01*
X121751772Y-29635835D01*
X121851868Y-29513867D01*
X121973836Y-29413771D01*
X122112988Y-29339392D01*
X122163319Y-29324125D01*
X122263978Y-29293590D01*
X122421000Y-29278125D01*
X122578023Y-29293590D01*
G37*
G36*
X154172256Y-26712298D02*
G01*
X154278579Y-26733447D01*
X154579042Y-26857903D01*
X154849451Y-27038585D01*
X155079415Y-27268549D01*
X155111620Y-27316747D01*
X155260098Y-27538960D01*
X155266126Y-27553513D01*
X155370239Y-27804863D01*
X155384553Y-27839422D01*
X155432010Y-28078000D01*
X155448000Y-28158391D01*
X155448000Y-28483609D01*
X155384553Y-28802579D01*
X155260097Y-29103042D01*
X155079415Y-29373451D01*
X154849451Y-29603415D01*
X154579042Y-29784097D01*
X154278579Y-29908553D01*
X154190972Y-29925979D01*
X153959611Y-29972000D01*
X153634389Y-29972000D01*
X153403028Y-29925979D01*
X153315421Y-29908553D01*
X153014958Y-29784097D01*
X152744549Y-29603415D01*
X152514585Y-29373451D01*
X152333903Y-29103042D01*
X152209447Y-28802579D01*
X152146000Y-28483609D01*
X152146000Y-28158391D01*
X152161991Y-28078000D01*
X152209447Y-27839422D01*
X152223762Y-27804863D01*
X152327874Y-27553513D01*
X152333902Y-27538960D01*
X152482380Y-27316747D01*
X152514585Y-27268549D01*
X152744549Y-27038585D01*
X153014958Y-26857903D01*
X153315421Y-26733447D01*
X153421744Y-26712298D01*
X153634389Y-26670000D01*
X153959611Y-26670000D01*
X154172256Y-26712298D01*
G37*
G36*
X145380059Y-28106860D02*
G01*
X145504466Y-28158391D01*
X145516732Y-28163472D01*
X145639735Y-28245660D01*
X145744340Y-28350265D01*
X145744341Y-28350267D01*
X145826529Y-28473270D01*
X145830812Y-28483611D01*
X145883140Y-28609941D01*
X145912000Y-28755033D01*
X145912000Y-28902967D01*
X145883140Y-29048059D01*
X145826528Y-29184732D01*
X145744340Y-29307735D01*
X145639735Y-29412340D01*
X145516732Y-29494528D01*
X145516731Y-29494529D01*
X145516730Y-29494529D01*
X145380059Y-29551140D01*
X145234968Y-29580000D01*
X145087032Y-29580000D01*
X144941941Y-29551140D01*
X144805270Y-29494529D01*
X144805269Y-29494529D01*
X144805268Y-29494528D01*
X144682265Y-29412340D01*
X144577660Y-29307735D01*
X144495472Y-29184732D01*
X144438860Y-29048059D01*
X144410000Y-28902967D01*
X144410000Y-28755033D01*
X144438860Y-28609941D01*
X144491188Y-28483611D01*
X144495471Y-28473270D01*
X144577659Y-28350267D01*
X144577660Y-28350265D01*
X144682265Y-28245660D01*
X144805268Y-28163472D01*
X144817535Y-28158391D01*
X144941941Y-28106860D01*
X145087032Y-28078000D01*
X145234968Y-28078000D01*
X145380059Y-28106860D01*
G37*
G36*
X132800487Y-26681996D02*
G01*
X133037253Y-26780068D01*
X133037255Y-26780069D01*
X133250339Y-26922447D01*
X133431553Y-27103661D01*
X133541728Y-27268549D01*
X133573932Y-27316747D01*
X133672004Y-27553513D01*
X133722000Y-27804861D01*
X133722000Y-28061139D01*
X133672004Y-28312487D01*
X133601122Y-28483611D01*
X133573931Y-28549255D01*
X133431553Y-28762339D01*
X133250339Y-28943553D01*
X133037255Y-29085931D01*
X133037254Y-29085932D01*
X133037253Y-29085932D01*
X132800487Y-29184004D01*
X132549139Y-29234000D01*
X132292861Y-29234000D01*
X132041513Y-29184004D01*
X131804747Y-29085932D01*
X131804746Y-29085932D01*
X131804745Y-29085931D01*
X131591661Y-28943553D01*
X131410447Y-28762339D01*
X131268069Y-28549255D01*
X131240878Y-28483611D01*
X131169996Y-28312487D01*
X131120000Y-28061139D01*
X131120000Y-27804861D01*
X131169996Y-27553513D01*
X131268068Y-27316747D01*
X131300273Y-27268549D01*
X131410447Y-27103661D01*
X131591661Y-26922447D01*
X131804745Y-26780069D01*
X131804747Y-26780068D01*
X132041513Y-26681996D01*
X132292861Y-26632000D01*
X132549139Y-26632000D01*
X132800487Y-26681996D01*
G37*
M02*
