M48
; DRILL file {KiCad 5.1.5+dfsg1-2~bpo10+1} date Sat 18 Apr 2020 01:20:00 PM PDT
; FORMAT={-:-/ absolute / inch / decimal}
; #@! TF.CreationDate,2020-04-18T13:20:00-07:00
; #@! TF.GenerationSoftware,Kicad,Pcbnew,5.1.5+dfsg1-2~bpo10+1
; #@! TF.FileFunction,Plated,1,2,PTH
FMAT,2
INCH
T1C0.0157
T2C0.0197
T3C0.0276
T4C0.0315
T5C0.0354
T6C0.0394
T7C0.0433
T8C0.0512
T9C0.0906
%
G90
G05
T1
X5.02Y-3.39
X5.06Y-3.43
X5.12Y-2.53
X5.25Y-2.68
T2
X5.096Y-3.0622
X5.096Y-3.1016
X5.096Y-3.1409
X5.096Y-3.1803
X5.096Y-3.2197
X5.096Y-3.2591
X5.096Y-3.2984
X5.096Y-3.3378
T3
X5.111Y-2.598
X5.411Y-2.598
X5.62Y-1.54
X5.62Y-1.84
X5.787Y-4.01
X6.087Y-4.01
X5.53Y-1.54
X5.53Y-1.84
X5.715Y-1.135
X5.715Y-1.435
X5.406Y-4.01
X5.706Y-4.01
X5.787Y-4.14
X6.087Y-4.14
X5.406Y-4.14
X5.706Y-4.14
X5.43Y-2.485
X5.73Y-2.485
X5.43Y-2.385
X5.73Y-2.385
T4
X5.555Y-1.965
X5.555Y-2.065
X5.555Y-2.165
X5.555Y-2.265
X5.855Y-1.965
X5.855Y-2.065
X5.855Y-2.165
X5.855Y-2.265
X5.445Y-1.985
X5.445Y-2.285
X5.41Y-2.69
X5.41Y-2.79
X5.51Y-2.69
X5.51Y-2.79
X5.61Y-2.69
X5.61Y-2.79
X5.71Y-2.69
X5.71Y-2.79
X5.81Y-2.69
X5.81Y-2.79
X5.91Y-2.69
X5.91Y-2.79
X6.01Y-2.69
X6.01Y-2.79
X6.11Y-2.69
X6.11Y-2.79
X5.11Y-3.62
X5.21Y-3.62
X5.31Y-3.62
X5.41Y-3.62
X5.51Y-3.62
X5.61Y-3.62
X5.71Y-3.62
X5.81Y-3.62
X5.91Y-3.62
X6.01Y-3.62
X6.11Y-3.62
T5
X5.023Y-2.567
X5.023Y-2.667
T6
X4.865Y-3.15
X4.865Y-3.25
X5.815Y-3.0
X5.815Y-3.1
X5.815Y-3.2
X5.815Y-3.3
X5.815Y-3.4
X5.915Y-3.0
X5.915Y-3.1
X5.915Y-3.2
X5.915Y-3.3
X5.915Y-3.4
T7
X4.815Y-2.9
X4.815Y-3.5
X4.915Y-2.9
X4.915Y-3.0
X4.915Y-3.5
X5.015Y-2.9
X5.015Y-3.5
X5.115Y-2.9
X5.115Y-3.5
X5.215Y-2.9
X5.215Y-3.5
X5.315Y-2.9
X5.315Y-3.5
X5.415Y-2.9
X5.415Y-3.5
X5.515Y-2.9
X5.515Y-3.5
X5.615Y-2.9
X5.615Y-3.5
X5.715Y-2.9
X5.715Y-3.5
X5.815Y-2.9
X5.815Y-3.5
X5.915Y-2.9
X5.915Y-3.5
X6.015Y-2.9
X6.015Y-3.5
X6.115Y-2.9
X6.115Y-3.0
X6.115Y-3.1
X6.115Y-3.2
X6.115Y-3.3
X6.115Y-3.4
X6.115Y-3.5
T8
X5.2134Y-1.8947
X5.2134Y-2.19
X5.2134Y-2.4853
X5.3119Y-1.9931
X5.3119Y-2.3869
X5.2134Y-1.0997
X5.2134Y-1.395
X5.2134Y-1.6903
X5.3119Y-1.1981
X5.3119Y-1.5919
T9
X5.1433Y-3.8091
X5.1433Y-4.3265
T2
G00X4.8197Y-1.9794
M15
G01X4.8197Y-2.0069
M16
G05
G00X4.8197Y-2.3731
M15
G01X4.8197Y-2.4006
M16
G05
G00X4.8197Y-1.1844
M15
G01X4.8197Y-1.2119
M16
G05
G00X4.8197Y-1.5781
M15
G01X4.8197Y-1.6056
M16
G05
T0
M30
